M48
; DRILL file {KiCad (7.0.0)} date Mon Apr  1 18:59:35 2024
; FORMAT={-:-/ absolute / inch / decimal}
; #@! TF.CreationDate,2024-04-01T18:59:35+02:00
; #@! TF.GenerationSoftware,Kicad,Pcbnew,(7.0.0)
; #@! TF.FileFunction,Plated,1,2,PTH
FMAT,2
INCH
; #@! TA.AperFunction,Plated,PTH,ViaDrill
T1C0.0157
; #@! TA.AperFunction,Plated,PTH,ComponentDrill
T2C0.0295
; #@! TA.AperFunction,Plated,PTH,ComponentDrill
T3C0.0331
; #@! TA.AperFunction,Plated,PTH,ComponentDrill
T4C0.0354
; #@! TA.AperFunction,Plated,PTH,ComponentDrill
T5C0.0394
%
G90
G05
T1
X7.035Y-3.42
X7.16Y-2.865
X7.275Y-3.155
X7.475Y-3.125
X7.5Y-2.73
X7.55Y-2.9735
X7.56Y-2.83
X7.5998Y-2.9448
X7.6Y-3.12
X7.785Y-3.1316
X7.7852Y-2.9548
X7.83Y-2.94
X7.87Y-3.2084
X8.14Y-2.85
X8.175Y-2.95
X8.18Y-2.815
X8.23Y-2.685
X8.38Y-2.61
X8.49Y-2.875
X8.5585Y-3.1073
X8.605Y-3.165
X8.6627Y-2.8023
X8.69Y-3.14
X8.785Y-2.485
X8.86Y-3.285
X8.895Y-3.17
X8.905Y-3.39
X8.91Y-3.065
X8.995Y-3.31
X9.035Y-3.18
X9.165Y-3.175
X9.33Y-3.04
X9.585Y-3.235
T2
X7.85Y-3.065
X7.9Y-3.065
X7.95Y-3.065
X8.125Y-3.065
X8.175Y-3.065
X8.225Y-3.065
X8.39Y-3.065
X8.44Y-3.065
X8.49Y-3.065
T3
X7.145Y-2.71
X7.215Y-2.6385
X8.3047Y-2.495
X8.4047Y-2.4939
X9.1285Y-2.635
X9.2Y-2.705
T4
X6.9645Y-2.884
X7.0352Y-2.8133
X8.05Y-2.4889
X8.15Y-2.4889
X9.309Y-2.8105
X9.3797Y-2.8812
T5
X7.4984Y-3.2835
X7.4984Y-3.3835
X7.5984Y-3.2835
X7.5984Y-3.3835
X7.6984Y-3.2835
X7.6984Y-3.3835
X7.7984Y-3.2835
X7.7984Y-3.3835
X7.8984Y-3.2835
X7.8984Y-3.3835
X7.9984Y-3.2835
X7.9984Y-3.3835
X8.0984Y-3.2835
X8.0984Y-3.3835
X8.1984Y-3.2835
X8.1984Y-3.3835
X8.2984Y-3.2835
X8.2984Y-3.3835
X8.3984Y-3.2835
X8.3984Y-3.3835
X8.4984Y-3.2835
X8.4984Y-3.3835
X8.5984Y-3.2835
X8.5984Y-3.3835
X8.6984Y-3.2835
X8.6984Y-3.3835
X8.7984Y-3.2835
X8.7984Y-3.3835
T0
M30
