%TF.GenerationSoftware,KiCad,Pcbnew,(7.0.0)*%
%TF.CreationDate,2024-04-01T18:59:34+02:00*%
%TF.ProjectId,Sensing_Subsystem,53656e73-696e-4675-9f53-756273797374,rev?*%
%TF.SameCoordinates,Original*%
%TF.FileFunction,Legend,Top*%
%TF.FilePolarity,Positive*%
%FSLAX46Y46*%
G04 Gerber Fmt 4.6, Leading zero omitted, Abs format (unit mm)*
G04 Created by KiCad (PCBNEW (7.0.0)) date 2024-04-01 18:59:34*
%MOMM*%
%LPD*%
G01*
G04 APERTURE LIST*
G04 Aperture macros list*
%AMRoundRect*
0 Rectangle with rounded corners*
0 $1 Rounding radius*
0 $2 $3 $4 $5 $6 $7 $8 $9 X,Y pos of 4 corners*
0 Add a 4 corners polygon primitive as box body*
4,1,4,$2,$3,$4,$5,$6,$7,$8,$9,$2,$3,0*
0 Add four circle primitives for the rounded corners*
1,1,$1+$1,$2,$3*
1,1,$1+$1,$4,$5*
1,1,$1+$1,$6,$7*
1,1,$1+$1,$8,$9*
0 Add four rect primitives between the rounded corners*
20,1,$1+$1,$2,$3,$4,$5,0*
20,1,$1+$1,$4,$5,$6,$7,0*
20,1,$1+$1,$6,$7,$8,$9,0*
20,1,$1+$1,$8,$9,$2,$3,0*%
%AMRotRect*
0 Rectangle, with rotation*
0 The origin of the aperture is its center*
0 $1 length*
0 $2 width*
0 $3 Rotation angle, in degrees counterclockwise*
0 Add horizontal line*
21,1,$1,$2,0,0,$3*%
G04 Aperture macros list end*
%ADD10C,0.150000*%
%ADD11C,0.254000*%
%ADD12C,0.120000*%
%ADD13C,0.200000*%
%ADD14C,0.100000*%
%ADD15RoundRect,0.200000X-0.200000X-0.275000X0.200000X-0.275000X0.200000X0.275000X-0.200000X0.275000X0*%
%ADD16RoundRect,0.250000X-1.050000X-0.550000X1.050000X-0.550000X1.050000X0.550000X-1.050000X0.550000X0*%
%ADD17RoundRect,0.200000X0.200000X0.275000X-0.200000X0.275000X-0.200000X-0.275000X0.200000X-0.275000X0*%
%ADD18RoundRect,0.200000X-0.335876X-0.053033X-0.053033X-0.335876X0.335876X0.053033X0.053033X0.335876X0*%
%ADD19R,1.000000X1.000000*%
%ADD20RotRect,1.800000X1.800000X315.000000*%
%ADD21C,1.800000*%
%ADD22R,1.050000X1.500000*%
%ADD23O,1.050000X1.500000*%
%ADD24C,1.365000*%
%ADD25RotRect,1.800000X1.800000X45.000000*%
%ADD26R,1.700000X1.700000*%
%ADD27O,1.700000X1.700000*%
%ADD28R,1.800000X1.800000*%
G04 APERTURE END LIST*
D10*
X189991904Y-63219000D02*
X189896666Y-63171380D01*
X189896666Y-63171380D02*
X189753809Y-63171380D01*
X189753809Y-63171380D02*
X189610952Y-63219000D01*
X189610952Y-63219000D02*
X189515714Y-63314238D01*
X189515714Y-63314238D02*
X189468095Y-63409476D01*
X189468095Y-63409476D02*
X189420476Y-63599952D01*
X189420476Y-63599952D02*
X189420476Y-63742809D01*
X189420476Y-63742809D02*
X189468095Y-63933285D01*
X189468095Y-63933285D02*
X189515714Y-64028523D01*
X189515714Y-64028523D02*
X189610952Y-64123761D01*
X189610952Y-64123761D02*
X189753809Y-64171380D01*
X189753809Y-64171380D02*
X189849047Y-64171380D01*
X189849047Y-64171380D02*
X189991904Y-64123761D01*
X189991904Y-64123761D02*
X190039523Y-64076142D01*
X190039523Y-64076142D02*
X190039523Y-63742809D01*
X190039523Y-63742809D02*
X189849047Y-63742809D01*
X190468095Y-64171380D02*
X190468095Y-63504714D01*
X190468095Y-63695190D02*
X190515714Y-63599952D01*
X190515714Y-63599952D02*
X190563333Y-63552333D01*
X190563333Y-63552333D02*
X190658571Y-63504714D01*
X190658571Y-63504714D02*
X190753809Y-63504714D01*
X191230000Y-64171380D02*
X191134762Y-64123761D01*
X191134762Y-64123761D02*
X191087143Y-64076142D01*
X191087143Y-64076142D02*
X191039524Y-63980904D01*
X191039524Y-63980904D02*
X191039524Y-63695190D01*
X191039524Y-63695190D02*
X191087143Y-63599952D01*
X191087143Y-63599952D02*
X191134762Y-63552333D01*
X191134762Y-63552333D02*
X191230000Y-63504714D01*
X191230000Y-63504714D02*
X191372857Y-63504714D01*
X191372857Y-63504714D02*
X191468095Y-63552333D01*
X191468095Y-63552333D02*
X191515714Y-63599952D01*
X191515714Y-63599952D02*
X191563333Y-63695190D01*
X191563333Y-63695190D02*
X191563333Y-63980904D01*
X191563333Y-63980904D02*
X191515714Y-64076142D01*
X191515714Y-64076142D02*
X191468095Y-64123761D01*
X191468095Y-64123761D02*
X191372857Y-64171380D01*
X191372857Y-64171380D02*
X191230000Y-64171380D01*
X192420476Y-63504714D02*
X192420476Y-64171380D01*
X191991905Y-63504714D02*
X191991905Y-64028523D01*
X191991905Y-64028523D02*
X192039524Y-64123761D01*
X192039524Y-64123761D02*
X192134762Y-64171380D01*
X192134762Y-64171380D02*
X192277619Y-64171380D01*
X192277619Y-64171380D02*
X192372857Y-64123761D01*
X192372857Y-64123761D02*
X192420476Y-64076142D01*
X192896667Y-63504714D02*
X192896667Y-64504714D01*
X192896667Y-63552333D02*
X192991905Y-63504714D01*
X192991905Y-63504714D02*
X193182381Y-63504714D01*
X193182381Y-63504714D02*
X193277619Y-63552333D01*
X193277619Y-63552333D02*
X193325238Y-63599952D01*
X193325238Y-63599952D02*
X193372857Y-63695190D01*
X193372857Y-63695190D02*
X193372857Y-63980904D01*
X193372857Y-63980904D02*
X193325238Y-64076142D01*
X193325238Y-64076142D02*
X193277619Y-64123761D01*
X193277619Y-64123761D02*
X193182381Y-64171380D01*
X193182381Y-64171380D02*
X192991905Y-64171380D01*
X192991905Y-64171380D02*
X192896667Y-64123761D01*
X194877619Y-63171380D02*
X194401429Y-63171380D01*
X194401429Y-63171380D02*
X194353810Y-63647571D01*
X194353810Y-63647571D02*
X194401429Y-63599952D01*
X194401429Y-63599952D02*
X194496667Y-63552333D01*
X194496667Y-63552333D02*
X194734762Y-63552333D01*
X194734762Y-63552333D02*
X194830000Y-63599952D01*
X194830000Y-63599952D02*
X194877619Y-63647571D01*
X194877619Y-63647571D02*
X194925238Y-63742809D01*
X194925238Y-63742809D02*
X194925238Y-63980904D01*
X194925238Y-63980904D02*
X194877619Y-64076142D01*
X194877619Y-64076142D02*
X194830000Y-64123761D01*
X194830000Y-64123761D02*
X194734762Y-64171380D01*
X194734762Y-64171380D02*
X194496667Y-64171380D01*
X194496667Y-64171380D02*
X194401429Y-64123761D01*
X194401429Y-64123761D02*
X194353810Y-64076142D01*
X195306191Y-63266619D02*
X195353810Y-63219000D01*
X195353810Y-63219000D02*
X195449048Y-63171380D01*
X195449048Y-63171380D02*
X195687143Y-63171380D01*
X195687143Y-63171380D02*
X195782381Y-63219000D01*
X195782381Y-63219000D02*
X195830000Y-63266619D01*
X195830000Y-63266619D02*
X195877619Y-63361857D01*
X195877619Y-63361857D02*
X195877619Y-63457095D01*
X195877619Y-63457095D02*
X195830000Y-63599952D01*
X195830000Y-63599952D02*
X195258572Y-64171380D01*
X195258572Y-64171380D02*
X195877619Y-64171380D01*
X189468095Y-62393380D02*
X189468095Y-61393380D01*
X189468095Y-61393380D02*
X189801428Y-62107666D01*
X189801428Y-62107666D02*
X190134761Y-61393380D01*
X190134761Y-61393380D02*
X190134761Y-62393380D01*
X190610952Y-62393380D02*
X190610952Y-61393380D01*
X190610952Y-61393380D02*
X190991904Y-61393380D01*
X190991904Y-61393380D02*
X191087142Y-61441000D01*
X191087142Y-61441000D02*
X191134761Y-61488619D01*
X191134761Y-61488619D02*
X191182380Y-61583857D01*
X191182380Y-61583857D02*
X191182380Y-61726714D01*
X191182380Y-61726714D02*
X191134761Y-61821952D01*
X191134761Y-61821952D02*
X191087142Y-61869571D01*
X191087142Y-61869571D02*
X190991904Y-61917190D01*
X190991904Y-61917190D02*
X190610952Y-61917190D01*
X191610952Y-62393380D02*
X191610952Y-61393380D01*
X191610952Y-61393380D02*
X192182380Y-62393380D01*
X192182380Y-62393380D02*
X192182380Y-61393380D01*
X192658571Y-62393380D02*
X192658571Y-61393380D01*
X192658571Y-61393380D02*
X192991904Y-62107666D01*
X192991904Y-62107666D02*
X193325237Y-61393380D01*
X193325237Y-61393380D02*
X193325237Y-62393380D01*
X193801428Y-62393380D02*
X193801428Y-61393380D01*
X193801428Y-61393380D02*
X194182380Y-61393380D01*
X194182380Y-61393380D02*
X194277618Y-61441000D01*
X194277618Y-61441000D02*
X194325237Y-61488619D01*
X194325237Y-61488619D02*
X194372856Y-61583857D01*
X194372856Y-61583857D02*
X194372856Y-61726714D01*
X194372856Y-61726714D02*
X194325237Y-61821952D01*
X194325237Y-61821952D02*
X194277618Y-61869571D01*
X194277618Y-61869571D02*
X194182380Y-61917190D01*
X194182380Y-61917190D02*
X193801428Y-61917190D01*
X194801428Y-61393380D02*
X194801428Y-62202904D01*
X194801428Y-62202904D02*
X194849047Y-62298142D01*
X194849047Y-62298142D02*
X194896666Y-62345761D01*
X194896666Y-62345761D02*
X194991904Y-62393380D01*
X194991904Y-62393380D02*
X195182380Y-62393380D01*
X195182380Y-62393380D02*
X195277618Y-62345761D01*
X195277618Y-62345761D02*
X195325237Y-62298142D01*
X195325237Y-62298142D02*
X195372856Y-62202904D01*
X195372856Y-62202904D02*
X195372856Y-61393380D01*
X196039523Y-61393380D02*
X196134761Y-61393380D01*
X196134761Y-61393380D02*
X196229999Y-61441000D01*
X196229999Y-61441000D02*
X196277618Y-61488619D01*
X196277618Y-61488619D02*
X196325237Y-61583857D01*
X196325237Y-61583857D02*
X196372856Y-61774333D01*
X196372856Y-61774333D02*
X196372856Y-62012428D01*
X196372856Y-62012428D02*
X196325237Y-62202904D01*
X196325237Y-62202904D02*
X196277618Y-62298142D01*
X196277618Y-62298142D02*
X196229999Y-62345761D01*
X196229999Y-62345761D02*
X196134761Y-62393380D01*
X196134761Y-62393380D02*
X196039523Y-62393380D01*
X196039523Y-62393380D02*
X195944285Y-62345761D01*
X195944285Y-62345761D02*
X195896666Y-62298142D01*
X195896666Y-62298142D02*
X195849047Y-62202904D01*
X195849047Y-62202904D02*
X195801428Y-62012428D01*
X195801428Y-62012428D02*
X195801428Y-61774333D01*
X195801428Y-61774333D02*
X195849047Y-61583857D01*
X195849047Y-61583857D02*
X195896666Y-61488619D01*
X195896666Y-61488619D02*
X195944285Y-61441000D01*
X195944285Y-61441000D02*
X196039523Y-61393380D01*
X196991904Y-61393380D02*
X197087142Y-61393380D01*
X197087142Y-61393380D02*
X197182380Y-61441000D01*
X197182380Y-61441000D02*
X197229999Y-61488619D01*
X197229999Y-61488619D02*
X197277618Y-61583857D01*
X197277618Y-61583857D02*
X197325237Y-61774333D01*
X197325237Y-61774333D02*
X197325237Y-62012428D01*
X197325237Y-62012428D02*
X197277618Y-62202904D01*
X197277618Y-62202904D02*
X197229999Y-62298142D01*
X197229999Y-62298142D02*
X197182380Y-62345761D01*
X197182380Y-62345761D02*
X197087142Y-62393380D01*
X197087142Y-62393380D02*
X196991904Y-62393380D01*
X196991904Y-62393380D02*
X196896666Y-62345761D01*
X196896666Y-62345761D02*
X196849047Y-62298142D01*
X196849047Y-62298142D02*
X196801428Y-62202904D01*
X196801428Y-62202904D02*
X196753809Y-62012428D01*
X196753809Y-62012428D02*
X196753809Y-61774333D01*
X196753809Y-61774333D02*
X196801428Y-61583857D01*
X196801428Y-61583857D02*
X196849047Y-61488619D01*
X196849047Y-61488619D02*
X196896666Y-61441000D01*
X196896666Y-61441000D02*
X196991904Y-61393380D01*
X197706190Y-61488619D02*
X197753809Y-61441000D01*
X197753809Y-61441000D02*
X197849047Y-61393380D01*
X197849047Y-61393380D02*
X198087142Y-61393380D01*
X198087142Y-61393380D02*
X198182380Y-61441000D01*
X198182380Y-61441000D02*
X198229999Y-61488619D01*
X198229999Y-61488619D02*
X198277618Y-61583857D01*
X198277618Y-61583857D02*
X198277618Y-61679095D01*
X198277618Y-61679095D02*
X198229999Y-61821952D01*
X198229999Y-61821952D02*
X197658571Y-62393380D01*
X197658571Y-62393380D02*
X198277618Y-62393380D01*
%TO.C,R4*%
X223607333Y-73105380D02*
X223274000Y-72629190D01*
X223035905Y-73105380D02*
X223035905Y-72105380D01*
X223035905Y-72105380D02*
X223416857Y-72105380D01*
X223416857Y-72105380D02*
X223512095Y-72153000D01*
X223512095Y-72153000D02*
X223559714Y-72200619D01*
X223559714Y-72200619D02*
X223607333Y-72295857D01*
X223607333Y-72295857D02*
X223607333Y-72438714D01*
X223607333Y-72438714D02*
X223559714Y-72533952D01*
X223559714Y-72533952D02*
X223512095Y-72581571D01*
X223512095Y-72581571D02*
X223416857Y-72629190D01*
X223416857Y-72629190D02*
X223035905Y-72629190D01*
X224464476Y-72438714D02*
X224464476Y-73105380D01*
X224226381Y-72057761D02*
X223988286Y-72772047D01*
X223988286Y-72772047D02*
X224607333Y-72772047D01*
%TO.C,C5*%
X174712333Y-81146142D02*
X174664714Y-81193761D01*
X174664714Y-81193761D02*
X174521857Y-81241380D01*
X174521857Y-81241380D02*
X174426619Y-81241380D01*
X174426619Y-81241380D02*
X174283762Y-81193761D01*
X174283762Y-81193761D02*
X174188524Y-81098523D01*
X174188524Y-81098523D02*
X174140905Y-81003285D01*
X174140905Y-81003285D02*
X174093286Y-80812809D01*
X174093286Y-80812809D02*
X174093286Y-80669952D01*
X174093286Y-80669952D02*
X174140905Y-80479476D01*
X174140905Y-80479476D02*
X174188524Y-80384238D01*
X174188524Y-80384238D02*
X174283762Y-80289000D01*
X174283762Y-80289000D02*
X174426619Y-80241380D01*
X174426619Y-80241380D02*
X174521857Y-80241380D01*
X174521857Y-80241380D02*
X174664714Y-80289000D01*
X174664714Y-80289000D02*
X174712333Y-80336619D01*
X175617095Y-80241380D02*
X175140905Y-80241380D01*
X175140905Y-80241380D02*
X175093286Y-80717571D01*
X175093286Y-80717571D02*
X175140905Y-80669952D01*
X175140905Y-80669952D02*
X175236143Y-80622333D01*
X175236143Y-80622333D02*
X175474238Y-80622333D01*
X175474238Y-80622333D02*
X175569476Y-80669952D01*
X175569476Y-80669952D02*
X175617095Y-80717571D01*
X175617095Y-80717571D02*
X175664714Y-80812809D01*
X175664714Y-80812809D02*
X175664714Y-81050904D01*
X175664714Y-81050904D02*
X175617095Y-81146142D01*
X175617095Y-81146142D02*
X175569476Y-81193761D01*
X175569476Y-81193761D02*
X175474238Y-81241380D01*
X175474238Y-81241380D02*
X175236143Y-81241380D01*
X175236143Y-81241380D02*
X175140905Y-81193761D01*
X175140905Y-81193761D02*
X175093286Y-81146142D01*
%TO.C,R12*%
X187698142Y-72089380D02*
X187364809Y-71613190D01*
X187126714Y-72089380D02*
X187126714Y-71089380D01*
X187126714Y-71089380D02*
X187507666Y-71089380D01*
X187507666Y-71089380D02*
X187602904Y-71137000D01*
X187602904Y-71137000D02*
X187650523Y-71184619D01*
X187650523Y-71184619D02*
X187698142Y-71279857D01*
X187698142Y-71279857D02*
X187698142Y-71422714D01*
X187698142Y-71422714D02*
X187650523Y-71517952D01*
X187650523Y-71517952D02*
X187602904Y-71565571D01*
X187602904Y-71565571D02*
X187507666Y-71613190D01*
X187507666Y-71613190D02*
X187126714Y-71613190D01*
X188650523Y-72089380D02*
X188079095Y-72089380D01*
X188364809Y-72089380D02*
X188364809Y-71089380D01*
X188364809Y-71089380D02*
X188269571Y-71232238D01*
X188269571Y-71232238D02*
X188174333Y-71327476D01*
X188174333Y-71327476D02*
X188079095Y-71375095D01*
X189031476Y-71184619D02*
X189079095Y-71137000D01*
X189079095Y-71137000D02*
X189174333Y-71089380D01*
X189174333Y-71089380D02*
X189412428Y-71089380D01*
X189412428Y-71089380D02*
X189507666Y-71137000D01*
X189507666Y-71137000D02*
X189555285Y-71184619D01*
X189555285Y-71184619D02*
X189602904Y-71279857D01*
X189602904Y-71279857D02*
X189602904Y-71375095D01*
X189602904Y-71375095D02*
X189555285Y-71517952D01*
X189555285Y-71517952D02*
X188983857Y-72089380D01*
X188983857Y-72089380D02*
X189602904Y-72089380D01*
%TO.C,R11*%
X195318142Y-71139380D02*
X194984809Y-70663190D01*
X194746714Y-71139380D02*
X194746714Y-70139380D01*
X194746714Y-70139380D02*
X195127666Y-70139380D01*
X195127666Y-70139380D02*
X195222904Y-70187000D01*
X195222904Y-70187000D02*
X195270523Y-70234619D01*
X195270523Y-70234619D02*
X195318142Y-70329857D01*
X195318142Y-70329857D02*
X195318142Y-70472714D01*
X195318142Y-70472714D02*
X195270523Y-70567952D01*
X195270523Y-70567952D02*
X195222904Y-70615571D01*
X195222904Y-70615571D02*
X195127666Y-70663190D01*
X195127666Y-70663190D02*
X194746714Y-70663190D01*
X196270523Y-71139380D02*
X195699095Y-71139380D01*
X195984809Y-71139380D02*
X195984809Y-70139380D01*
X195984809Y-70139380D02*
X195889571Y-70282238D01*
X195889571Y-70282238D02*
X195794333Y-70377476D01*
X195794333Y-70377476D02*
X195699095Y-70425095D01*
X197222904Y-71139380D02*
X196651476Y-71139380D01*
X196937190Y-71139380D02*
X196937190Y-70139380D01*
X196937190Y-70139380D02*
X196841952Y-70282238D01*
X196841952Y-70282238D02*
X196746714Y-70377476D01*
X196746714Y-70377476D02*
X196651476Y-70425095D01*
%TO.C,R9*%
X186396333Y-77042380D02*
X186063000Y-76566190D01*
X185824905Y-77042380D02*
X185824905Y-76042380D01*
X185824905Y-76042380D02*
X186205857Y-76042380D01*
X186205857Y-76042380D02*
X186301095Y-76090000D01*
X186301095Y-76090000D02*
X186348714Y-76137619D01*
X186348714Y-76137619D02*
X186396333Y-76232857D01*
X186396333Y-76232857D02*
X186396333Y-76375714D01*
X186396333Y-76375714D02*
X186348714Y-76470952D01*
X186348714Y-76470952D02*
X186301095Y-76518571D01*
X186301095Y-76518571D02*
X186205857Y-76566190D01*
X186205857Y-76566190D02*
X185824905Y-76566190D01*
X186872524Y-77042380D02*
X187063000Y-77042380D01*
X187063000Y-77042380D02*
X187158238Y-76994761D01*
X187158238Y-76994761D02*
X187205857Y-76947142D01*
X187205857Y-76947142D02*
X187301095Y-76804285D01*
X187301095Y-76804285D02*
X187348714Y-76613809D01*
X187348714Y-76613809D02*
X187348714Y-76232857D01*
X187348714Y-76232857D02*
X187301095Y-76137619D01*
X187301095Y-76137619D02*
X187253476Y-76090000D01*
X187253476Y-76090000D02*
X187158238Y-76042380D01*
X187158238Y-76042380D02*
X186967762Y-76042380D01*
X186967762Y-76042380D02*
X186872524Y-76090000D01*
X186872524Y-76090000D02*
X186824905Y-76137619D01*
X186824905Y-76137619D02*
X186777286Y-76232857D01*
X186777286Y-76232857D02*
X186777286Y-76470952D01*
X186777286Y-76470952D02*
X186824905Y-76566190D01*
X186824905Y-76566190D02*
X186872524Y-76613809D01*
X186872524Y-76613809D02*
X186967762Y-76661428D01*
X186967762Y-76661428D02*
X187158238Y-76661428D01*
X187158238Y-76661428D02*
X187253476Y-76613809D01*
X187253476Y-76613809D02*
X187301095Y-76566190D01*
X187301095Y-76566190D02*
X187348714Y-76470952D01*
%TO.C,R8*%
X219162333Y-63199380D02*
X218829000Y-62723190D01*
X218590905Y-63199380D02*
X218590905Y-62199380D01*
X218590905Y-62199380D02*
X218971857Y-62199380D01*
X218971857Y-62199380D02*
X219067095Y-62247000D01*
X219067095Y-62247000D02*
X219114714Y-62294619D01*
X219114714Y-62294619D02*
X219162333Y-62389857D01*
X219162333Y-62389857D02*
X219162333Y-62532714D01*
X219162333Y-62532714D02*
X219114714Y-62627952D01*
X219114714Y-62627952D02*
X219067095Y-62675571D01*
X219067095Y-62675571D02*
X218971857Y-62723190D01*
X218971857Y-62723190D02*
X218590905Y-62723190D01*
X219733762Y-62627952D02*
X219638524Y-62580333D01*
X219638524Y-62580333D02*
X219590905Y-62532714D01*
X219590905Y-62532714D02*
X219543286Y-62437476D01*
X219543286Y-62437476D02*
X219543286Y-62389857D01*
X219543286Y-62389857D02*
X219590905Y-62294619D01*
X219590905Y-62294619D02*
X219638524Y-62247000D01*
X219638524Y-62247000D02*
X219733762Y-62199380D01*
X219733762Y-62199380D02*
X219924238Y-62199380D01*
X219924238Y-62199380D02*
X220019476Y-62247000D01*
X220019476Y-62247000D02*
X220067095Y-62294619D01*
X220067095Y-62294619D02*
X220114714Y-62389857D01*
X220114714Y-62389857D02*
X220114714Y-62437476D01*
X220114714Y-62437476D02*
X220067095Y-62532714D01*
X220067095Y-62532714D02*
X220019476Y-62580333D01*
X220019476Y-62580333D02*
X219924238Y-62627952D01*
X219924238Y-62627952D02*
X219733762Y-62627952D01*
X219733762Y-62627952D02*
X219638524Y-62675571D01*
X219638524Y-62675571D02*
X219590905Y-62723190D01*
X219590905Y-62723190D02*
X219543286Y-62818428D01*
X219543286Y-62818428D02*
X219543286Y-63008904D01*
X219543286Y-63008904D02*
X219590905Y-63104142D01*
X219590905Y-63104142D02*
X219638524Y-63151761D01*
X219638524Y-63151761D02*
X219733762Y-63199380D01*
X219733762Y-63199380D02*
X219924238Y-63199380D01*
X219924238Y-63199380D02*
X220019476Y-63151761D01*
X220019476Y-63151761D02*
X220067095Y-63104142D01*
X220067095Y-63104142D02*
X220114714Y-63008904D01*
X220114714Y-63008904D02*
X220114714Y-62818428D01*
X220114714Y-62818428D02*
X220067095Y-62723190D01*
X220067095Y-62723190D02*
X220019476Y-62675571D01*
X220019476Y-62675571D02*
X219924238Y-62627952D01*
%TO.C,R7*%
X219162333Y-73105380D02*
X218829000Y-72629190D01*
X218590905Y-73105380D02*
X218590905Y-72105380D01*
X218590905Y-72105380D02*
X218971857Y-72105380D01*
X218971857Y-72105380D02*
X219067095Y-72153000D01*
X219067095Y-72153000D02*
X219114714Y-72200619D01*
X219114714Y-72200619D02*
X219162333Y-72295857D01*
X219162333Y-72295857D02*
X219162333Y-72438714D01*
X219162333Y-72438714D02*
X219114714Y-72533952D01*
X219114714Y-72533952D02*
X219067095Y-72581571D01*
X219067095Y-72581571D02*
X218971857Y-72629190D01*
X218971857Y-72629190D02*
X218590905Y-72629190D01*
X219495667Y-72105380D02*
X220162333Y-72105380D01*
X220162333Y-72105380D02*
X219733762Y-73105380D01*
%TO.C,R6*%
X195794333Y-80156380D02*
X195461000Y-79680190D01*
X195222905Y-80156380D02*
X195222905Y-79156380D01*
X195222905Y-79156380D02*
X195603857Y-79156380D01*
X195603857Y-79156380D02*
X195699095Y-79204000D01*
X195699095Y-79204000D02*
X195746714Y-79251619D01*
X195746714Y-79251619D02*
X195794333Y-79346857D01*
X195794333Y-79346857D02*
X195794333Y-79489714D01*
X195794333Y-79489714D02*
X195746714Y-79584952D01*
X195746714Y-79584952D02*
X195699095Y-79632571D01*
X195699095Y-79632571D02*
X195603857Y-79680190D01*
X195603857Y-79680190D02*
X195222905Y-79680190D01*
X196651476Y-79156380D02*
X196461000Y-79156380D01*
X196461000Y-79156380D02*
X196365762Y-79204000D01*
X196365762Y-79204000D02*
X196318143Y-79251619D01*
X196318143Y-79251619D02*
X196222905Y-79394476D01*
X196222905Y-79394476D02*
X196175286Y-79584952D01*
X196175286Y-79584952D02*
X196175286Y-79965904D01*
X196175286Y-79965904D02*
X196222905Y-80061142D01*
X196222905Y-80061142D02*
X196270524Y-80108761D01*
X196270524Y-80108761D02*
X196365762Y-80156380D01*
X196365762Y-80156380D02*
X196556238Y-80156380D01*
X196556238Y-80156380D02*
X196651476Y-80108761D01*
X196651476Y-80108761D02*
X196699095Y-80061142D01*
X196699095Y-80061142D02*
X196746714Y-79965904D01*
X196746714Y-79965904D02*
X196746714Y-79727809D01*
X196746714Y-79727809D02*
X196699095Y-79632571D01*
X196699095Y-79632571D02*
X196651476Y-79584952D01*
X196651476Y-79584952D02*
X196556238Y-79537333D01*
X196556238Y-79537333D02*
X196365762Y-79537333D01*
X196365762Y-79537333D02*
X196270524Y-79584952D01*
X196270524Y-79584952D02*
X196222905Y-79632571D01*
X196222905Y-79632571D02*
X196175286Y-79727809D01*
%TO.C,R5*%
X195794333Y-75711380D02*
X195461000Y-75235190D01*
X195222905Y-75711380D02*
X195222905Y-74711380D01*
X195222905Y-74711380D02*
X195603857Y-74711380D01*
X195603857Y-74711380D02*
X195699095Y-74759000D01*
X195699095Y-74759000D02*
X195746714Y-74806619D01*
X195746714Y-74806619D02*
X195794333Y-74901857D01*
X195794333Y-74901857D02*
X195794333Y-75044714D01*
X195794333Y-75044714D02*
X195746714Y-75139952D01*
X195746714Y-75139952D02*
X195699095Y-75187571D01*
X195699095Y-75187571D02*
X195603857Y-75235190D01*
X195603857Y-75235190D02*
X195222905Y-75235190D01*
X196699095Y-74711380D02*
X196222905Y-74711380D01*
X196222905Y-74711380D02*
X196175286Y-75187571D01*
X196175286Y-75187571D02*
X196222905Y-75139952D01*
X196222905Y-75139952D02*
X196318143Y-75092333D01*
X196318143Y-75092333D02*
X196556238Y-75092333D01*
X196556238Y-75092333D02*
X196651476Y-75139952D01*
X196651476Y-75139952D02*
X196699095Y-75187571D01*
X196699095Y-75187571D02*
X196746714Y-75282809D01*
X196746714Y-75282809D02*
X196746714Y-75520904D01*
X196746714Y-75520904D02*
X196699095Y-75616142D01*
X196699095Y-75616142D02*
X196651476Y-75663761D01*
X196651476Y-75663761D02*
X196556238Y-75711380D01*
X196556238Y-75711380D02*
X196318143Y-75711380D01*
X196318143Y-75711380D02*
X196222905Y-75663761D01*
X196222905Y-75663761D02*
X196175286Y-75616142D01*
%TO.C,R3*%
X219162333Y-77296380D02*
X218829000Y-76820190D01*
X218590905Y-77296380D02*
X218590905Y-76296380D01*
X218590905Y-76296380D02*
X218971857Y-76296380D01*
X218971857Y-76296380D02*
X219067095Y-76344000D01*
X219067095Y-76344000D02*
X219114714Y-76391619D01*
X219114714Y-76391619D02*
X219162333Y-76486857D01*
X219162333Y-76486857D02*
X219162333Y-76629714D01*
X219162333Y-76629714D02*
X219114714Y-76724952D01*
X219114714Y-76724952D02*
X219067095Y-76772571D01*
X219067095Y-76772571D02*
X218971857Y-76820190D01*
X218971857Y-76820190D02*
X218590905Y-76820190D01*
X219495667Y-76296380D02*
X220114714Y-76296380D01*
X220114714Y-76296380D02*
X219781381Y-76677333D01*
X219781381Y-76677333D02*
X219924238Y-76677333D01*
X219924238Y-76677333D02*
X220019476Y-76724952D01*
X220019476Y-76724952D02*
X220067095Y-76772571D01*
X220067095Y-76772571D02*
X220114714Y-76867809D01*
X220114714Y-76867809D02*
X220114714Y-77105904D01*
X220114714Y-77105904D02*
X220067095Y-77201142D01*
X220067095Y-77201142D02*
X220019476Y-77248761D01*
X220019476Y-77248761D02*
X219924238Y-77296380D01*
X219924238Y-77296380D02*
X219638524Y-77296380D01*
X219638524Y-77296380D02*
X219543286Y-77248761D01*
X219543286Y-77248761D02*
X219495667Y-77201142D01*
%TO.C,R2*%
X223607333Y-77550380D02*
X223274000Y-77074190D01*
X223035905Y-77550380D02*
X223035905Y-76550380D01*
X223035905Y-76550380D02*
X223416857Y-76550380D01*
X223416857Y-76550380D02*
X223512095Y-76598000D01*
X223512095Y-76598000D02*
X223559714Y-76645619D01*
X223559714Y-76645619D02*
X223607333Y-76740857D01*
X223607333Y-76740857D02*
X223607333Y-76883714D01*
X223607333Y-76883714D02*
X223559714Y-76978952D01*
X223559714Y-76978952D02*
X223512095Y-77026571D01*
X223512095Y-77026571D02*
X223416857Y-77074190D01*
X223416857Y-77074190D02*
X223035905Y-77074190D01*
X223988286Y-76645619D02*
X224035905Y-76598000D01*
X224035905Y-76598000D02*
X224131143Y-76550380D01*
X224131143Y-76550380D02*
X224369238Y-76550380D01*
X224369238Y-76550380D02*
X224464476Y-76598000D01*
X224464476Y-76598000D02*
X224512095Y-76645619D01*
X224512095Y-76645619D02*
X224559714Y-76740857D01*
X224559714Y-76740857D02*
X224559714Y-76836095D01*
X224559714Y-76836095D02*
X224512095Y-76978952D01*
X224512095Y-76978952D02*
X223940667Y-77550380D01*
X223940667Y-77550380D02*
X224559714Y-77550380D01*
%TO.C,R1*%
X227836534Y-69996763D02*
X227937549Y-69424343D01*
X227432473Y-69592702D02*
X228139580Y-68885595D01*
X228139580Y-68885595D02*
X228408954Y-69154969D01*
X228408954Y-69154969D02*
X228442626Y-69255985D01*
X228442626Y-69255985D02*
X228442626Y-69323328D01*
X228442626Y-69323328D02*
X228408954Y-69424343D01*
X228408954Y-69424343D02*
X228307939Y-69525359D01*
X228307939Y-69525359D02*
X228206923Y-69559030D01*
X228206923Y-69559030D02*
X228139580Y-69559030D01*
X228139580Y-69559030D02*
X228038565Y-69525359D01*
X228038565Y-69525359D02*
X227769191Y-69255985D01*
X228509969Y-70670198D02*
X228105908Y-70266137D01*
X228307939Y-70468168D02*
X229015045Y-69761061D01*
X229015045Y-69761061D02*
X228846687Y-69794733D01*
X228846687Y-69794733D02*
X228712000Y-69794733D01*
X228712000Y-69794733D02*
X228610984Y-69761061D01*
%TO.C,C6*%
X182364333Y-81146142D02*
X182316714Y-81193761D01*
X182316714Y-81193761D02*
X182173857Y-81241380D01*
X182173857Y-81241380D02*
X182078619Y-81241380D01*
X182078619Y-81241380D02*
X181935762Y-81193761D01*
X181935762Y-81193761D02*
X181840524Y-81098523D01*
X181840524Y-81098523D02*
X181792905Y-81003285D01*
X181792905Y-81003285D02*
X181745286Y-80812809D01*
X181745286Y-80812809D02*
X181745286Y-80669952D01*
X181745286Y-80669952D02*
X181792905Y-80479476D01*
X181792905Y-80479476D02*
X181840524Y-80384238D01*
X181840524Y-80384238D02*
X181935762Y-80289000D01*
X181935762Y-80289000D02*
X182078619Y-80241380D01*
X182078619Y-80241380D02*
X182173857Y-80241380D01*
X182173857Y-80241380D02*
X182316714Y-80289000D01*
X182316714Y-80289000D02*
X182364333Y-80336619D01*
X183221476Y-80241380D02*
X183031000Y-80241380D01*
X183031000Y-80241380D02*
X182935762Y-80289000D01*
X182935762Y-80289000D02*
X182888143Y-80336619D01*
X182888143Y-80336619D02*
X182792905Y-80479476D01*
X182792905Y-80479476D02*
X182745286Y-80669952D01*
X182745286Y-80669952D02*
X182745286Y-81050904D01*
X182745286Y-81050904D02*
X182792905Y-81146142D01*
X182792905Y-81146142D02*
X182840524Y-81193761D01*
X182840524Y-81193761D02*
X182935762Y-81241380D01*
X182935762Y-81241380D02*
X183126238Y-81241380D01*
X183126238Y-81241380D02*
X183221476Y-81193761D01*
X183221476Y-81193761D02*
X183269095Y-81146142D01*
X183269095Y-81146142D02*
X183316714Y-81050904D01*
X183316714Y-81050904D02*
X183316714Y-80812809D01*
X183316714Y-80812809D02*
X183269095Y-80717571D01*
X183269095Y-80717571D02*
X183221476Y-80669952D01*
X183221476Y-80669952D02*
X183126238Y-80622333D01*
X183126238Y-80622333D02*
X182935762Y-80622333D01*
X182935762Y-80622333D02*
X182840524Y-80669952D01*
X182840524Y-80669952D02*
X182792905Y-80717571D01*
X182792905Y-80717571D02*
X182745286Y-80812809D01*
%TO.C,C4*%
X212717333Y-67176142D02*
X212669714Y-67223761D01*
X212669714Y-67223761D02*
X212526857Y-67271380D01*
X212526857Y-67271380D02*
X212431619Y-67271380D01*
X212431619Y-67271380D02*
X212288762Y-67223761D01*
X212288762Y-67223761D02*
X212193524Y-67128523D01*
X212193524Y-67128523D02*
X212145905Y-67033285D01*
X212145905Y-67033285D02*
X212098286Y-66842809D01*
X212098286Y-66842809D02*
X212098286Y-66699952D01*
X212098286Y-66699952D02*
X212145905Y-66509476D01*
X212145905Y-66509476D02*
X212193524Y-66414238D01*
X212193524Y-66414238D02*
X212288762Y-66319000D01*
X212288762Y-66319000D02*
X212431619Y-66271380D01*
X212431619Y-66271380D02*
X212526857Y-66271380D01*
X212526857Y-66271380D02*
X212669714Y-66319000D01*
X212669714Y-66319000D02*
X212717333Y-66366619D01*
X213574476Y-66604714D02*
X213574476Y-67271380D01*
X213336381Y-66223761D02*
X213098286Y-66938047D01*
X213098286Y-66938047D02*
X213717333Y-66938047D01*
%TO.C,C3*%
X202692333Y-67303142D02*
X202644714Y-67350761D01*
X202644714Y-67350761D02*
X202501857Y-67398380D01*
X202501857Y-67398380D02*
X202406619Y-67398380D01*
X202406619Y-67398380D02*
X202263762Y-67350761D01*
X202263762Y-67350761D02*
X202168524Y-67255523D01*
X202168524Y-67255523D02*
X202120905Y-67160285D01*
X202120905Y-67160285D02*
X202073286Y-66969809D01*
X202073286Y-66969809D02*
X202073286Y-66826952D01*
X202073286Y-66826952D02*
X202120905Y-66636476D01*
X202120905Y-66636476D02*
X202168524Y-66541238D01*
X202168524Y-66541238D02*
X202263762Y-66446000D01*
X202263762Y-66446000D02*
X202406619Y-66398380D01*
X202406619Y-66398380D02*
X202501857Y-66398380D01*
X202501857Y-66398380D02*
X202644714Y-66446000D01*
X202644714Y-66446000D02*
X202692333Y-66493619D01*
X203025667Y-66398380D02*
X203644714Y-66398380D01*
X203644714Y-66398380D02*
X203311381Y-66779333D01*
X203311381Y-66779333D02*
X203454238Y-66779333D01*
X203454238Y-66779333D02*
X203549476Y-66826952D01*
X203549476Y-66826952D02*
X203597095Y-66874571D01*
X203597095Y-66874571D02*
X203644714Y-66969809D01*
X203644714Y-66969809D02*
X203644714Y-67207904D01*
X203644714Y-67207904D02*
X203597095Y-67303142D01*
X203597095Y-67303142D02*
X203549476Y-67350761D01*
X203549476Y-67350761D02*
X203454238Y-67398380D01*
X203454238Y-67398380D02*
X203168524Y-67398380D01*
X203168524Y-67398380D02*
X203073286Y-67350761D01*
X203073286Y-67350761D02*
X203025667Y-67303142D01*
%TO.C,C2*%
X231005333Y-81146142D02*
X230957714Y-81193761D01*
X230957714Y-81193761D02*
X230814857Y-81241380D01*
X230814857Y-81241380D02*
X230719619Y-81241380D01*
X230719619Y-81241380D02*
X230576762Y-81193761D01*
X230576762Y-81193761D02*
X230481524Y-81098523D01*
X230481524Y-81098523D02*
X230433905Y-81003285D01*
X230433905Y-81003285D02*
X230386286Y-80812809D01*
X230386286Y-80812809D02*
X230386286Y-80669952D01*
X230386286Y-80669952D02*
X230433905Y-80479476D01*
X230433905Y-80479476D02*
X230481524Y-80384238D01*
X230481524Y-80384238D02*
X230576762Y-80289000D01*
X230576762Y-80289000D02*
X230719619Y-80241380D01*
X230719619Y-80241380D02*
X230814857Y-80241380D01*
X230814857Y-80241380D02*
X230957714Y-80289000D01*
X230957714Y-80289000D02*
X231005333Y-80336619D01*
X231386286Y-80336619D02*
X231433905Y-80289000D01*
X231433905Y-80289000D02*
X231529143Y-80241380D01*
X231529143Y-80241380D02*
X231767238Y-80241380D01*
X231767238Y-80241380D02*
X231862476Y-80289000D01*
X231862476Y-80289000D02*
X231910095Y-80336619D01*
X231910095Y-80336619D02*
X231957714Y-80431857D01*
X231957714Y-80431857D02*
X231957714Y-80527095D01*
X231957714Y-80527095D02*
X231910095Y-80669952D01*
X231910095Y-80669952D02*
X231338667Y-81241380D01*
X231338667Y-81241380D02*
X231957714Y-81241380D01*
%TO.C,C1*%
X238847333Y-81146142D02*
X238799714Y-81193761D01*
X238799714Y-81193761D02*
X238656857Y-81241380D01*
X238656857Y-81241380D02*
X238561619Y-81241380D01*
X238561619Y-81241380D02*
X238418762Y-81193761D01*
X238418762Y-81193761D02*
X238323524Y-81098523D01*
X238323524Y-81098523D02*
X238275905Y-81003285D01*
X238275905Y-81003285D02*
X238228286Y-80812809D01*
X238228286Y-80812809D02*
X238228286Y-80669952D01*
X238228286Y-80669952D02*
X238275905Y-80479476D01*
X238275905Y-80479476D02*
X238323524Y-80384238D01*
X238323524Y-80384238D02*
X238418762Y-80289000D01*
X238418762Y-80289000D02*
X238561619Y-80241380D01*
X238561619Y-80241380D02*
X238656857Y-80241380D01*
X238656857Y-80241380D02*
X238799714Y-80289000D01*
X238799714Y-80289000D02*
X238847333Y-80336619D01*
X239799714Y-81241380D02*
X239228286Y-81241380D01*
X239514000Y-81241380D02*
X239514000Y-80241380D01*
X239514000Y-80241380D02*
X239418762Y-80384238D01*
X239418762Y-80384238D02*
X239323524Y-80479476D01*
X239323524Y-80479476D02*
X239228286Y-80527095D01*
%TO.C,TP1*%
X228989095Y-75135380D02*
X229560523Y-75135380D01*
X229274809Y-76135380D02*
X229274809Y-75135380D01*
X229893857Y-76135380D02*
X229893857Y-75135380D01*
X229893857Y-75135380D02*
X230274809Y-75135380D01*
X230274809Y-75135380D02*
X230370047Y-75183000D01*
X230370047Y-75183000D02*
X230417666Y-75230619D01*
X230417666Y-75230619D02*
X230465285Y-75325857D01*
X230465285Y-75325857D02*
X230465285Y-75468714D01*
X230465285Y-75468714D02*
X230417666Y-75563952D01*
X230417666Y-75563952D02*
X230370047Y-75611571D01*
X230370047Y-75611571D02*
X230274809Y-75659190D01*
X230274809Y-75659190D02*
X229893857Y-75659190D01*
X231417666Y-76135380D02*
X230846238Y-76135380D01*
X231131952Y-76135380D02*
X231131952Y-75135380D01*
X231131952Y-75135380D02*
X231036714Y-75278238D01*
X231036714Y-75278238D02*
X230941476Y-75373476D01*
X230941476Y-75373476D02*
X230846238Y-75421095D01*
%TO.C,D1*%
X238658790Y-69930457D02*
X239365897Y-69223350D01*
X239365897Y-69223350D02*
X239534256Y-69391709D01*
X239534256Y-69391709D02*
X239601599Y-69526396D01*
X239601599Y-69526396D02*
X239601599Y-69661083D01*
X239601599Y-69661083D02*
X239567927Y-69762098D01*
X239567927Y-69762098D02*
X239466912Y-69930457D01*
X239466912Y-69930457D02*
X239365897Y-70031473D01*
X239365897Y-70031473D02*
X239197538Y-70132488D01*
X239197538Y-70132488D02*
X239096523Y-70166160D01*
X239096523Y-70166160D02*
X238961836Y-70166160D01*
X238961836Y-70166160D02*
X238827149Y-70098816D01*
X238827149Y-70098816D02*
X238658790Y-69930457D01*
X239736286Y-71007953D02*
X239332225Y-70603892D01*
X239534256Y-70805923D02*
X240241362Y-70098816D01*
X240241362Y-70098816D02*
X240073004Y-70132488D01*
X240073004Y-70132488D02*
X239938317Y-70132488D01*
X239938317Y-70132488D02*
X239837301Y-70098816D01*
%TO.C,TP3*%
X181574515Y-78738641D02*
X182145943Y-78738641D01*
X181860229Y-79738641D02*
X181860229Y-78738641D01*
X182479277Y-79738641D02*
X182479277Y-78738641D01*
X182479277Y-78738641D02*
X182860229Y-78738641D01*
X182860229Y-78738641D02*
X182955467Y-78786261D01*
X182955467Y-78786261D02*
X183003086Y-78833880D01*
X183003086Y-78833880D02*
X183050705Y-78929118D01*
X183050705Y-78929118D02*
X183050705Y-79071975D01*
X183050705Y-79071975D02*
X183003086Y-79167213D01*
X183003086Y-79167213D02*
X182955467Y-79214832D01*
X182955467Y-79214832D02*
X182860229Y-79262451D01*
X182860229Y-79262451D02*
X182479277Y-79262451D01*
X183384039Y-78738641D02*
X184003086Y-78738641D01*
X184003086Y-78738641D02*
X183669753Y-79119594D01*
X183669753Y-79119594D02*
X183812610Y-79119594D01*
X183812610Y-79119594D02*
X183907848Y-79167213D01*
X183907848Y-79167213D02*
X183955467Y-79214832D01*
X183955467Y-79214832D02*
X184003086Y-79310070D01*
X184003086Y-79310070D02*
X184003086Y-79548165D01*
X184003086Y-79548165D02*
X183955467Y-79643403D01*
X183955467Y-79643403D02*
X183907848Y-79691022D01*
X183907848Y-79691022D02*
X183812610Y-79738641D01*
X183812610Y-79738641D02*
X183526896Y-79738641D01*
X183526896Y-79738641D02*
X183431658Y-79691022D01*
X183431658Y-79691022D02*
X183384039Y-79643403D01*
%TO.C,Q3*%
X207549761Y-74753619D02*
X207454523Y-74706000D01*
X207454523Y-74706000D02*
X207359285Y-74610761D01*
X207359285Y-74610761D02*
X207216428Y-74467904D01*
X207216428Y-74467904D02*
X207121190Y-74420285D01*
X207121190Y-74420285D02*
X207025952Y-74420285D01*
X207073571Y-74658380D02*
X206978333Y-74610761D01*
X206978333Y-74610761D02*
X206883095Y-74515523D01*
X206883095Y-74515523D02*
X206835476Y-74325047D01*
X206835476Y-74325047D02*
X206835476Y-73991714D01*
X206835476Y-73991714D02*
X206883095Y-73801238D01*
X206883095Y-73801238D02*
X206978333Y-73706000D01*
X206978333Y-73706000D02*
X207073571Y-73658380D01*
X207073571Y-73658380D02*
X207264047Y-73658380D01*
X207264047Y-73658380D02*
X207359285Y-73706000D01*
X207359285Y-73706000D02*
X207454523Y-73801238D01*
X207454523Y-73801238D02*
X207502142Y-73991714D01*
X207502142Y-73991714D02*
X207502142Y-74325047D01*
X207502142Y-74325047D02*
X207454523Y-74515523D01*
X207454523Y-74515523D02*
X207359285Y-74610761D01*
X207359285Y-74610761D02*
X207264047Y-74658380D01*
X207264047Y-74658380D02*
X207073571Y-74658380D01*
X207835476Y-73658380D02*
X208454523Y-73658380D01*
X208454523Y-73658380D02*
X208121190Y-74039333D01*
X208121190Y-74039333D02*
X208264047Y-74039333D01*
X208264047Y-74039333D02*
X208359285Y-74086952D01*
X208359285Y-74086952D02*
X208406904Y-74134571D01*
X208406904Y-74134571D02*
X208454523Y-74229809D01*
X208454523Y-74229809D02*
X208454523Y-74467904D01*
X208454523Y-74467904D02*
X208406904Y-74563142D01*
X208406904Y-74563142D02*
X208359285Y-74610761D01*
X208359285Y-74610761D02*
X208264047Y-74658380D01*
X208264047Y-74658380D02*
X207978333Y-74658380D01*
X207978333Y-74658380D02*
X207883095Y-74610761D01*
X207883095Y-74610761D02*
X207835476Y-74563142D01*
D11*
%TO.C,Q7*%
X232199686Y-68057574D02*
X232156923Y-67929285D01*
X232156923Y-67929285D02*
X232156923Y-67758232D01*
X232156923Y-67758232D02*
X232156923Y-67501653D01*
X232156923Y-67501653D02*
X232114160Y-67373364D01*
X232114160Y-67373364D02*
X232028634Y-67287838D01*
X231857582Y-67544417D02*
X231814818Y-67416127D01*
X231814818Y-67416127D02*
X231814818Y-67245075D01*
X231814818Y-67245075D02*
X231943108Y-67031259D01*
X231943108Y-67031259D02*
X232242450Y-66731917D01*
X232242450Y-66731917D02*
X232456265Y-66603628D01*
X232456265Y-66603628D02*
X232627318Y-66603628D01*
X232627318Y-66603628D02*
X232755607Y-66646391D01*
X232755607Y-66646391D02*
X232926660Y-66817443D01*
X232926660Y-66817443D02*
X232969423Y-66945733D01*
X232969423Y-66945733D02*
X232969423Y-67116785D01*
X232969423Y-67116785D02*
X232841133Y-67330601D01*
X232841133Y-67330601D02*
X232541791Y-67629943D01*
X232541791Y-67629943D02*
X232327976Y-67758232D01*
X232327976Y-67758232D02*
X232156923Y-67758232D01*
X232156923Y-67758232D02*
X232028634Y-67715469D01*
X232028634Y-67715469D02*
X231857582Y-67544417D01*
X233439817Y-67330601D02*
X234038501Y-67929284D01*
X234038501Y-67929284D02*
X232755607Y-68442442D01*
D10*
%TO.C,D3*%
X175440253Y-71045045D02*
X174733146Y-70337938D01*
X174733146Y-70337938D02*
X174901505Y-70169579D01*
X174901505Y-70169579D02*
X175036192Y-70102236D01*
X175036192Y-70102236D02*
X175170879Y-70102236D01*
X175170879Y-70102236D02*
X175271894Y-70135908D01*
X175271894Y-70135908D02*
X175440253Y-70236923D01*
X175440253Y-70236923D02*
X175541269Y-70337938D01*
X175541269Y-70337938D02*
X175642284Y-70506297D01*
X175642284Y-70506297D02*
X175675956Y-70607312D01*
X175675956Y-70607312D02*
X175675956Y-70741999D01*
X175675956Y-70741999D02*
X175608612Y-70876686D01*
X175608612Y-70876686D02*
X175440253Y-71045045D01*
X175372910Y-69698175D02*
X175810643Y-69260442D01*
X175810643Y-69260442D02*
X175844314Y-69765518D01*
X175844314Y-69765518D02*
X175945330Y-69664503D01*
X175945330Y-69664503D02*
X176046345Y-69630831D01*
X176046345Y-69630831D02*
X176113688Y-69630831D01*
X176113688Y-69630831D02*
X176214704Y-69664503D01*
X176214704Y-69664503D02*
X176383062Y-69832862D01*
X176383062Y-69832862D02*
X176416734Y-69933877D01*
X176416734Y-69933877D02*
X176416734Y-70001221D01*
X176416734Y-70001221D02*
X176383062Y-70102236D01*
X176383062Y-70102236D02*
X176181032Y-70304266D01*
X176181032Y-70304266D02*
X176080017Y-70337938D01*
X176080017Y-70337938D02*
X176012673Y-70337938D01*
D11*
%TO.C,Q4*%
X185754366Y-64339337D02*
X185626077Y-64382100D01*
X185626077Y-64382100D02*
X185455024Y-64382100D01*
X185455024Y-64382100D02*
X185198445Y-64382100D01*
X185198445Y-64382100D02*
X185070156Y-64424863D01*
X185070156Y-64424863D02*
X184984630Y-64510389D01*
X185241209Y-64681441D02*
X185112919Y-64724205D01*
X185112919Y-64724205D02*
X184941867Y-64724205D01*
X184941867Y-64724205D02*
X184728051Y-64595915D01*
X184728051Y-64595915D02*
X184428709Y-64296573D01*
X184428709Y-64296573D02*
X184300420Y-64082758D01*
X184300420Y-64082758D02*
X184300420Y-63911705D01*
X184300420Y-63911705D02*
X184343183Y-63783416D01*
X184343183Y-63783416D02*
X184514235Y-63612363D01*
X184514235Y-63612363D02*
X184642525Y-63569600D01*
X184642525Y-63569600D02*
X184813577Y-63569600D01*
X184813577Y-63569600D02*
X185027393Y-63697890D01*
X185027393Y-63697890D02*
X185326735Y-63997232D01*
X185326735Y-63997232D02*
X185455024Y-64211047D01*
X185455024Y-64211047D02*
X185455024Y-64382100D01*
X185455024Y-64382100D02*
X185412261Y-64510389D01*
X185412261Y-64510389D02*
X185241209Y-64681441D01*
X185797129Y-62928154D02*
X186395813Y-63526837D01*
X185241208Y-62799864D02*
X185668840Y-63655127D01*
X185668840Y-63655127D02*
X186224760Y-63099206D01*
D10*
%TO.C,J1*%
X188261666Y-86489380D02*
X188261666Y-87203666D01*
X188261666Y-87203666D02*
X188214047Y-87346523D01*
X188214047Y-87346523D02*
X188118809Y-87441761D01*
X188118809Y-87441761D02*
X187975952Y-87489380D01*
X187975952Y-87489380D02*
X187880714Y-87489380D01*
X189261666Y-87489380D02*
X188690238Y-87489380D01*
X188975952Y-87489380D02*
X188975952Y-86489380D01*
X188975952Y-86489380D02*
X188880714Y-86632238D01*
X188880714Y-86632238D02*
X188785476Y-86727476D01*
X188785476Y-86727476D02*
X188690238Y-86775095D01*
D11*
%TO.C,Q2*%
X209556047Y-61801526D02*
X209435095Y-61741050D01*
X209435095Y-61741050D02*
X209314142Y-61620097D01*
X209314142Y-61620097D02*
X209132714Y-61438669D01*
X209132714Y-61438669D02*
X209011761Y-61378192D01*
X209011761Y-61378192D02*
X208890809Y-61378192D01*
X208951285Y-61680573D02*
X208830333Y-61620097D01*
X208830333Y-61620097D02*
X208709380Y-61499145D01*
X208709380Y-61499145D02*
X208648904Y-61257240D01*
X208648904Y-61257240D02*
X208648904Y-60833907D01*
X208648904Y-60833907D02*
X208709380Y-60592002D01*
X208709380Y-60592002D02*
X208830333Y-60471050D01*
X208830333Y-60471050D02*
X208951285Y-60410573D01*
X208951285Y-60410573D02*
X209193190Y-60410573D01*
X209193190Y-60410573D02*
X209314142Y-60471050D01*
X209314142Y-60471050D02*
X209435095Y-60592002D01*
X209435095Y-60592002D02*
X209495571Y-60833907D01*
X209495571Y-60833907D02*
X209495571Y-61257240D01*
X209495571Y-61257240D02*
X209435095Y-61499145D01*
X209435095Y-61499145D02*
X209314142Y-61620097D01*
X209314142Y-61620097D02*
X209193190Y-61680573D01*
X209193190Y-61680573D02*
X208951285Y-61680573D01*
X209979380Y-60531526D02*
X210039856Y-60471050D01*
X210039856Y-60471050D02*
X210160809Y-60410573D01*
X210160809Y-60410573D02*
X210463190Y-60410573D01*
X210463190Y-60410573D02*
X210584142Y-60471050D01*
X210584142Y-60471050D02*
X210644618Y-60531526D01*
X210644618Y-60531526D02*
X210705095Y-60652478D01*
X210705095Y-60652478D02*
X210705095Y-60773430D01*
X210705095Y-60773430D02*
X210644618Y-60954859D01*
X210644618Y-60954859D02*
X209918904Y-61680573D01*
X209918904Y-61680573D02*
X210705095Y-61680573D01*
D10*
%TO.C,TP2*%
X221496095Y-68709380D02*
X222067523Y-68709380D01*
X221781809Y-69709380D02*
X221781809Y-68709380D01*
X222400857Y-69709380D02*
X222400857Y-68709380D01*
X222400857Y-68709380D02*
X222781809Y-68709380D01*
X222781809Y-68709380D02*
X222877047Y-68757000D01*
X222877047Y-68757000D02*
X222924666Y-68804619D01*
X222924666Y-68804619D02*
X222972285Y-68899857D01*
X222972285Y-68899857D02*
X222972285Y-69042714D01*
X222972285Y-69042714D02*
X222924666Y-69137952D01*
X222924666Y-69137952D02*
X222877047Y-69185571D01*
X222877047Y-69185571D02*
X222781809Y-69233190D01*
X222781809Y-69233190D02*
X222400857Y-69233190D01*
X223353238Y-68804619D02*
X223400857Y-68757000D01*
X223400857Y-68757000D02*
X223496095Y-68709380D01*
X223496095Y-68709380D02*
X223734190Y-68709380D01*
X223734190Y-68709380D02*
X223829428Y-68757000D01*
X223829428Y-68757000D02*
X223877047Y-68804619D01*
X223877047Y-68804619D02*
X223924666Y-68899857D01*
X223924666Y-68899857D02*
X223924666Y-68995095D01*
X223924666Y-68995095D02*
X223877047Y-69137952D01*
X223877047Y-69137952D02*
X223305619Y-69709380D01*
X223305619Y-69709380D02*
X223924666Y-69709380D01*
%TO.C,Q1*%
X214280761Y-74753619D02*
X214185523Y-74706000D01*
X214185523Y-74706000D02*
X214090285Y-74610761D01*
X214090285Y-74610761D02*
X213947428Y-74467904D01*
X213947428Y-74467904D02*
X213852190Y-74420285D01*
X213852190Y-74420285D02*
X213756952Y-74420285D01*
X213804571Y-74658380D02*
X213709333Y-74610761D01*
X213709333Y-74610761D02*
X213614095Y-74515523D01*
X213614095Y-74515523D02*
X213566476Y-74325047D01*
X213566476Y-74325047D02*
X213566476Y-73991714D01*
X213566476Y-73991714D02*
X213614095Y-73801238D01*
X213614095Y-73801238D02*
X213709333Y-73706000D01*
X213709333Y-73706000D02*
X213804571Y-73658380D01*
X213804571Y-73658380D02*
X213995047Y-73658380D01*
X213995047Y-73658380D02*
X214090285Y-73706000D01*
X214090285Y-73706000D02*
X214185523Y-73801238D01*
X214185523Y-73801238D02*
X214233142Y-73991714D01*
X214233142Y-73991714D02*
X214233142Y-74325047D01*
X214233142Y-74325047D02*
X214185523Y-74515523D01*
X214185523Y-74515523D02*
X214090285Y-74610761D01*
X214090285Y-74610761D02*
X213995047Y-74658380D01*
X213995047Y-74658380D02*
X213804571Y-74658380D01*
X215185523Y-74658380D02*
X214614095Y-74658380D01*
X214899809Y-74658380D02*
X214899809Y-73658380D01*
X214899809Y-73658380D02*
X214804571Y-73801238D01*
X214804571Y-73801238D02*
X214709333Y-73896476D01*
X214709333Y-73896476D02*
X214614095Y-73944095D01*
%TO.C,Q5*%
X200564761Y-74753619D02*
X200469523Y-74706000D01*
X200469523Y-74706000D02*
X200374285Y-74610761D01*
X200374285Y-74610761D02*
X200231428Y-74467904D01*
X200231428Y-74467904D02*
X200136190Y-74420285D01*
X200136190Y-74420285D02*
X200040952Y-74420285D01*
X200088571Y-74658380D02*
X199993333Y-74610761D01*
X199993333Y-74610761D02*
X199898095Y-74515523D01*
X199898095Y-74515523D02*
X199850476Y-74325047D01*
X199850476Y-74325047D02*
X199850476Y-73991714D01*
X199850476Y-73991714D02*
X199898095Y-73801238D01*
X199898095Y-73801238D02*
X199993333Y-73706000D01*
X199993333Y-73706000D02*
X200088571Y-73658380D01*
X200088571Y-73658380D02*
X200279047Y-73658380D01*
X200279047Y-73658380D02*
X200374285Y-73706000D01*
X200374285Y-73706000D02*
X200469523Y-73801238D01*
X200469523Y-73801238D02*
X200517142Y-73991714D01*
X200517142Y-73991714D02*
X200517142Y-74325047D01*
X200517142Y-74325047D02*
X200469523Y-74515523D01*
X200469523Y-74515523D02*
X200374285Y-74610761D01*
X200374285Y-74610761D02*
X200279047Y-74658380D01*
X200279047Y-74658380D02*
X200088571Y-74658380D01*
X201421904Y-73658380D02*
X200945714Y-73658380D01*
X200945714Y-73658380D02*
X200898095Y-74134571D01*
X200898095Y-74134571D02*
X200945714Y-74086952D01*
X200945714Y-74086952D02*
X201040952Y-74039333D01*
X201040952Y-74039333D02*
X201279047Y-74039333D01*
X201279047Y-74039333D02*
X201374285Y-74086952D01*
X201374285Y-74086952D02*
X201421904Y-74134571D01*
X201421904Y-74134571D02*
X201469523Y-74229809D01*
X201469523Y-74229809D02*
X201469523Y-74467904D01*
X201469523Y-74467904D02*
X201421904Y-74563142D01*
X201421904Y-74563142D02*
X201374285Y-74610761D01*
X201374285Y-74610761D02*
X201279047Y-74658380D01*
X201279047Y-74658380D02*
X201040952Y-74658380D01*
X201040952Y-74658380D02*
X200945714Y-74610761D01*
X200945714Y-74610761D02*
X200898095Y-74563142D01*
%TO.C,D2*%
X201318905Y-62062380D02*
X201318905Y-61062380D01*
X201318905Y-61062380D02*
X201557000Y-61062380D01*
X201557000Y-61062380D02*
X201699857Y-61110000D01*
X201699857Y-61110000D02*
X201795095Y-61205238D01*
X201795095Y-61205238D02*
X201842714Y-61300476D01*
X201842714Y-61300476D02*
X201890333Y-61490952D01*
X201890333Y-61490952D02*
X201890333Y-61633809D01*
X201890333Y-61633809D02*
X201842714Y-61824285D01*
X201842714Y-61824285D02*
X201795095Y-61919523D01*
X201795095Y-61919523D02*
X201699857Y-62014761D01*
X201699857Y-62014761D02*
X201557000Y-62062380D01*
X201557000Y-62062380D02*
X201318905Y-62062380D01*
X202271286Y-61157619D02*
X202318905Y-61110000D01*
X202318905Y-61110000D02*
X202414143Y-61062380D01*
X202414143Y-61062380D02*
X202652238Y-61062380D01*
X202652238Y-61062380D02*
X202747476Y-61110000D01*
X202747476Y-61110000D02*
X202795095Y-61157619D01*
X202795095Y-61157619D02*
X202842714Y-61252857D01*
X202842714Y-61252857D02*
X202842714Y-61348095D01*
X202842714Y-61348095D02*
X202795095Y-61490952D01*
X202795095Y-61490952D02*
X202223667Y-62062380D01*
X202223667Y-62062380D02*
X202842714Y-62062380D01*
D12*
%TO.C,R4*%
X223536742Y-74690500D02*
X224011258Y-74690500D01*
X223536742Y-73645500D02*
X224011258Y-73645500D01*
%TO.C,C5*%
X172619000Y-82878437D02*
X173683437Y-81814000D01*
X177139000Y-86334000D02*
X177139000Y-85134000D01*
X171879000Y-82514000D02*
X172379000Y-82514000D01*
X173683437Y-86334000D02*
X177139000Y-86334000D01*
X173683437Y-81814000D02*
X177139000Y-81814000D01*
X177139000Y-81814000D02*
X177139000Y-83014000D01*
X172619000Y-82878437D02*
X172619000Y-83014000D01*
X172619000Y-85269563D02*
X172619000Y-85134000D01*
X172619000Y-85269563D02*
X173683437Y-86334000D01*
X172129000Y-82264000D02*
X172129000Y-82764000D01*
%TO.C,R12*%
X188103742Y-73674500D02*
X188578258Y-73674500D01*
X188103742Y-72629500D02*
X188578258Y-72629500D01*
%TO.C,R11*%
X196198258Y-68819500D02*
X195723742Y-68819500D01*
X196198258Y-69864500D02*
X195723742Y-69864500D01*
%TO.C,R10*%
X190008742Y-78627500D02*
X190483258Y-78627500D01*
X190008742Y-77582500D02*
X190483258Y-77582500D01*
%TO.C,R9*%
X186325742Y-78627500D02*
X186800258Y-78627500D01*
X186325742Y-77582500D02*
X186800258Y-77582500D01*
%TO.C,R8*%
X219091742Y-64784500D02*
X219566258Y-64784500D01*
X219091742Y-63739500D02*
X219566258Y-63739500D01*
%TO.C,R7*%
X219091742Y-74690500D02*
X219566258Y-74690500D01*
X219091742Y-73645500D02*
X219566258Y-73645500D01*
%TO.C,R6*%
X196198258Y-78881500D02*
X195723742Y-78881500D01*
X196198258Y-77836500D02*
X195723742Y-77836500D01*
%TO.C,R5*%
X196198258Y-73391500D02*
X195723742Y-73391500D01*
X196198258Y-74436500D02*
X195723742Y-74436500D01*
%TO.C,R3*%
X219091742Y-78881500D02*
X219566258Y-78881500D01*
X219091742Y-77836500D02*
X219566258Y-77836500D01*
%TO.C,R2*%
X223536742Y-79135500D02*
X224011258Y-79135500D01*
X223536742Y-78090500D02*
X224011258Y-78090500D01*
%TO.C,R1*%
X227404697Y-70328770D02*
X227740230Y-70664303D01*
X226665770Y-71067697D02*
X227001303Y-71403230D01*
%TO.C,C6*%
X180271000Y-82878437D02*
X181335437Y-81814000D01*
X184791000Y-86334000D02*
X184791000Y-85134000D01*
X179531000Y-82514000D02*
X180031000Y-82514000D01*
X181335437Y-86334000D02*
X184791000Y-86334000D01*
X181335437Y-81814000D02*
X184791000Y-81814000D01*
X184791000Y-81814000D02*
X184791000Y-83014000D01*
X180271000Y-82878437D02*
X180271000Y-83014000D01*
X180271000Y-85269563D02*
X180271000Y-85134000D01*
X180271000Y-85269563D02*
X181335437Y-86334000D01*
X179781000Y-82264000D02*
X179781000Y-82764000D01*
%TO.C,C4*%
X210134000Y-68294000D02*
X210134000Y-68794000D01*
X210624000Y-71299563D02*
X211688437Y-72364000D01*
X210624000Y-71299563D02*
X210624000Y-71164000D01*
X210624000Y-68908437D02*
X210624000Y-69044000D01*
X215144000Y-67844000D02*
X215144000Y-69044000D01*
X211688437Y-67844000D02*
X215144000Y-67844000D01*
X211688437Y-72364000D02*
X215144000Y-72364000D01*
X209884000Y-68544000D02*
X210384000Y-68544000D01*
X215144000Y-72364000D02*
X215144000Y-71164000D01*
X210624000Y-68908437D02*
X211688437Y-67844000D01*
%TO.C,C3*%
X200599000Y-69035437D02*
X201663437Y-67971000D01*
X205119000Y-72491000D02*
X205119000Y-71291000D01*
X199859000Y-68671000D02*
X200359000Y-68671000D01*
X201663437Y-72491000D02*
X205119000Y-72491000D01*
X201663437Y-67971000D02*
X205119000Y-67971000D01*
X205119000Y-67971000D02*
X205119000Y-69171000D01*
X200599000Y-69035437D02*
X200599000Y-69171000D01*
X200599000Y-71426563D02*
X200599000Y-71291000D01*
X200599000Y-71426563D02*
X201663437Y-72491000D01*
X200109000Y-68421000D02*
X200109000Y-68921000D01*
%TO.C,C2*%
X228912000Y-82878437D02*
X229976437Y-81814000D01*
X233432000Y-86334000D02*
X233432000Y-85134000D01*
X228172000Y-82514000D02*
X228672000Y-82514000D01*
X229976437Y-86334000D02*
X233432000Y-86334000D01*
X229976437Y-81814000D02*
X233432000Y-81814000D01*
X233432000Y-81814000D02*
X233432000Y-83014000D01*
X228912000Y-82878437D02*
X228912000Y-83014000D01*
X228912000Y-85269563D02*
X228912000Y-85134000D01*
X228912000Y-85269563D02*
X229976437Y-86334000D01*
X228422000Y-82264000D02*
X228422000Y-82764000D01*
%TO.C,C1*%
X236754000Y-82878437D02*
X237818437Y-81814000D01*
X241274000Y-86334000D02*
X241274000Y-85134000D01*
X236014000Y-82514000D02*
X236514000Y-82514000D01*
X237818437Y-86334000D02*
X241274000Y-86334000D01*
X237818437Y-81814000D02*
X241274000Y-81814000D01*
X241274000Y-81814000D02*
X241274000Y-83014000D01*
X236754000Y-82878437D02*
X236754000Y-83014000D01*
X236754000Y-85269563D02*
X236754000Y-85134000D01*
X236754000Y-85269563D02*
X237818437Y-86334000D01*
X236264000Y-82264000D02*
X236264000Y-82764000D01*
%TO.C,TP1*%
X229551000Y-76516000D02*
X230951000Y-76516000D01*
X229551000Y-77916000D02*
X229551000Y-76516000D01*
X230951000Y-76516000D02*
X230951000Y-77916000D01*
X230951000Y-77916000D02*
X229551000Y-77916000D01*
%TO.C,D1*%
X237118341Y-70308557D02*
X237008032Y-70418866D01*
X235480682Y-71946216D02*
X235370373Y-72056525D01*
X239292655Y-72705456D02*
G75*
G03*
X237117999Y-70308900I-1945211J419828D01*
G01*
X238847194Y-72258258D02*
G75*
G03*
X237375048Y-70785882I-1499750J-27370D01*
G01*
X235847699Y-72313232D02*
G75*
G03*
X237320074Y-73785377I1499745J27604D01*
G01*
X235370717Y-72056183D02*
G75*
G03*
X237767272Y-74230838I1976727J-229445D01*
G01*
%TO.C,TP3*%
X181418000Y-76516000D02*
X182818000Y-76516000D01*
X181418000Y-77916000D02*
X181418000Y-76516000D01*
X182818000Y-76516000D02*
X182818000Y-77916000D01*
X182818000Y-77916000D02*
X181418000Y-77916000D01*
%TO.C,Q3*%
X205845000Y-79701000D02*
X209445000Y-79701000D01*
X207645000Y-75251000D02*
G75*
G03*
X205806522Y-79689478I0J-2600000D01*
G01*
X209483478Y-79689478D02*
G75*
G03*
X207645000Y-75251000I-1838478J1838478D01*
G01*
D13*
%TO.C,Q7*%
X230450643Y-65515827D02*
X230450643Y-65515827D01*
X230592065Y-65657249D02*
X230592065Y-65657249D01*
D14*
X230985923Y-66012924D02*
X230985923Y-66012924D01*
X234578026Y-69605026D02*
X234578026Y-69605026D01*
D13*
X230592065Y-65657249D02*
G75*
G03*
X230450643Y-65515827I-70711J70711D01*
G01*
X230450643Y-65515827D02*
G75*
G03*
X230592065Y-65657249I70711J-70711D01*
G01*
D14*
X234578025Y-69605025D02*
G75*
G03*
X230985923Y-66012924I-1796051J1796050D01*
G01*
X230985923Y-66012924D02*
G75*
G03*
X234578026Y-69605026I1796051J-1796051D01*
G01*
D12*
%TO.C,D3*%
X175818353Y-72585495D02*
X175928662Y-72695804D01*
X177456012Y-74223154D02*
X177566321Y-74333463D01*
X178215252Y-70411181D02*
G75*
G03*
X175818696Y-72585837I-419828J-1945211D01*
G01*
X177768054Y-70856642D02*
G75*
G03*
X176295678Y-72328788I27370J-1499750D01*
G01*
X177823028Y-73856137D02*
G75*
G03*
X179295173Y-72383762I-27604J1499745D01*
G01*
X177565979Y-74333119D02*
G75*
G03*
X179740634Y-71936564I229445J1976727D01*
G01*
D13*
%TO.C,Q4*%
X180068786Y-70248214D02*
X180068786Y-70248214D01*
X180210208Y-70106792D02*
X180210208Y-70106792D01*
D14*
X180565883Y-69712934D02*
X180565883Y-69712934D01*
X184157985Y-66120831D02*
X184157985Y-66120831D01*
D13*
X180210208Y-70106792D02*
G75*
G03*
X180068786Y-70248214I-70711J-70711D01*
G01*
X180068786Y-70248214D02*
G75*
G03*
X180210208Y-70106792I70711J70711D01*
G01*
D14*
X184157984Y-66120832D02*
G75*
G03*
X180565883Y-69712934I-1796050J-1796051D01*
G01*
X180565883Y-69712934D02*
G75*
G03*
X184157985Y-66120831I1796051J1796051D01*
G01*
D12*
%TO.C,J1*%
X189130000Y-96032000D02*
X224810000Y-96032000D01*
X189130000Y-96032000D02*
X189130000Y-87402000D01*
X189250000Y-96032000D02*
X189250000Y-87402000D01*
X189368095Y-96032000D02*
X189368095Y-87402000D01*
X189486190Y-96032000D02*
X189486190Y-87402000D01*
X189604285Y-96032000D02*
X189604285Y-87402000D01*
X189722380Y-96032000D02*
X189722380Y-87402000D01*
X189840475Y-96032000D02*
X189840475Y-87402000D01*
X189958570Y-96032000D02*
X189958570Y-87402000D01*
X190076665Y-96032000D02*
X190076665Y-87402000D01*
X190194760Y-96032000D02*
X190194760Y-87402000D01*
X190312855Y-96032000D02*
X190312855Y-87402000D01*
X190430950Y-96032000D02*
X190430950Y-87402000D01*
X190549045Y-96032000D02*
X190549045Y-87402000D01*
X190667140Y-96032000D02*
X190667140Y-87402000D01*
X190785235Y-96032000D02*
X190785235Y-87402000D01*
X190903330Y-96032000D02*
X190903330Y-87402000D01*
X191021425Y-96032000D02*
X191021425Y-87402000D01*
X191139520Y-96032000D02*
X191139520Y-87402000D01*
X191257615Y-96032000D02*
X191257615Y-87402000D01*
X191375710Y-96032000D02*
X191375710Y-87402000D01*
X191493805Y-96032000D02*
X191493805Y-87402000D01*
X191611900Y-96032000D02*
X191611900Y-87402000D01*
X191730000Y-96032000D02*
X191730000Y-87402000D01*
X194270000Y-96032000D02*
X194270000Y-87402000D01*
X196810000Y-96032000D02*
X196810000Y-87402000D01*
X199350000Y-96032000D02*
X199350000Y-87402000D01*
X201890000Y-96032000D02*
X201890000Y-87402000D01*
X204430000Y-96032000D02*
X204430000Y-87402000D01*
X206970000Y-96032000D02*
X206970000Y-87402000D01*
X209510000Y-96032000D02*
X209510000Y-87402000D01*
X212050000Y-96032000D02*
X212050000Y-87402000D01*
X214590000Y-96032000D02*
X214590000Y-87402000D01*
X217130000Y-96032000D02*
X217130000Y-87402000D01*
X219670000Y-96032000D02*
X219670000Y-87402000D01*
X222210000Y-96032000D02*
X222210000Y-87402000D01*
X224810000Y-96032000D02*
X224810000Y-87402000D01*
X189130000Y-87402000D02*
X224810000Y-87402000D01*
X190100000Y-87402000D02*
X190100000Y-86992000D01*
X190820000Y-87402000D02*
X190820000Y-86992000D01*
X192640000Y-87402000D02*
X192640000Y-86992000D01*
X193360000Y-87402000D02*
X193360000Y-86992000D01*
X195180000Y-87402000D02*
X195180000Y-86992000D01*
X195900000Y-87402000D02*
X195900000Y-86992000D01*
X197720000Y-87402000D02*
X197720000Y-86992000D01*
X198440000Y-87402000D02*
X198440000Y-86992000D01*
X200260000Y-87402000D02*
X200260000Y-86992000D01*
X200980000Y-87402000D02*
X200980000Y-86992000D01*
X202800000Y-87402000D02*
X202800000Y-86992000D01*
X203520000Y-87402000D02*
X203520000Y-86992000D01*
X205340000Y-87402000D02*
X205340000Y-86992000D01*
X206060000Y-87402000D02*
X206060000Y-86992000D01*
X207880000Y-87402000D02*
X207880000Y-86992000D01*
X208600000Y-87402000D02*
X208600000Y-86992000D01*
X210420000Y-87402000D02*
X210420000Y-86992000D01*
X211140000Y-87402000D02*
X211140000Y-86992000D01*
X212960000Y-87402000D02*
X212960000Y-86992000D01*
X213680000Y-87402000D02*
X213680000Y-86992000D01*
X215500000Y-87402000D02*
X215500000Y-86992000D01*
X216220000Y-87402000D02*
X216220000Y-86992000D01*
X218040000Y-87402000D02*
X218040000Y-86992000D01*
X218760000Y-87402000D02*
X218760000Y-86992000D01*
X220580000Y-87402000D02*
X220580000Y-86992000D01*
X221300000Y-87402000D02*
X221300000Y-86992000D01*
X223120000Y-87402000D02*
X223120000Y-86992000D01*
X223840000Y-87402000D02*
X223840000Y-86992000D01*
X190100000Y-84892000D02*
X190100000Y-84512000D01*
X190820000Y-84892000D02*
X190820000Y-84512000D01*
X192640000Y-84892000D02*
X192640000Y-84452000D01*
X193360000Y-84892000D02*
X193360000Y-84452000D01*
X195180000Y-84892000D02*
X195180000Y-84452000D01*
X195900000Y-84892000D02*
X195900000Y-84452000D01*
X197720000Y-84892000D02*
X197720000Y-84452000D01*
X198440000Y-84892000D02*
X198440000Y-84452000D01*
X200260000Y-84892000D02*
X200260000Y-84452000D01*
X200980000Y-84892000D02*
X200980000Y-84452000D01*
X202800000Y-84892000D02*
X202800000Y-84452000D01*
X203520000Y-84892000D02*
X203520000Y-84452000D01*
X205340000Y-84892000D02*
X205340000Y-84452000D01*
X206060000Y-84892000D02*
X206060000Y-84452000D01*
X207880000Y-84892000D02*
X207880000Y-84452000D01*
X208600000Y-84892000D02*
X208600000Y-84452000D01*
X210420000Y-84892000D02*
X210420000Y-84452000D01*
X211140000Y-84892000D02*
X211140000Y-84452000D01*
X212960000Y-84892000D02*
X212960000Y-84452000D01*
X213680000Y-84892000D02*
X213680000Y-84452000D01*
X215500000Y-84892000D02*
X215500000Y-84452000D01*
X216220000Y-84892000D02*
X216220000Y-84452000D01*
X218040000Y-84892000D02*
X218040000Y-84452000D01*
X218760000Y-84892000D02*
X218760000Y-84452000D01*
X220580000Y-84892000D02*
X220580000Y-84452000D01*
X221300000Y-84892000D02*
X221300000Y-84452000D01*
X223120000Y-84892000D02*
X223120000Y-84452000D01*
X223840000Y-84892000D02*
X223840000Y-84452000D01*
X189130000Y-83402000D02*
X189130000Y-82292000D01*
X189130000Y-82292000D02*
X190460000Y-82292000D01*
D13*
%TO.C,Q2*%
X208940000Y-63373000D02*
X208940000Y-63373000D01*
X209140000Y-63373000D02*
X209140000Y-63373000D01*
D14*
X209670000Y-63346000D02*
X209670000Y-63346000D01*
X214750000Y-63346000D02*
X214750000Y-63346000D01*
D13*
X209140000Y-63373000D02*
G75*
G03*
X208940000Y-63373000I-100000J0D01*
G01*
X208940000Y-63373000D02*
G75*
G03*
X209140000Y-63373000I100000J0D01*
G01*
D14*
X214750000Y-63346000D02*
G75*
G03*
X209670000Y-63346000I-2540000J0D01*
G01*
X209670000Y-63346000D02*
G75*
G03*
X214750000Y-63346000I2540000J0D01*
G01*
D12*
%TO.C,TP2*%
X220918000Y-69407000D02*
X219518000Y-69407000D01*
X220918000Y-68007000D02*
X220918000Y-69407000D01*
X219518000Y-69407000D02*
X219518000Y-68007000D01*
X219518000Y-68007000D02*
X220918000Y-68007000D01*
%TO.C,Q1*%
X212576000Y-79701000D02*
X216176000Y-79701000D01*
X214376000Y-75251000D02*
G75*
G03*
X212537522Y-79689478I0J-2600000D01*
G01*
X216214478Y-79689478D02*
G75*
G03*
X214376000Y-75251000I-1838478J1838478D01*
G01*
%TO.C,Q5*%
X198860000Y-79701000D02*
X202460000Y-79701000D01*
X200660000Y-75251000D02*
G75*
G03*
X198821522Y-79689478I0J-2600000D01*
G01*
X202498478Y-79689478D02*
G75*
G03*
X200660000Y-75251000I-1838478J1838478D01*
G01*
%TO.C,D2*%
X204180000Y-61983000D02*
X204180000Y-62139000D01*
X204180000Y-64299000D02*
X204180000Y-64455000D01*
X207412334Y-62140392D02*
G75*
G03*
X204180001Y-61983485I-1672334J-1078608D01*
G01*
X206781129Y-62139164D02*
G75*
G03*
X204699040Y-62139001I-1041129J-1079836D01*
G01*
X204699040Y-64298999D02*
G75*
G03*
X206781129Y-64298836I1040960J1079999D01*
G01*
X204180001Y-64454515D02*
G75*
G03*
X207412334Y-64297608I1559999J1235515D01*
G01*
%TD*%
%LPC*%
D15*
%TO.C,R4*%
X222949000Y-74168000D03*
X224599000Y-74168000D03*
%TD*%
D16*
%TO.C,C5*%
X173079000Y-84074000D03*
X176679000Y-84074000D03*
%TD*%
D15*
%TO.C,R12*%
X187516000Y-73152000D03*
X189166000Y-73152000D03*
%TD*%
D17*
%TO.C,R11*%
X196786000Y-69342000D03*
X195136000Y-69342000D03*
%TD*%
D15*
%TO.C,R10*%
X189421000Y-78105000D03*
X191071000Y-78105000D03*
%TD*%
%TO.C,R9*%
X185738000Y-78105000D03*
X187388000Y-78105000D03*
%TD*%
%TO.C,R8*%
X218504000Y-64262000D03*
X220154000Y-64262000D03*
%TD*%
%TO.C,R7*%
X218504000Y-74168000D03*
X220154000Y-74168000D03*
%TD*%
D17*
%TO.C,R6*%
X195136000Y-78359000D03*
X196786000Y-78359000D03*
%TD*%
%TO.C,R5*%
X196786000Y-73914000D03*
X195136000Y-73914000D03*
%TD*%
D15*
%TO.C,R3*%
X218504000Y-78359000D03*
X220154000Y-78359000D03*
%TD*%
%TO.C,R2*%
X222949000Y-78613000D03*
X224599000Y-78613000D03*
%TD*%
D18*
%TO.C,R1*%
X227786363Y-71449363D03*
X226619637Y-70282637D03*
%TD*%
D16*
%TO.C,C6*%
X180731000Y-84074000D03*
X184331000Y-84074000D03*
%TD*%
%TO.C,C4*%
X214684000Y-70104000D03*
X211084000Y-70104000D03*
%TD*%
%TO.C,C3*%
X201059000Y-70231000D03*
X204659000Y-70231000D03*
%TD*%
%TO.C,C2*%
X229372000Y-84074000D03*
X232972000Y-84074000D03*
%TD*%
%TO.C,C1*%
X237214000Y-84074000D03*
X240814000Y-84074000D03*
%TD*%
D19*
%TO.C,TP1*%
X230250999Y-77215999D03*
%TD*%
D20*
%TO.C,D1*%
X236449417Y-71387601D03*
D21*
X238245469Y-73183653D03*
%TD*%
D19*
%TO.C,TP3*%
X182117999Y-77215999D03*
%TD*%
D22*
%TO.C,Q3*%
X206374999Y-77850999D03*
D23*
X207644999Y-77850999D03*
X208914999Y-77850999D03*
%TD*%
D24*
%TO.C,Q7*%
X231864857Y-66930041D03*
X233680000Y-68707000D03*
%TD*%
D25*
%TO.C,D3*%
X176897397Y-73254417D03*
D21*
X178693449Y-71458367D03*
%TD*%
D24*
%TO.C,Q4*%
X181483000Y-68834000D03*
X183259959Y-67018857D03*
%TD*%
D26*
%TO.C,J1*%
X190459999Y-83401999D03*
D27*
X190459999Y-85941999D03*
X192999999Y-83401999D03*
X192999999Y-85941999D03*
X195539999Y-83401999D03*
X195539999Y-85941999D03*
X198079999Y-83401999D03*
X198079999Y-85941999D03*
X200619999Y-83401999D03*
X200619999Y-85941999D03*
X203159999Y-83401999D03*
X203159999Y-85941999D03*
X205699999Y-83401999D03*
X205699999Y-85941999D03*
X208239999Y-83401999D03*
X208239999Y-85941999D03*
X210779999Y-83401999D03*
X210779999Y-85941999D03*
X213319999Y-83401999D03*
X213319999Y-85941999D03*
X215859999Y-83401999D03*
X215859999Y-85941999D03*
X218399999Y-83401999D03*
X218399999Y-85941999D03*
X220939999Y-83401999D03*
X220939999Y-85941999D03*
X223479999Y-83401999D03*
X223479999Y-85941999D03*
%TD*%
D24*
%TO.C,Q2*%
X210940000Y-63373000D03*
X213480000Y-63346000D03*
%TD*%
D19*
%TO.C,TP2*%
X220217999Y-68706999D03*
%TD*%
D22*
%TO.C,Q1*%
X213105999Y-77850999D03*
D23*
X214375999Y-77850999D03*
X215645999Y-77850999D03*
%TD*%
D22*
%TO.C,Q5*%
X199389999Y-77850999D03*
D23*
X200659999Y-77850999D03*
X201929999Y-77850999D03*
%TD*%
D28*
%TO.C,D2*%
X204469999Y-63218999D03*
D21*
X207010000Y-63219000D03*
%TD*%
M02*
