%TF.GenerationSoftware,KiCad,Pcbnew,8.0.1*%
%TF.CreationDate,2024-03-24T23:22:49+02:00*%
%TF.ProjectId,EEE3088F_2024_Group_52_Power,45454533-3038-4384-965f-323032345f47,rev?*%
%TF.SameCoordinates,Original*%
%TF.FileFunction,Copper,L1,Top*%
%TF.FilePolarity,Positive*%
%FSLAX46Y46*%
G04 Gerber Fmt 4.6, Leading zero omitted, Abs format (unit mm)*
G04 Created by KiCad (PCBNEW 8.0.1) date 2024-03-24 23:22:49*
%MOMM*%
%LPD*%
G01*
G04 APERTURE LIST*
G04 Aperture macros list*
%AMRoundRect*
0 Rectangle with rounded corners*
0 $1 Rounding radius*
0 $2 $3 $4 $5 $6 $7 $8 $9 X,Y pos of 4 corners*
0 Add a 4 corners polygon primitive as box body*
4,1,4,$2,$3,$4,$5,$6,$7,$8,$9,$2,$3,0*
0 Add four circle primitives for the rounded corners*
1,1,$1+$1,$2,$3*
1,1,$1+$1,$4,$5*
1,1,$1+$1,$6,$7*
1,1,$1+$1,$8,$9*
0 Add four rect primitives between the rounded corners*
20,1,$1+$1,$2,$3,$4,$5,0*
20,1,$1+$1,$4,$5,$6,$7,0*
20,1,$1+$1,$6,$7,$8,$9,0*
20,1,$1+$1,$8,$9,$2,$3,0*%
G04 Aperture macros list end*
%TA.AperFunction,ComponentPad*%
%ADD10O,1.700000X1.700000*%
%TD*%
%TA.AperFunction,ComponentPad*%
%ADD11R,1.700000X1.700000*%
%TD*%
%TA.AperFunction,SMDPad,CuDef*%
%ADD12RoundRect,0.200000X0.200000X0.275000X-0.200000X0.275000X-0.200000X-0.275000X0.200000X-0.275000X0*%
%TD*%
%TA.AperFunction,SMDPad,CuDef*%
%ADD13R,1.000000X1.500000*%
%TD*%
%TA.AperFunction,SMDPad,CuDef*%
%ADD14R,1.500000X1.000000*%
%TD*%
%TA.AperFunction,ComponentPad*%
%ADD15RoundRect,0.250000X-0.350000X-0.625000X0.350000X-0.625000X0.350000X0.625000X-0.350000X0.625000X0*%
%TD*%
%TA.AperFunction,ComponentPad*%
%ADD16O,1.200000X1.750000*%
%TD*%
%TA.AperFunction,SMDPad,CuDef*%
%ADD17RoundRect,0.225000X-0.250000X0.225000X-0.250000X-0.225000X0.250000X-0.225000X0.250000X0.225000X0*%
%TD*%
%TA.AperFunction,SMDPad,CuDef*%
%ADD18R,1.600000X0.900000*%
%TD*%
%TA.AperFunction,SMDPad,CuDef*%
%ADD19R,0.250000X0.520000*%
%TD*%
%TA.AperFunction,SMDPad,CuDef*%
%ADD20RoundRect,0.200000X-0.275000X0.200000X-0.275000X-0.200000X0.275000X-0.200000X0.275000X0.200000X0*%
%TD*%
%TA.AperFunction,SMDPad,CuDef*%
%ADD21RoundRect,0.200000X0.275000X-0.200000X0.275000X0.200000X-0.275000X0.200000X-0.275000X-0.200000X0*%
%TD*%
%TA.AperFunction,SMDPad,CuDef*%
%ADD22R,1.000000X0.600000*%
%TD*%
%TA.AperFunction,SMDPad,CuDef*%
%ADD23R,0.600000X1.200000*%
%TD*%
%TA.AperFunction,SMDPad,CuDef*%
%ADD24R,3.300000X2.400000*%
%TD*%
%TA.AperFunction,ComponentPad*%
%ADD25C,1.500000*%
%TD*%
%TA.AperFunction,SMDPad,CuDef*%
%ADD26R,1.000000X0.800000*%
%TD*%
%TA.AperFunction,SMDPad,CuDef*%
%ADD27R,0.700000X1.500000*%
%TD*%
%TA.AperFunction,ComponentPad*%
%ADD28C,0.900000*%
%TD*%
%TA.AperFunction,SMDPad,CuDef*%
%ADD29RoundRect,0.225000X0.250000X-0.225000X0.250000X0.225000X-0.250000X0.225000X-0.250000X-0.225000X0*%
%TD*%
%TA.AperFunction,ViaPad*%
%ADD30C,0.600000*%
%TD*%
%TA.AperFunction,Conductor*%
%ADD31C,0.400000*%
%TD*%
%TA.AperFunction,Conductor*%
%ADD32C,0.200000*%
%TD*%
G04 APERTURE END LIST*
D10*
%TO.P,J1,16,Pin_16*%
%TO.N,PWM4*%
X116095000Y-23735000D03*
%TO.P,J1,15,Pin_15*%
%TO.N,Motor1_B*%
X116095000Y-26275000D03*
%TO.P,J1,14,Pin_14*%
%TO.N,PWM3*%
X118635000Y-23735000D03*
%TO.P,J1,13,Pin_13*%
%TO.N,Motor1_A*%
X118635000Y-26275000D03*
%TO.P,J1,12,Pin_12*%
%TO.N,5V*%
X121175000Y-23735000D03*
%TO.P,J1,11,Pin_11*%
X121175000Y-26275000D03*
%TO.P,J1,10,Pin_10*%
%TO.N,BATT_ADC*%
X123715000Y-23735000D03*
%TO.P,J1,9,Pin_9*%
%TO.N,RESV*%
X123715000Y-26275000D03*
%TO.P,J1,8,Pin_8*%
%TO.N,VCC*%
X126255000Y-23735000D03*
%TO.P,J1,7,Pin_7*%
X126255000Y-26275000D03*
%TO.P,J1,6,Pin_6*%
%TO.N,GND*%
X128795000Y-23735000D03*
%TO.P,J1,5,Pin_5*%
X128795000Y-26275000D03*
%TO.P,J1,4,Pin_4*%
%TO.N,PWM2*%
X131335000Y-23735000D03*
%TO.P,J1,3,Pin_3*%
%TO.N,Motor2_B*%
X131335000Y-26275000D03*
%TO.P,J1,2,Pin_2*%
%TO.N,PWM1*%
X133875000Y-23735000D03*
D11*
%TO.P,J1,1,Pin_1*%
%TO.N,Motor2_A*%
X133875000Y-26275000D03*
%TD*%
D12*
%TO.P,R3,2*%
%TO.N,Net-(JP3-B)*%
X124675000Y-36000000D03*
%TO.P,R3,1*%
%TO.N,VCC*%
X126325000Y-36000000D03*
%TD*%
D13*
%TO.P,JP5,1,A*%
%TO.N,Net-(JP5-A)*%
X123200000Y-44750000D03*
%TO.P,JP5,2,B*%
%TO.N,Net-(JP5-B)*%
X125800000Y-44750000D03*
%TD*%
%TO.P,JP4,1,A*%
%TO.N,Net-(JP3-A)*%
X119950000Y-38750000D03*
%TO.P,JP4,2,B*%
%TO.N,Net-(JP4-B)*%
X122550000Y-38750000D03*
%TD*%
D14*
%TO.P,JP2,1,A*%
%TO.N,Net-(JP2-A)*%
X120250000Y-47050000D03*
%TO.P,JP2,2,B*%
%TO.N,GND*%
X120250000Y-44450000D03*
%TD*%
D13*
%TO.P,JP1,1,A*%
%TO.N,Net-(JP1-A)*%
X116550000Y-44750000D03*
%TO.P,JP1,2,B*%
%TO.N,BATT*%
X113950000Y-44750000D03*
%TD*%
%TO.P,JP3,1,A*%
%TO.N,Net-(JP3-A)*%
X119900000Y-36000000D03*
%TO.P,JP3,2,B*%
%TO.N,Net-(JP3-B)*%
X122500000Y-36000000D03*
%TD*%
D15*
%TO.P,J2,1,Pin_1*%
%TO.N,BATT*%
X139000000Y-49000000D03*
D16*
%TO.P,J2,2,Pin_2*%
%TO.N,GND*%
X141000000Y-49000000D03*
%TD*%
D17*
%TO.P,C3,2*%
%TO.N,GND*%
X116000000Y-20775000D03*
%TO.P,C3,1*%
%TO.N,VCC*%
X116000000Y-19225000D03*
%TD*%
%TO.P,C4,2*%
%TO.N,GND*%
X119000000Y-20775000D03*
%TO.P,C4,1*%
%TO.N,VCC*%
X119000000Y-19225000D03*
%TD*%
D18*
%TO.P,U3,9,PAD*%
%TO.N,GND*%
X113000000Y-20000000D03*
D19*
%TO.P,U3,8,VCC*%
%TO.N,VCC*%
X113750000Y-20950000D03*
%TO.P,U3,7,NSLEEP*%
X113250000Y-20950000D03*
%TO.P,U3,6,IN1*%
%TO.N,PWM3*%
X112750000Y-20950000D03*
%TO.P,U3,5,IN2*%
%TO.N,PWM4*%
X112250000Y-20950000D03*
%TO.P,U3,4,GND*%
%TO.N,GND*%
X112250000Y-19050000D03*
%TO.P,U3,3,OUT2*%
%TO.N,Motor1_B*%
X112750000Y-19050000D03*
%TO.P,U3,2,OUT1*%
%TO.N,Motor1_A*%
X113250000Y-19050000D03*
%TO.P,U3,1,VMIN*%
%TO.N,VCC*%
X113750000Y-19050000D03*
%TD*%
D20*
%TO.P,R5,1*%
%TO.N,Net-(U2-PROG)*%
X136560000Y-43175000D03*
%TO.P,R5,2*%
%TO.N,GND*%
X136560000Y-44825000D03*
%TD*%
D19*
%TO.P,U4,1,VMIN*%
%TO.N,VCC*%
X131750000Y-19100000D03*
%TO.P,U4,2,OUT1*%
%TO.N,Motor2_A*%
X131250000Y-19100000D03*
%TO.P,U4,3,OUT2*%
%TO.N,Motor2_B*%
X130750000Y-19100000D03*
%TO.P,U4,4,GND*%
%TO.N,GND*%
X130250000Y-19100000D03*
%TO.P,U4,5,IN2*%
%TO.N,PWM2*%
X130250000Y-21000000D03*
%TO.P,U4,6,IN1*%
%TO.N,PWM1*%
X130750000Y-21000000D03*
%TO.P,U4,7,NSLEEP*%
%TO.N,VCC*%
X131250000Y-21000000D03*
%TO.P,U4,8,VCC*%
X131750000Y-21000000D03*
D18*
%TO.P,U4,9,PAD*%
%TO.N,GND*%
X131000000Y-20050000D03*
%TD*%
D21*
%TO.P,R1,2*%
%TO.N,Net-(JP3-A)*%
X117150000Y-38175000D03*
%TO.P,R1,1*%
%TO.N,VCC*%
X117150000Y-39825000D03*
%TD*%
D22*
%TO.P,U1,1,+*%
%TO.N,Net-(JP3-A)*%
X114450000Y-37950000D03*
%TO.P,U1,2,V-*%
%TO.N,GND*%
X114450000Y-37000000D03*
%TO.P,U1,3,-*%
%TO.N,BATT_ADC*%
X114450000Y-36050000D03*
%TO.P,U1,4*%
X111850000Y-36050000D03*
%TO.P,U1,5,V+*%
%TO.N,VCC*%
X111850000Y-37950000D03*
%TD*%
D23*
%TO.P,U2,1,TEMP*%
%TO.N,GND*%
X137180000Y-40500000D03*
%TO.P,U2,2,PROG*%
%TO.N,Net-(U2-PROG)*%
X138450000Y-40500000D03*
%TO.P,U2,3,GND*%
%TO.N,GND*%
X139730000Y-40500000D03*
%TO.P,U2,4,VCC*%
%TO.N,5V*%
X141000000Y-40500000D03*
%TO.P,U2,5,BAT*%
%TO.N,BATT*%
X141000000Y-34680000D03*
%TO.P,U2,6,~{STDBY}*%
%TO.N,unconnected-(U2-~{STDBY}-Pad6)*%
X139730000Y-34680000D03*
%TO.P,U2,7,~{CHRG}*%
%TO.N,unconnected-(U2-~{CHRG}-Pad7)*%
X138450000Y-34680000D03*
%TO.P,U2,8,CE*%
%TO.N,5V*%
X137180000Y-34680000D03*
D24*
%TO.P,U2,9,EP*%
%TO.N,GND*%
X139090000Y-37590000D03*
%TD*%
D25*
%TO.P,TP16,1,1*%
%TO.N,BATT*%
X134500000Y-49000000D03*
%TD*%
%TO.P,TP13,1,1*%
%TO.N,5V*%
X134560000Y-34334000D03*
%TD*%
%TO.P,TP4,1,1*%
%TO.N,VCC*%
X128736000Y-51500000D03*
%TD*%
%TO.P,TP2,1,1*%
%TO.N,BATT_ADC*%
X112000000Y-33000000D03*
%TD*%
%TO.P,TP1,1,1*%
%TO.N,Net-(JP3-A)*%
X119750000Y-32250000D03*
%TD*%
D26*
%TO.P,SW1,5,5*%
%TO.N,GND*%
X123500000Y-53500000D03*
X123500000Y-51300000D03*
%TO.P,SW1,4,4*%
X118000000Y-53500000D03*
X118000000Y-51300000D03*
D27*
%TO.P,SW1,3,3*%
%TO.N,Net-(JP5-A)*%
X121750000Y-50600000D03*
%TO.P,SW1,2,2*%
%TO.N,Net-(JP2-A)*%
X120750000Y-50600000D03*
%TO.P,SW1,1,1*%
%TO.N,Net-(JP1-A)*%
X119750000Y-50600000D03*
D28*
%TO.P,SW1,*%
%TO.N,*%
X122250000Y-52400000D03*
X119250000Y-52400000D03*
%TD*%
D12*
%TO.P,R4,1*%
%TO.N,GND*%
X126325000Y-39000000D03*
%TO.P,R4,2*%
%TO.N,Net-(JP4-B)*%
X124675000Y-39000000D03*
%TD*%
D20*
%TO.P,R2,2*%
%TO.N,Net-(JP3-A)*%
X117150000Y-36825000D03*
%TO.P,R2,1*%
%TO.N,GND*%
X117150000Y-35175000D03*
%TD*%
D26*
%TO.P,Q1,3,D*%
%TO.N,BATT*%
X130886000Y-46500000D03*
%TO.P,Q1,2,S*%
%TO.N,VCC*%
X128586000Y-47450000D03*
%TO.P,Q1,1,G*%
%TO.N,Net-(JP5-B)*%
X128586000Y-45550000D03*
%TD*%
D17*
%TO.P,C6,1*%
%TO.N,VCC*%
X137000000Y-19275000D03*
%TO.P,C6,2*%
%TO.N,GND*%
X137000000Y-20825000D03*
%TD*%
%TO.P,C5,2*%
%TO.N,GND*%
X134000000Y-20825000D03*
%TO.P,C5,1*%
%TO.N,VCC*%
X134000000Y-19275000D03*
%TD*%
D29*
%TO.P,C2,1*%
%TO.N,BATT*%
X141560000Y-32334000D03*
%TO.P,C2,2*%
%TO.N,GND*%
X141560000Y-30784000D03*
%TD*%
D17*
%TO.P,C1,1*%
%TO.N,GND*%
X136560000Y-30784000D03*
%TO.P,C1,2*%
%TO.N,5V*%
X136560000Y-32334000D03*
%TD*%
D30*
%TO.N,GND*%
X134750000Y-43750000D03*
X135250000Y-40500000D03*
X139770000Y-43520000D03*
%TO.N,VCC*%
X126250000Y-32250000D03*
%TO.N,GND*%
X128750000Y-18500000D03*
X129000000Y-20000000D03*
X114750000Y-18000000D03*
X114563235Y-19813235D03*
%TO.N,5V*%
X141500000Y-42000000D03*
%TO.N,BATT*%
X143000000Y-44000000D03*
%TO.N,VCC*%
X130000000Y-42000000D03*
X120500000Y-19200000D03*
X127200000Y-47000000D03*
X132500000Y-21400000D03*
X132800000Y-19800000D03*
%TO.N,5V*%
X133500000Y-29300000D03*
X122200000Y-28600000D03*
%TO.N,BATT_ADC*%
X123000000Y-22000000D03*
%TO.N,BATT*%
X131100000Y-48900000D03*
X113900000Y-46900000D03*
%TO.N,Motor2_B*%
X135500000Y-18000000D03*
%TO.N,Motor2_A*%
X132800000Y-18300000D03*
%TO.N,Motor2_B*%
X136000000Y-25500000D03*
%TD*%
D31*
%TO.N,GND*%
X139750000Y-40520000D02*
X139750000Y-43500000D01*
X137200000Y-40520000D02*
X135250000Y-40500000D01*
%TO.N,Net-(JP3-B)*%
X122500000Y-36000000D02*
X124675000Y-36000000D01*
%TO.N,VCC*%
X126255000Y-35930000D02*
X126325000Y-36000000D01*
X126255000Y-26275000D02*
X126255000Y-35930000D01*
%TO.N,Net-(JP3-A)*%
X119950000Y-38750000D02*
X117725000Y-38750000D01*
X117725000Y-38750000D02*
X117150000Y-38175000D01*
%TO.N,Net-(JP4-B)*%
X122800000Y-39000000D02*
X122550000Y-38750000D01*
X124675000Y-39000000D02*
X122800000Y-39000000D01*
%TO.N,Net-(JP5-B)*%
X127786000Y-44750000D02*
X128586000Y-45550000D01*
X125800000Y-44750000D02*
X127786000Y-44750000D01*
%TO.N,Net-(JP5-A)*%
X123200000Y-49300000D02*
X123200000Y-44750000D01*
X121900000Y-50600000D02*
X123200000Y-49300000D01*
X121750000Y-50600000D02*
X121900000Y-50600000D01*
%TO.N,Net-(JP2-A)*%
X120750000Y-47550000D02*
X120250000Y-47050000D01*
X120750000Y-50600000D02*
X120750000Y-47550000D01*
%TO.N,BATT*%
X113950000Y-46850000D02*
X113900000Y-46900000D01*
X113950000Y-44750000D02*
X113950000Y-46850000D01*
%TO.N,Net-(JP3-A)*%
X119900000Y-32400000D02*
X119750000Y-32250000D01*
X119900000Y-36000000D02*
X119900000Y-32400000D01*
X119075000Y-36825000D02*
X119900000Y-36000000D01*
X117150000Y-36825000D02*
X119075000Y-36825000D01*
D32*
%TO.N,GND*%
X129350000Y-19100000D02*
X128750000Y-18500000D01*
X130250000Y-19100000D02*
X129350000Y-19100000D01*
D31*
X129050000Y-20050000D02*
X129000000Y-20000000D01*
X131000000Y-20050000D02*
X129050000Y-20050000D01*
X134000000Y-20825000D02*
X137000000Y-20825000D01*
X116000000Y-20775000D02*
X119000000Y-20775000D01*
D32*
X130715000Y-20050000D02*
X131000000Y-20050000D01*
X130250000Y-19585000D02*
X130715000Y-20050000D01*
X130250000Y-19100000D02*
X130250000Y-19585000D01*
X113000000Y-20000000D02*
X114376470Y-20000000D01*
X114376470Y-20000000D02*
X114563235Y-19813235D01*
%TO.N,Motor2_B*%
X135200000Y-17700000D02*
X135500000Y-18000000D01*
X130750000Y-18584314D02*
X131634315Y-17700000D01*
X131634315Y-17700000D02*
X135200000Y-17700000D01*
X130750000Y-19100000D02*
X130750000Y-18584314D01*
D31*
%TO.N,5V*%
X141000000Y-41500000D02*
X141500000Y-42000000D01*
X141000000Y-40500000D02*
X141000000Y-41500000D01*
%TO.N,BATT*%
X143000000Y-36680000D02*
X141000000Y-34680000D01*
X143000000Y-44000000D02*
X143000000Y-36680000D01*
%TO.N,BATT_ADC*%
X112000000Y-35900000D02*
X111850000Y-36050000D01*
X112000000Y-33000000D02*
X112000000Y-35900000D01*
%TO.N,VCC*%
X127150000Y-42000000D02*
X130000000Y-42000000D01*
D32*
%TO.N,PWM3*%
X117600000Y-21600000D02*
X118635000Y-22635000D01*
X118635000Y-22635000D02*
X118635000Y-23735000D01*
%TO.N,PWM4*%
X112250000Y-21500686D02*
X114484314Y-23735000D01*
%TO.N,Motor1_B*%
X111500000Y-21680000D02*
X116095000Y-26275000D01*
%TO.N,PWM3*%
X112915000Y-21600000D02*
X117600000Y-21600000D01*
X112750000Y-20950000D02*
X112750000Y-21435000D01*
X112750000Y-21435000D02*
X112915000Y-21600000D01*
%TO.N,PWM4*%
X112250000Y-20950000D02*
X112250000Y-21500686D01*
X114484314Y-23735000D02*
X116095000Y-23735000D01*
%TO.N,VCC*%
X113750000Y-20950000D02*
X114275000Y-20950000D01*
X114275000Y-20950000D02*
X116000000Y-19225000D01*
X115825000Y-19050000D02*
X116000000Y-19225000D01*
X113750000Y-19050000D02*
X115825000Y-19050000D01*
X119775000Y-19225000D02*
X120475000Y-19225000D01*
X120475000Y-19225000D02*
X120500000Y-19200000D01*
%TO.N,Motor1_A*%
X111634314Y-18000000D02*
X111100000Y-18534315D01*
X113250000Y-18499315D02*
X112750685Y-18000000D01*
X113250000Y-19050000D02*
X113250000Y-18499315D01*
X112750685Y-18000000D02*
X111634314Y-18000000D01*
%TO.N,GND*%
X112715000Y-20000000D02*
X113000000Y-20000000D01*
X112250000Y-19050000D02*
X112250000Y-19535000D01*
X112250000Y-19535000D02*
X112715000Y-20000000D01*
D31*
%TO.N,VCC*%
X116000000Y-19225000D02*
X119000000Y-19225000D01*
D32*
%TO.N,Motor1_B*%
X111500000Y-18700000D02*
X111500000Y-21680000D01*
X112750000Y-19050000D02*
X112750000Y-18565000D01*
X112750000Y-18565000D02*
X112585000Y-18400000D01*
X112585000Y-18400000D02*
X111800000Y-18400000D01*
X111800000Y-18400000D02*
X111500000Y-18700000D01*
%TO.N,VCC*%
X113250000Y-20950000D02*
X113750000Y-20950000D01*
X119000000Y-19225000D02*
X119775000Y-19225000D01*
%TO.N,Motor1_A*%
X116910000Y-28000000D02*
X118635000Y-26275000D01*
X111100000Y-24100000D02*
X115000000Y-28000000D01*
X115000000Y-28000000D02*
X116910000Y-28000000D01*
X111100000Y-18534315D02*
X111100000Y-24100000D01*
D31*
%TO.N,BATT_ADC*%
X111850000Y-36050000D02*
X114450000Y-36050000D01*
%TO.N,VCC*%
X127650000Y-47450000D02*
X127200000Y-47000000D01*
X128586000Y-47450000D02*
X127650000Y-47450000D01*
%TO.N,BATT*%
X131100000Y-48900000D02*
X131200000Y-48800000D01*
D32*
%TO.N,VCC*%
X132500000Y-21400000D02*
X132150000Y-21400000D01*
X132150000Y-21400000D02*
X131750000Y-21000000D01*
X132800000Y-19600000D02*
X132300000Y-19100000D01*
X132800000Y-19800000D02*
X132800000Y-19600000D01*
X132300000Y-19100000D02*
X133825000Y-19100000D01*
X131750000Y-19100000D02*
X132300000Y-19100000D01*
X131750000Y-21000000D02*
X131800000Y-21000000D01*
X131250000Y-21000000D02*
X131750000Y-21000000D01*
D31*
%TO.N,5V*%
X133500000Y-29274000D02*
X136560000Y-32334000D01*
X121175000Y-27575000D02*
X122200000Y-28600000D01*
X121175000Y-26275000D02*
X121175000Y-27575000D01*
%TO.N,BATT_ADC*%
X123715000Y-22715000D02*
X123000000Y-22000000D01*
X123715000Y-23735000D02*
X123715000Y-22715000D01*
%TO.N,BATT*%
X131750000Y-48250000D02*
X131750000Y-47250000D01*
X131100000Y-48900000D02*
X131750000Y-48250000D01*
X131000000Y-46500000D02*
X131750000Y-47250000D01*
D32*
%TO.N,Motor2_A*%
X131600000Y-18300000D02*
X132800000Y-18300000D01*
X131250000Y-18650000D02*
X131600000Y-18300000D01*
X131250000Y-19100000D02*
X131250000Y-18650000D01*
%TO.N,Motor2_B*%
X133060000Y-28000000D02*
X131335000Y-26275000D01*
X135000000Y-28000000D02*
X133060000Y-28000000D01*
X136000000Y-27000000D02*
X135000000Y-28000000D01*
X136000000Y-25500000D02*
X136000000Y-27000000D01*
%TO.N,PWM1*%
X130750000Y-21485000D02*
X130750000Y-21000000D01*
X133000000Y-22000000D02*
X131265000Y-22000000D01*
X134000000Y-23610000D02*
X134000000Y-23000000D01*
X134000000Y-23000000D02*
X133000000Y-22000000D01*
X133875000Y-23735000D02*
X134000000Y-23610000D01*
X131265000Y-22000000D02*
X130750000Y-21485000D01*
%TO.N,PWM2*%
X130250000Y-22650000D02*
X131335000Y-23735000D01*
X130250000Y-21000000D02*
X130250000Y-22650000D01*
D31*
%TO.N,BATT*%
X130886000Y-46500000D02*
X131000000Y-46500000D01*
%TO.N,Net-(JP1-A)*%
X116650000Y-47500000D02*
X119750000Y-50600000D01*
X116650000Y-45500000D02*
X116650000Y-47500000D01*
%TO.N,5V*%
X121175000Y-23735000D02*
X121175000Y-26275000D01*
%TO.N,GND*%
X128795000Y-23735000D02*
X128795000Y-26275000D01*
%TO.N,VCC*%
X126255000Y-23735000D02*
X126255000Y-26275000D01*
X119325000Y-42000000D02*
X117150000Y-39825000D01*
X127150000Y-42000000D02*
X119325000Y-42000000D01*
%TO.N,BATT_ADC*%
X111800000Y-36000000D02*
X111850000Y-36050000D01*
%TO.N,Net-(JP3-A)*%
X116025000Y-37950000D02*
X114450000Y-37950000D01*
X117150000Y-36825000D02*
X116025000Y-37950000D01*
X116925000Y-37950000D02*
X117150000Y-38175000D01*
X114450000Y-37950000D02*
X116925000Y-37950000D01*
%TO.N,VCC*%
X113725000Y-39825000D02*
X117150000Y-39825000D01*
X111850000Y-37950000D02*
X113725000Y-39825000D01*
%TO.N,Net-(U2-PROG)*%
X138450000Y-41444000D02*
X136560000Y-43334000D01*
X138450000Y-40500000D02*
X138450000Y-41444000D01*
%TO.N,BATT*%
X141000000Y-32894000D02*
X141000000Y-34680000D01*
%TO.N,5V*%
X137180000Y-32954000D02*
X136560000Y-32334000D01*
X137180000Y-34680000D02*
X137180000Y-32954000D01*
%TO.N,BATT*%
X141000000Y-32894000D02*
X141560000Y-32334000D01*
%TO.N,5V*%
X134906000Y-34680000D02*
X134560000Y-34334000D01*
X137180000Y-34680000D02*
X134906000Y-34680000D01*
%TO.N,Net-(JP2-A)*%
X120736000Y-47088000D02*
X120750000Y-47102000D01*
%TO.N,VCC*%
X128736000Y-51500000D02*
X128736000Y-47600000D01*
X128736000Y-47600000D02*
X128586000Y-47450000D01*
D32*
%TO.N,GND*%
X132775000Y-20825000D02*
X132000000Y-20050000D01*
X134000000Y-20825000D02*
X132775000Y-20825000D01*
X131000000Y-20050000D02*
X132000000Y-20050000D01*
D31*
%TO.N,VCC*%
X137000000Y-19275000D02*
X134000000Y-19275000D01*
%TD*%
%TA.AperFunction,Conductor*%
%TO.N,GND*%
G36*
X144006922Y-17501280D02*
G01*
X144097266Y-17511459D01*
X144124331Y-17517636D01*
X144203540Y-17545352D01*
X144228553Y-17557398D01*
X144299606Y-17602043D01*
X144321313Y-17619355D01*
X144380644Y-17678686D01*
X144397957Y-17700395D01*
X144442600Y-17771444D01*
X144454648Y-17796462D01*
X144482362Y-17875666D01*
X144488540Y-17902735D01*
X144498720Y-17993076D01*
X144499500Y-18006961D01*
X144499500Y-55993038D01*
X144498720Y-56006923D01*
X144488540Y-56097264D01*
X144482362Y-56124333D01*
X144454648Y-56203537D01*
X144442600Y-56228555D01*
X144397957Y-56299604D01*
X144380644Y-56321313D01*
X144321313Y-56380644D01*
X144299604Y-56397957D01*
X144228555Y-56442600D01*
X144203537Y-56454648D01*
X144124333Y-56482362D01*
X144097264Y-56488540D01*
X144017075Y-56497576D01*
X144006921Y-56498720D01*
X143993038Y-56499500D01*
X111006962Y-56499500D01*
X110993078Y-56498720D01*
X110980553Y-56497308D01*
X110902735Y-56488540D01*
X110875666Y-56482362D01*
X110796462Y-56454648D01*
X110771444Y-56442600D01*
X110700395Y-56397957D01*
X110678686Y-56380644D01*
X110619355Y-56321313D01*
X110602042Y-56299604D01*
X110557399Y-56228555D01*
X110545351Y-56203537D01*
X110517637Y-56124333D01*
X110511459Y-56097263D01*
X110501280Y-56006922D01*
X110500500Y-55993038D01*
X110500500Y-53750000D01*
X117000000Y-53750000D01*
X117000000Y-53947844D01*
X117006401Y-54007372D01*
X117006403Y-54007379D01*
X117056645Y-54142086D01*
X117056649Y-54142093D01*
X117142809Y-54257187D01*
X117142812Y-54257190D01*
X117257906Y-54343350D01*
X117257913Y-54343354D01*
X117392620Y-54393596D01*
X117392627Y-54393598D01*
X117452155Y-54399999D01*
X117452172Y-54400000D01*
X117750000Y-54400000D01*
X117750000Y-53750000D01*
X118250000Y-53750000D01*
X118250000Y-54400000D01*
X118547828Y-54400000D01*
X118547844Y-54399999D01*
X118607372Y-54393598D01*
X118607379Y-54393596D01*
X118742086Y-54343354D01*
X118742093Y-54343350D01*
X118857187Y-54257190D01*
X118857190Y-54257187D01*
X118943350Y-54142093D01*
X118943354Y-54142086D01*
X118993596Y-54007379D01*
X118993598Y-54007372D01*
X118999999Y-53947844D01*
X119000000Y-53947827D01*
X119000000Y-53750000D01*
X122500000Y-53750000D01*
X122500000Y-53947844D01*
X122506401Y-54007372D01*
X122506403Y-54007379D01*
X122556645Y-54142086D01*
X122556649Y-54142093D01*
X122642809Y-54257187D01*
X122642812Y-54257190D01*
X122757906Y-54343350D01*
X122757913Y-54343354D01*
X122892620Y-54393596D01*
X122892627Y-54393598D01*
X122952155Y-54399999D01*
X122952172Y-54400000D01*
X123250000Y-54400000D01*
X123250000Y-53750000D01*
X123750000Y-53750000D01*
X123750000Y-54400000D01*
X124047828Y-54400000D01*
X124047844Y-54399999D01*
X124107372Y-54393598D01*
X124107379Y-54393596D01*
X124242086Y-54343354D01*
X124242093Y-54343350D01*
X124357187Y-54257190D01*
X124357190Y-54257187D01*
X124443350Y-54142093D01*
X124443354Y-54142086D01*
X124493596Y-54007379D01*
X124493598Y-54007372D01*
X124499999Y-53947844D01*
X124500000Y-53947827D01*
X124500000Y-53750000D01*
X123750000Y-53750000D01*
X123250000Y-53750000D01*
X122500000Y-53750000D01*
X119000000Y-53750000D01*
X118250000Y-53750000D01*
X117750000Y-53750000D01*
X117000000Y-53750000D01*
X110500500Y-53750000D01*
X110500500Y-53250000D01*
X117000000Y-53250000D01*
X117750000Y-53250000D01*
X117750000Y-52600000D01*
X117452155Y-52600000D01*
X117392627Y-52606401D01*
X117392620Y-52606403D01*
X117257913Y-52656645D01*
X117257906Y-52656649D01*
X117142812Y-52742809D01*
X117142809Y-52742812D01*
X117056649Y-52857906D01*
X117056645Y-52857913D01*
X117006403Y-52992620D01*
X117006401Y-52992627D01*
X117000000Y-53052155D01*
X117000000Y-53250000D01*
X110500500Y-53250000D01*
X110500500Y-51550000D01*
X117000000Y-51550000D01*
X117000000Y-51747844D01*
X117006401Y-51807372D01*
X117006403Y-51807379D01*
X117056645Y-51942086D01*
X117056649Y-51942093D01*
X117142809Y-52057187D01*
X117142812Y-52057190D01*
X117257906Y-52143350D01*
X117257913Y-52143354D01*
X117392620Y-52193596D01*
X117392627Y-52193598D01*
X117452155Y-52199999D01*
X117452172Y-52200000D01*
X117750000Y-52200000D01*
X117750000Y-51550000D01*
X117000000Y-51550000D01*
X110500500Y-51550000D01*
X110500500Y-51050000D01*
X117000000Y-51050000D01*
X117750000Y-51050000D01*
X117750000Y-50400000D01*
X117452155Y-50400000D01*
X117392627Y-50406401D01*
X117392620Y-50406403D01*
X117257913Y-50456645D01*
X117257906Y-50456649D01*
X117142812Y-50542809D01*
X117142809Y-50542812D01*
X117056649Y-50657906D01*
X117056645Y-50657913D01*
X117006403Y-50792620D01*
X117006401Y-50792627D01*
X117000000Y-50852155D01*
X117000000Y-51050000D01*
X110500500Y-51050000D01*
X110500500Y-45547870D01*
X112949500Y-45547870D01*
X112949501Y-45547876D01*
X112955908Y-45607483D01*
X113006202Y-45742328D01*
X113006206Y-45742335D01*
X113075358Y-45834709D01*
X113092454Y-45857546D01*
X113199811Y-45937914D01*
X113241682Y-45993847D01*
X113249500Y-46037180D01*
X113249500Y-46394931D01*
X113230494Y-46460903D01*
X113174211Y-46550477D01*
X113174209Y-46550481D01*
X113114633Y-46720737D01*
X113114630Y-46720750D01*
X113094435Y-46899996D01*
X113094435Y-46900003D01*
X113114630Y-47079249D01*
X113114631Y-47079254D01*
X113174211Y-47249523D01*
X113179253Y-47257547D01*
X113270184Y-47402262D01*
X113397738Y-47529816D01*
X113460093Y-47568996D01*
X113548426Y-47624500D01*
X113550478Y-47625789D01*
X113720745Y-47685368D01*
X113720750Y-47685369D01*
X113899996Y-47705565D01*
X113900000Y-47705565D01*
X113900004Y-47705565D01*
X114079249Y-47685369D01*
X114079252Y-47685368D01*
X114079255Y-47685368D01*
X114249522Y-47625789D01*
X114402262Y-47529816D01*
X114529816Y-47402262D01*
X114625789Y-47249522D01*
X114685368Y-47079255D01*
X114685369Y-47079249D01*
X114705565Y-46900003D01*
X114705565Y-46899996D01*
X114692100Y-46780496D01*
X114685368Y-46720745D01*
X114657458Y-46640982D01*
X114650500Y-46600028D01*
X114650500Y-46037180D01*
X114670185Y-45970141D01*
X114700187Y-45937914D01*
X114807546Y-45857546D01*
X114893796Y-45742331D01*
X114944091Y-45607483D01*
X114950500Y-45547873D01*
X114950500Y-45547870D01*
X115549500Y-45547870D01*
X115549501Y-45547876D01*
X115555908Y-45607483D01*
X115606202Y-45742328D01*
X115606206Y-45742335D01*
X115692452Y-45857544D01*
X115692455Y-45857547D01*
X115807664Y-45943793D01*
X115807669Y-45943796D01*
X115868833Y-45966608D01*
X115924766Y-46008478D01*
X115949184Y-46073942D01*
X115949500Y-46082790D01*
X115949500Y-47431006D01*
X115949500Y-47568994D01*
X115949500Y-47568996D01*
X115949499Y-47568996D01*
X115976418Y-47704322D01*
X115976421Y-47704332D01*
X116029222Y-47831807D01*
X116105887Y-47946545D01*
X116105888Y-47946546D01*
X118347662Y-50188319D01*
X118381147Y-50249642D01*
X118376163Y-50319334D01*
X118334291Y-50375267D01*
X118268827Y-50399684D01*
X118259981Y-50400000D01*
X118250000Y-50400000D01*
X118250000Y-52200000D01*
X118263181Y-52213181D01*
X118296666Y-52274504D01*
X118299500Y-52300862D01*
X118299500Y-52347212D01*
X118298903Y-52359366D01*
X118294901Y-52399999D01*
X118298903Y-52440632D01*
X118299500Y-52452786D01*
X118299500Y-52499138D01*
X118279815Y-52566177D01*
X118263181Y-52586819D01*
X118250000Y-52600000D01*
X118250000Y-53250000D01*
X118792830Y-53250000D01*
X118851284Y-53264642D01*
X118884499Y-53282396D01*
X118923568Y-53294248D01*
X118935024Y-53298346D01*
X118972749Y-53313973D01*
X119012811Y-53321941D01*
X119024590Y-53324892D01*
X119063669Y-53336747D01*
X119104304Y-53340748D01*
X119116336Y-53342533D01*
X119126728Y-53344600D01*
X119156381Y-53350500D01*
X119156384Y-53350500D01*
X119197213Y-53350500D01*
X119209367Y-53351097D01*
X119250000Y-53355099D01*
X119290633Y-53351097D01*
X119302787Y-53350500D01*
X119343620Y-53350500D01*
X119383660Y-53342534D01*
X119395700Y-53340747D01*
X119436331Y-53336747D01*
X119475395Y-53324896D01*
X119487199Y-53321940D01*
X119507938Y-53317814D01*
X119527251Y-53313973D01*
X119564985Y-53298342D01*
X119576432Y-53294247D01*
X119615501Y-53282396D01*
X119651511Y-53263146D01*
X119662500Y-53257949D01*
X119700231Y-53242322D01*
X119734190Y-53219630D01*
X119744616Y-53213382D01*
X119780625Y-53194136D01*
X119812190Y-53168230D01*
X119821959Y-53160984D01*
X119855908Y-53138302D01*
X119884794Y-53109415D01*
X119893780Y-53101270D01*
X119925357Y-53075357D01*
X119951270Y-53043780D01*
X119959415Y-53034794D01*
X119988302Y-53005908D01*
X120010984Y-52971959D01*
X120018231Y-52962189D01*
X120044136Y-52930625D01*
X120063385Y-52894609D01*
X120069636Y-52884181D01*
X120092322Y-52850231D01*
X120107949Y-52812500D01*
X120113146Y-52801511D01*
X120132396Y-52765501D01*
X120144248Y-52726429D01*
X120148345Y-52714978D01*
X120163973Y-52677251D01*
X120171939Y-52637202D01*
X120171940Y-52637199D01*
X120174897Y-52625393D01*
X120180658Y-52606403D01*
X120186747Y-52586331D01*
X120190749Y-52545692D01*
X120192534Y-52533660D01*
X120200500Y-52493620D01*
X120200500Y-52452786D01*
X120201097Y-52440632D01*
X120205099Y-52400000D01*
X120201097Y-52359366D01*
X120200500Y-52347212D01*
X120200500Y-52306380D01*
X120192534Y-52266341D01*
X120190747Y-52254295D01*
X120188731Y-52233823D01*
X120186747Y-52213669D01*
X120174892Y-52174590D01*
X120171941Y-52162811D01*
X120163973Y-52122749D01*
X120148344Y-52085018D01*
X120144248Y-52073568D01*
X120132397Y-52034501D01*
X120132396Y-52034499D01*
X120126399Y-52023280D01*
X120112155Y-51954880D01*
X120137153Y-51889636D01*
X120193456Y-51848263D01*
X120207244Y-51844148D01*
X120215036Y-51842307D01*
X120215382Y-51843775D01*
X120276342Y-51839408D01*
X120291378Y-51843822D01*
X120292513Y-51844089D01*
X120292517Y-51844091D01*
X120352127Y-51850500D01*
X121147872Y-51850499D01*
X121207483Y-51844091D01*
X121207485Y-51844090D01*
X121207487Y-51844090D01*
X121215031Y-51842308D01*
X121215377Y-51843775D01*
X121276342Y-51839408D01*
X121291367Y-51843818D01*
X121292509Y-51844088D01*
X121292517Y-51844091D01*
X121292524Y-51844091D01*
X121292741Y-51844143D01*
X121293027Y-51844305D01*
X121293341Y-51844398D01*
X121299793Y-51846805D01*
X121299376Y-51847920D01*
X121353462Y-51878708D01*
X121385857Y-51940614D01*
X121379640Y-52010206D01*
X121373605Y-52023271D01*
X121367602Y-52034502D01*
X121355750Y-52073569D01*
X121351654Y-52085018D01*
X121336026Y-52122750D01*
X121328060Y-52162797D01*
X121325104Y-52174598D01*
X121313253Y-52213666D01*
X121313253Y-52213668D01*
X121309250Y-52254307D01*
X121307465Y-52266339D01*
X121300599Y-52300862D01*
X121299500Y-52306385D01*
X121299500Y-52347212D01*
X121298903Y-52359366D01*
X121294901Y-52399999D01*
X121298903Y-52440632D01*
X121299500Y-52452786D01*
X121299500Y-52493620D01*
X121307464Y-52533657D01*
X121309250Y-52545692D01*
X121313253Y-52586331D01*
X121313253Y-52586333D01*
X121325104Y-52625402D01*
X121328060Y-52637202D01*
X121336025Y-52677246D01*
X121336027Y-52677252D01*
X121351652Y-52714973D01*
X121355745Y-52726412D01*
X121365376Y-52758159D01*
X121367605Y-52765505D01*
X121386847Y-52801503D01*
X121392050Y-52812502D01*
X121407678Y-52850231D01*
X121407680Y-52850235D01*
X121430362Y-52884181D01*
X121436617Y-52894617D01*
X121455864Y-52930625D01*
X121455865Y-52930626D01*
X121455864Y-52930626D01*
X121481765Y-52962186D01*
X121489014Y-52971960D01*
X121511697Y-53005907D01*
X121511700Y-53005911D01*
X121540566Y-53034777D01*
X121548738Y-53043792D01*
X121574644Y-53075358D01*
X121606205Y-53101259D01*
X121615213Y-53109423D01*
X121644092Y-53138302D01*
X121678040Y-53160986D01*
X121687813Y-53168234D01*
X121707037Y-53184010D01*
X121719375Y-53194136D01*
X121755383Y-53213382D01*
X121765818Y-53219636D01*
X121778013Y-53227785D01*
X121799768Y-53242322D01*
X121837491Y-53257947D01*
X121848493Y-53263150D01*
X121884499Y-53282396D01*
X121897702Y-53286401D01*
X121923568Y-53294248D01*
X121935024Y-53298346D01*
X121972749Y-53313973D01*
X122012811Y-53321941D01*
X122024590Y-53324892D01*
X122063669Y-53336747D01*
X122104304Y-53340748D01*
X122116336Y-53342533D01*
X122126728Y-53344600D01*
X122156381Y-53350500D01*
X122156384Y-53350500D01*
X122197213Y-53350500D01*
X122209367Y-53351097D01*
X122250000Y-53355099D01*
X122290633Y-53351097D01*
X122302787Y-53350500D01*
X122343620Y-53350500D01*
X122383660Y-53342534D01*
X122395700Y-53340747D01*
X122436331Y-53336747D01*
X122475395Y-53324896D01*
X122487199Y-53321940D01*
X122507938Y-53317814D01*
X122527251Y-53313973D01*
X122564985Y-53298342D01*
X122576432Y-53294247D01*
X122615501Y-53282396D01*
X122648713Y-53264642D01*
X122707168Y-53250000D01*
X123250000Y-53250000D01*
X123250000Y-52600000D01*
X123750000Y-52600000D01*
X123750000Y-53250000D01*
X124500000Y-53250000D01*
X124500000Y-53052172D01*
X124499999Y-53052155D01*
X124493598Y-52992627D01*
X124493596Y-52992620D01*
X124443354Y-52857913D01*
X124443350Y-52857906D01*
X124357190Y-52742812D01*
X124357187Y-52742809D01*
X124242093Y-52656649D01*
X124242086Y-52656645D01*
X124107379Y-52606403D01*
X124107372Y-52606401D01*
X124047844Y-52600000D01*
X123750000Y-52600000D01*
X123250000Y-52600000D01*
X123236819Y-52586819D01*
X123203334Y-52525496D01*
X123200500Y-52499138D01*
X123200500Y-52452786D01*
X123201097Y-52440632D01*
X123205099Y-52400000D01*
X123201097Y-52359366D01*
X123200500Y-52347212D01*
X123200500Y-52300862D01*
X123220185Y-52233823D01*
X123236819Y-52213181D01*
X123250000Y-52200000D01*
X123250000Y-51550000D01*
X123750000Y-51550000D01*
X123750000Y-52200000D01*
X124047828Y-52200000D01*
X124047844Y-52199999D01*
X124107372Y-52193598D01*
X124107379Y-52193596D01*
X124242086Y-52143354D01*
X124242093Y-52143350D01*
X124357187Y-52057190D01*
X124357190Y-52057187D01*
X124443350Y-51942093D01*
X124443354Y-51942086D01*
X124493596Y-51807379D01*
X124493598Y-51807372D01*
X124499999Y-51747844D01*
X124500000Y-51747827D01*
X124500000Y-51550000D01*
X123750000Y-51550000D01*
X123250000Y-51550000D01*
X123250000Y-50400000D01*
X123750000Y-50400000D01*
X123750000Y-51050000D01*
X124500000Y-51050000D01*
X124500000Y-50852172D01*
X124499999Y-50852155D01*
X124493598Y-50792627D01*
X124493596Y-50792620D01*
X124443354Y-50657913D01*
X124443350Y-50657906D01*
X124357190Y-50542812D01*
X124357187Y-50542809D01*
X124242093Y-50456649D01*
X124242086Y-50456645D01*
X124107379Y-50406403D01*
X124107372Y-50406401D01*
X124047844Y-50400000D01*
X123750000Y-50400000D01*
X123250000Y-50400000D01*
X123250000Y-50393341D01*
X123224524Y-50346686D01*
X123229508Y-50276994D01*
X123258007Y-50232648D01*
X123744114Y-49746543D01*
X123820775Y-49631811D01*
X123823270Y-49625789D01*
X123861876Y-49532584D01*
X123873580Y-49504328D01*
X123888500Y-49429322D01*
X123900500Y-49368996D01*
X123900500Y-46037180D01*
X123920185Y-45970141D01*
X123950187Y-45937914D01*
X124057546Y-45857546D01*
X124143796Y-45742331D01*
X124194091Y-45607483D01*
X124200500Y-45547873D01*
X124200500Y-45547870D01*
X124799500Y-45547870D01*
X124799501Y-45547876D01*
X124805908Y-45607483D01*
X124856202Y-45742328D01*
X124856206Y-45742335D01*
X124942452Y-45857544D01*
X124942455Y-45857547D01*
X125057664Y-45943793D01*
X125057671Y-45943797D01*
X125192517Y-45994091D01*
X125192516Y-45994091D01*
X125199444Y-45994835D01*
X125252127Y-46000500D01*
X126347872Y-46000499D01*
X126407483Y-45994091D01*
X126542331Y-45943796D01*
X126657546Y-45857546D01*
X126743796Y-45742331D01*
X126794091Y-45607483D01*
X126799062Y-45561242D01*
X126825799Y-45496694D01*
X126883191Y-45456846D01*
X126922351Y-45450500D01*
X127444481Y-45450500D01*
X127511520Y-45470185D01*
X127532162Y-45486819D01*
X127549181Y-45503838D01*
X127582666Y-45565161D01*
X127585500Y-45591519D01*
X127585500Y-45997870D01*
X127585501Y-45997876D01*
X127591909Y-46057484D01*
X127598858Y-46076117D01*
X127603840Y-46145808D01*
X127570354Y-46207131D01*
X127509030Y-46240614D01*
X127441721Y-46236489D01*
X127379257Y-46214632D01*
X127379249Y-46214630D01*
X127200004Y-46194435D01*
X127199996Y-46194435D01*
X127020750Y-46214630D01*
X127020745Y-46214631D01*
X126850476Y-46274211D01*
X126697737Y-46370184D01*
X126570184Y-46497737D01*
X126474211Y-46650476D01*
X126414631Y-46820745D01*
X126414630Y-46820750D01*
X126394435Y-46999996D01*
X126394435Y-47000003D01*
X126414630Y-47179249D01*
X126414631Y-47179254D01*
X126474211Y-47349523D01*
X126570184Y-47502262D01*
X126697738Y-47629816D01*
X126850478Y-47725789D01*
X126953984Y-47762007D01*
X127000710Y-47791367D01*
X127203453Y-47994111D01*
X127203454Y-47994112D01*
X127318192Y-48070777D01*
X127444240Y-48122987D01*
X127445672Y-48123580D01*
X127445676Y-48123580D01*
X127445677Y-48123581D01*
X127581003Y-48150500D01*
X127581006Y-48150500D01*
X127581007Y-48150500D01*
X127623680Y-48150500D01*
X127690719Y-48170185D01*
X127722948Y-48200191D01*
X127728454Y-48207546D01*
X127728457Y-48207548D01*
X127843664Y-48293793D01*
X127843673Y-48293798D01*
X127954832Y-48335257D01*
X128010766Y-48377127D01*
X128035184Y-48442592D01*
X128035500Y-48451439D01*
X128035500Y-50399365D01*
X128015815Y-50466404D01*
X127982624Y-50500939D01*
X127929130Y-50538396D01*
X127929127Y-50538398D01*
X127774400Y-50693124D01*
X127648900Y-50872357D01*
X127648898Y-50872361D01*
X127556426Y-51070668D01*
X127556422Y-51070677D01*
X127499793Y-51282020D01*
X127499793Y-51282024D01*
X127480723Y-51499997D01*
X127480723Y-51500002D01*
X127499793Y-51717975D01*
X127499793Y-51717979D01*
X127556422Y-51929322D01*
X127556424Y-51929326D01*
X127556425Y-51929330D01*
X127586171Y-51993120D01*
X127648897Y-52127638D01*
X127648898Y-52127639D01*
X127774402Y-52306877D01*
X127929123Y-52461598D01*
X128108361Y-52587102D01*
X128306670Y-52679575D01*
X128518023Y-52736207D01*
X128700926Y-52752208D01*
X128735998Y-52755277D01*
X128736000Y-52755277D01*
X128736002Y-52755277D01*
X128764254Y-52752805D01*
X128953977Y-52736207D01*
X129165330Y-52679575D01*
X129363639Y-52587102D01*
X129542877Y-52461598D01*
X129697598Y-52306877D01*
X129823102Y-52127639D01*
X129915575Y-51929330D01*
X129972207Y-51717977D01*
X129991277Y-51500000D01*
X129972207Y-51282023D01*
X129915575Y-51070670D01*
X129823102Y-50872362D01*
X129823100Y-50872359D01*
X129823099Y-50872357D01*
X129697599Y-50693124D01*
X129662381Y-50657906D01*
X129542877Y-50538402D01*
X129542872Y-50538399D01*
X129542869Y-50538396D01*
X129489376Y-50500939D01*
X129445751Y-50446362D01*
X129436500Y-50399365D01*
X129436500Y-48258230D01*
X129456185Y-48191191D01*
X129461233Y-48183919D01*
X129468500Y-48174212D01*
X129529796Y-48092331D01*
X129580091Y-47957483D01*
X129586500Y-47897873D01*
X129586499Y-47002128D01*
X129580666Y-46947870D01*
X129885500Y-46947870D01*
X129885501Y-46947876D01*
X129891908Y-47007483D01*
X129942202Y-47142328D01*
X129942206Y-47142335D01*
X130028452Y-47257544D01*
X130028455Y-47257547D01*
X130143664Y-47343793D01*
X130143671Y-47343797D01*
X130188618Y-47360561D01*
X130278517Y-47394091D01*
X130338127Y-47400500D01*
X130858480Y-47400499D01*
X130925519Y-47420183D01*
X130946161Y-47436818D01*
X131013181Y-47503838D01*
X131046666Y-47565161D01*
X131049500Y-47591519D01*
X131049500Y-47908479D01*
X131029815Y-47975518D01*
X131013181Y-47996160D01*
X130900708Y-48108633D01*
X130853982Y-48137993D01*
X130750478Y-48174210D01*
X130750475Y-48174212D01*
X130597737Y-48270184D01*
X130470184Y-48397737D01*
X130374211Y-48550476D01*
X130314631Y-48720745D01*
X130314630Y-48720750D01*
X130294435Y-48899996D01*
X130294435Y-48900003D01*
X130314630Y-49079249D01*
X130314631Y-49079254D01*
X130374211Y-49249523D01*
X130453054Y-49375000D01*
X130470184Y-49402262D01*
X130597738Y-49529816D01*
X130750478Y-49625789D01*
X130920745Y-49685368D01*
X130920750Y-49685369D01*
X131099996Y-49705565D01*
X131100000Y-49705565D01*
X131100004Y-49705565D01*
X131279249Y-49685369D01*
X131279252Y-49685368D01*
X131279255Y-49685368D01*
X131449522Y-49625789D01*
X131602262Y-49529816D01*
X131729816Y-49402262D01*
X131825789Y-49249522D01*
X131862007Y-49146013D01*
X131891363Y-49099292D01*
X131990653Y-49000002D01*
X133244723Y-49000002D01*
X133263793Y-49217975D01*
X133263793Y-49217979D01*
X133320422Y-49429322D01*
X133320424Y-49429326D01*
X133320425Y-49429330D01*
X133355394Y-49504322D01*
X133412897Y-49627638D01*
X133412898Y-49627639D01*
X133538402Y-49806877D01*
X133693123Y-49961598D01*
X133872361Y-50087102D01*
X134070670Y-50179575D01*
X134282023Y-50236207D01*
X134464926Y-50252208D01*
X134499998Y-50255277D01*
X134500000Y-50255277D01*
X134500002Y-50255277D01*
X134528254Y-50252805D01*
X134717977Y-50236207D01*
X134929330Y-50179575D01*
X135127639Y-50087102D01*
X135306877Y-49961598D01*
X135461598Y-49806877D01*
X135553939Y-49675001D01*
X137899500Y-49675001D01*
X137899501Y-49675018D01*
X137910000Y-49777796D01*
X137910001Y-49777799D01*
X137965185Y-49944331D01*
X137965186Y-49944334D01*
X138057288Y-50093656D01*
X138181344Y-50217712D01*
X138330666Y-50309814D01*
X138497203Y-50364999D01*
X138599991Y-50375500D01*
X139400008Y-50375499D01*
X139400016Y-50375498D01*
X139400019Y-50375498D01*
X139456302Y-50369748D01*
X139502797Y-50364999D01*
X139669334Y-50309814D01*
X139818656Y-50217712D01*
X139942712Y-50093656D01*
X139982581Y-50029016D01*
X140034525Y-49982294D01*
X140103488Y-49971071D01*
X140167570Y-49998914D01*
X140175799Y-50006434D01*
X140283397Y-50114032D01*
X140423475Y-50215804D01*
X140577744Y-50294408D01*
X140742415Y-50347914D01*
X140742414Y-50347914D01*
X140749999Y-50349115D01*
X140750000Y-50349114D01*
X140750000Y-49280330D01*
X140769745Y-49300075D01*
X140855255Y-49349444D01*
X140950630Y-49375000D01*
X141049370Y-49375000D01*
X141144745Y-49349444D01*
X141230255Y-49300075D01*
X141250000Y-49280330D01*
X141250000Y-50349115D01*
X141257584Y-50347914D01*
X141422255Y-50294408D01*
X141576524Y-50215804D01*
X141716602Y-50114032D01*
X141839032Y-49991602D01*
X141940804Y-49851524D01*
X142019408Y-49697257D01*
X142072914Y-49532584D01*
X142100000Y-49361571D01*
X142100000Y-49250000D01*
X141280330Y-49250000D01*
X141300075Y-49230255D01*
X141349444Y-49144745D01*
X141375000Y-49049370D01*
X141375000Y-48950630D01*
X141349444Y-48855255D01*
X141300075Y-48769745D01*
X141280330Y-48750000D01*
X142100000Y-48750000D01*
X142100000Y-48638428D01*
X142072914Y-48467415D01*
X142019408Y-48302742D01*
X141940804Y-48148475D01*
X141839032Y-48008397D01*
X141716602Y-47885967D01*
X141576524Y-47784195D01*
X141422257Y-47705591D01*
X141257589Y-47652087D01*
X141257581Y-47652085D01*
X141250000Y-47650884D01*
X141250000Y-48719670D01*
X141230255Y-48699925D01*
X141144745Y-48650556D01*
X141049370Y-48625000D01*
X140950630Y-48625000D01*
X140855255Y-48650556D01*
X140769745Y-48699925D01*
X140750000Y-48719670D01*
X140750000Y-47650884D01*
X140749999Y-47650884D01*
X140742418Y-47652085D01*
X140742410Y-47652087D01*
X140577742Y-47705591D01*
X140423475Y-47784195D01*
X140283401Y-47885964D01*
X140175799Y-47993566D01*
X140114476Y-48027050D01*
X140044784Y-48022066D01*
X139988851Y-47980194D01*
X139982585Y-47970988D01*
X139942712Y-47906344D01*
X139818656Y-47782288D01*
X139694310Y-47705591D01*
X139669336Y-47690187D01*
X139669331Y-47690185D01*
X139654794Y-47685368D01*
X139502797Y-47635001D01*
X139502795Y-47635000D01*
X139400010Y-47624500D01*
X138599998Y-47624500D01*
X138599980Y-47624501D01*
X138497203Y-47635000D01*
X138497200Y-47635001D01*
X138330668Y-47690185D01*
X138330663Y-47690187D01*
X138181342Y-47782289D01*
X138057289Y-47906342D01*
X137965187Y-48055663D01*
X137965185Y-48055668D01*
X137953037Y-48092328D01*
X137910001Y-48222203D01*
X137910001Y-48222204D01*
X137910000Y-48222204D01*
X137899500Y-48324983D01*
X137899500Y-49675001D01*
X135553939Y-49675001D01*
X135587102Y-49627639D01*
X135679575Y-49429330D01*
X135736207Y-49217977D01*
X135755277Y-49000000D01*
X135736207Y-48782023D01*
X135679575Y-48570670D01*
X135587102Y-48372362D01*
X135587100Y-48372359D01*
X135587099Y-48372357D01*
X135461599Y-48193124D01*
X135391462Y-48122987D01*
X135306877Y-48038402D01*
X135127639Y-47912898D01*
X135127640Y-47912898D01*
X135127638Y-47912897D01*
X135028484Y-47866661D01*
X134929330Y-47820425D01*
X134929326Y-47820424D01*
X134929322Y-47820422D01*
X134717977Y-47763793D01*
X134500002Y-47744723D01*
X134499998Y-47744723D01*
X134400887Y-47753394D01*
X134282023Y-47763793D01*
X134282020Y-47763793D01*
X134070677Y-47820422D01*
X134070668Y-47820426D01*
X133872361Y-47912898D01*
X133872357Y-47912900D01*
X133693121Y-48038402D01*
X133538402Y-48193121D01*
X133412900Y-48372357D01*
X133412898Y-48372361D01*
X133320426Y-48570668D01*
X133320422Y-48570677D01*
X133263793Y-48782020D01*
X133263793Y-48782024D01*
X133244723Y-48999997D01*
X133244723Y-49000002D01*
X131990653Y-49000002D01*
X132294114Y-48696543D01*
X132370775Y-48581811D01*
X132383755Y-48550476D01*
X132423578Y-48454332D01*
X132423580Y-48454328D01*
X132434837Y-48397737D01*
X132450500Y-48318996D01*
X132450500Y-47181004D01*
X132423581Y-47045677D01*
X132423580Y-47045676D01*
X132423580Y-47045672D01*
X132423578Y-47045667D01*
X132406113Y-47003503D01*
X132406093Y-47003456D01*
X132405543Y-47002129D01*
X132380852Y-46942517D01*
X132370778Y-46918195D01*
X132370776Y-46918192D01*
X132370775Y-46918189D01*
X132294114Y-46803457D01*
X132294112Y-46803454D01*
X131922818Y-46432160D01*
X131889333Y-46370837D01*
X131886499Y-46344479D01*
X131886499Y-46052129D01*
X131886498Y-46052123D01*
X131886497Y-46052116D01*
X131880091Y-45992517D01*
X131871745Y-45970141D01*
X131829797Y-45857671D01*
X131829793Y-45857664D01*
X131743547Y-45742455D01*
X131743544Y-45742452D01*
X131628335Y-45656206D01*
X131628328Y-45656202D01*
X131493482Y-45605908D01*
X131493483Y-45605908D01*
X131433883Y-45599501D01*
X131433881Y-45599500D01*
X131433873Y-45599500D01*
X131433864Y-45599500D01*
X130338129Y-45599500D01*
X130338123Y-45599501D01*
X130278516Y-45605908D01*
X130143671Y-45656202D01*
X130143664Y-45656206D01*
X130028455Y-45742452D01*
X130028452Y-45742455D01*
X129942206Y-45857664D01*
X129942202Y-45857671D01*
X129891908Y-45992517D01*
X129887107Y-46037180D01*
X129885501Y-46052123D01*
X129885500Y-46052135D01*
X129885500Y-46947870D01*
X129580666Y-46947870D01*
X129580091Y-46942517D01*
X129571019Y-46918195D01*
X129529797Y-46807671D01*
X129529793Y-46807664D01*
X129443547Y-46692455D01*
X129443544Y-46692452D01*
X129321231Y-46600888D01*
X129322930Y-46598617D01*
X129283743Y-46559435D01*
X129268886Y-46491163D01*
X129293298Y-46425697D01*
X129322311Y-46400556D01*
X129321231Y-46399112D01*
X129401136Y-46339293D01*
X129443546Y-46307546D01*
X129529796Y-46192331D01*
X129580091Y-46057483D01*
X129586500Y-45997873D01*
X129586499Y-45102128D01*
X129583583Y-45075000D01*
X135585001Y-45075000D01*
X135585001Y-45081582D01*
X135591408Y-45152102D01*
X135591409Y-45152107D01*
X135641981Y-45314396D01*
X135729927Y-45459877D01*
X135850122Y-45580072D01*
X135995604Y-45668019D01*
X135995603Y-45668019D01*
X136157894Y-45718590D01*
X136157892Y-45718590D01*
X136228418Y-45724999D01*
X136309999Y-45724998D01*
X136310000Y-45724998D01*
X136310000Y-45075000D01*
X136810000Y-45075000D01*
X136810000Y-45724999D01*
X136891581Y-45724999D01*
X136962102Y-45718591D01*
X136962107Y-45718590D01*
X137124396Y-45668018D01*
X137269877Y-45580072D01*
X137390072Y-45459877D01*
X137478019Y-45314395D01*
X137528590Y-45152106D01*
X137535000Y-45081572D01*
X137535000Y-45075000D01*
X136810000Y-45075000D01*
X136310000Y-45075000D01*
X135585001Y-45075000D01*
X129583583Y-45075000D01*
X129580091Y-45042517D01*
X129529796Y-44907669D01*
X129529795Y-44907668D01*
X129529793Y-44907664D01*
X129443547Y-44792455D01*
X129443544Y-44792452D01*
X129328335Y-44706206D01*
X129328328Y-44706202D01*
X129193482Y-44655908D01*
X129193483Y-44655908D01*
X129133883Y-44649501D01*
X129133881Y-44649500D01*
X129133873Y-44649500D01*
X129133865Y-44649500D01*
X128727519Y-44649500D01*
X128660480Y-44629815D01*
X128639838Y-44613181D01*
X128232546Y-44205888D01*
X128232545Y-44205887D01*
X128117807Y-44129222D01*
X127990332Y-44076421D01*
X127990322Y-44076418D01*
X127854996Y-44049500D01*
X127854994Y-44049500D01*
X127854993Y-44049500D01*
X126922351Y-44049500D01*
X126855312Y-44029815D01*
X126809557Y-43977011D01*
X126799061Y-43938752D01*
X126794091Y-43892516D01*
X126743797Y-43757671D01*
X126743793Y-43757664D01*
X126657547Y-43642455D01*
X126657544Y-43642452D01*
X126542335Y-43556206D01*
X126542328Y-43556202D01*
X126407482Y-43505908D01*
X126407483Y-43505908D01*
X126347883Y-43499501D01*
X126347881Y-43499500D01*
X126347873Y-43499500D01*
X126347864Y-43499500D01*
X125252129Y-43499500D01*
X125252123Y-43499501D01*
X125192516Y-43505908D01*
X125057671Y-43556202D01*
X125057664Y-43556206D01*
X124942455Y-43642452D01*
X124942452Y-43642455D01*
X124856206Y-43757664D01*
X124856202Y-43757671D01*
X124805908Y-43892517D01*
X124801828Y-43930472D01*
X124799501Y-43952123D01*
X124799500Y-43952135D01*
X124799500Y-45547870D01*
X124200500Y-45547870D01*
X124200499Y-43952128D01*
X124194091Y-43892517D01*
X124175483Y-43842627D01*
X124143797Y-43757671D01*
X124143793Y-43757664D01*
X124057547Y-43642455D01*
X124057544Y-43642452D01*
X123942335Y-43556206D01*
X123942328Y-43556202D01*
X123807482Y-43505908D01*
X123807483Y-43505908D01*
X123747883Y-43499501D01*
X123747881Y-43499500D01*
X123747873Y-43499500D01*
X123747864Y-43499500D01*
X122652129Y-43499500D01*
X122652123Y-43499501D01*
X122592516Y-43505908D01*
X122457671Y-43556202D01*
X122457664Y-43556206D01*
X122342455Y-43642452D01*
X122342452Y-43642455D01*
X122256206Y-43757664D01*
X122256202Y-43757671D01*
X122205908Y-43892517D01*
X122201828Y-43930472D01*
X122199501Y-43952123D01*
X122199500Y-43952135D01*
X122199500Y-45547870D01*
X122199501Y-45547876D01*
X122205908Y-45607483D01*
X122256202Y-45742328D01*
X122256206Y-45742335D01*
X122325358Y-45834709D01*
X122342454Y-45857546D01*
X122449811Y-45937914D01*
X122491682Y-45993847D01*
X122499500Y-46037180D01*
X122499500Y-48958480D01*
X122479815Y-49025519D01*
X122463181Y-49046161D01*
X122196161Y-49313181D01*
X122134838Y-49346666D01*
X122108480Y-49349500D01*
X121574500Y-49349500D01*
X121507461Y-49329815D01*
X121461706Y-49277011D01*
X121450500Y-49225500D01*
X121450500Y-47796728D01*
X121458318Y-47753394D01*
X121468614Y-47725789D01*
X121494091Y-47657483D01*
X121500500Y-47597873D01*
X121500499Y-46502128D01*
X121494091Y-46442517D01*
X121489667Y-46430656D01*
X121443797Y-46307671D01*
X121443793Y-46307664D01*
X121357547Y-46192455D01*
X121357544Y-46192452D01*
X121242335Y-46106206D01*
X121242328Y-46106202D01*
X121107482Y-46055908D01*
X121107483Y-46055908D01*
X121047883Y-46049501D01*
X121047881Y-46049500D01*
X121047873Y-46049500D01*
X121047864Y-46049500D01*
X119452129Y-46049500D01*
X119452123Y-46049501D01*
X119392516Y-46055908D01*
X119257671Y-46106202D01*
X119257664Y-46106206D01*
X119142455Y-46192452D01*
X119142452Y-46192455D01*
X119056206Y-46307664D01*
X119056202Y-46307671D01*
X119005908Y-46442517D01*
X118999972Y-46497737D01*
X118999501Y-46502123D01*
X118999500Y-46502135D01*
X118999500Y-47597870D01*
X118999501Y-47597876D01*
X119005908Y-47657483D01*
X119056202Y-47792328D01*
X119056206Y-47792335D01*
X119142452Y-47907544D01*
X119142455Y-47907547D01*
X119257664Y-47993793D01*
X119257671Y-47993797D01*
X119264007Y-47996160D01*
X119392517Y-48044091D01*
X119452127Y-48050500D01*
X119925500Y-48050499D01*
X119992539Y-48070183D01*
X120038294Y-48122987D01*
X120049500Y-48174499D01*
X120049500Y-49225500D01*
X120029815Y-49292539D01*
X119977011Y-49338294D01*
X119925500Y-49349500D01*
X119541519Y-49349500D01*
X119474480Y-49329815D01*
X119453838Y-49313181D01*
X117386819Y-47246162D01*
X117353334Y-47184839D01*
X117350500Y-47158481D01*
X117350500Y-45962320D01*
X117370185Y-45895281D01*
X117400192Y-45863051D01*
X117407546Y-45857546D01*
X117493796Y-45742331D01*
X117544091Y-45607483D01*
X117550500Y-45547873D01*
X117550499Y-44700000D01*
X119000000Y-44700000D01*
X119000000Y-44997844D01*
X119006401Y-45057372D01*
X119006403Y-45057379D01*
X119056645Y-45192086D01*
X119056649Y-45192093D01*
X119142809Y-45307187D01*
X119142812Y-45307190D01*
X119257906Y-45393350D01*
X119257913Y-45393354D01*
X119392620Y-45443596D01*
X119392627Y-45443598D01*
X119452155Y-45449999D01*
X119452172Y-45450000D01*
X120000000Y-45450000D01*
X120000000Y-44700000D01*
X120500000Y-44700000D01*
X120500000Y-45450000D01*
X121047828Y-45450000D01*
X121047844Y-45449999D01*
X121107372Y-45443598D01*
X121107379Y-45443596D01*
X121242086Y-45393354D01*
X121242093Y-45393350D01*
X121357187Y-45307190D01*
X121357190Y-45307187D01*
X121443350Y-45192093D01*
X121443354Y-45192086D01*
X121493596Y-45057379D01*
X121493598Y-45057372D01*
X121499999Y-44997844D01*
X121500000Y-44997827D01*
X121500000Y-44700000D01*
X120500000Y-44700000D01*
X120000000Y-44700000D01*
X119000000Y-44700000D01*
X117550499Y-44700000D01*
X117550499Y-44200000D01*
X119000000Y-44200000D01*
X120000000Y-44200000D01*
X120000000Y-43450000D01*
X120500000Y-43450000D01*
X120500000Y-44200000D01*
X121500000Y-44200000D01*
X121500000Y-43902172D01*
X121499999Y-43902155D01*
X121493598Y-43842627D01*
X121493596Y-43842620D01*
X121443354Y-43707913D01*
X121443350Y-43707906D01*
X121357190Y-43592812D01*
X121357187Y-43592809D01*
X121242093Y-43506649D01*
X121242086Y-43506645D01*
X121107379Y-43456403D01*
X121107372Y-43456401D01*
X121047844Y-43450000D01*
X120500000Y-43450000D01*
X120000000Y-43450000D01*
X119452155Y-43450000D01*
X119392627Y-43456401D01*
X119392620Y-43456403D01*
X119257913Y-43506645D01*
X119257906Y-43506649D01*
X119142812Y-43592809D01*
X119142809Y-43592812D01*
X119056649Y-43707906D01*
X119056645Y-43707913D01*
X119006403Y-43842620D01*
X119006401Y-43842627D01*
X119000000Y-43902155D01*
X119000000Y-44200000D01*
X117550499Y-44200000D01*
X117550499Y-43952128D01*
X117544091Y-43892517D01*
X117525483Y-43842627D01*
X117493797Y-43757671D01*
X117493793Y-43757664D01*
X117407547Y-43642455D01*
X117407544Y-43642452D01*
X117292335Y-43556206D01*
X117292328Y-43556202D01*
X117157482Y-43505908D01*
X117157483Y-43505908D01*
X117097883Y-43499501D01*
X117097881Y-43499500D01*
X117097873Y-43499500D01*
X117097864Y-43499500D01*
X116002129Y-43499500D01*
X116002123Y-43499501D01*
X115942516Y-43505908D01*
X115807671Y-43556202D01*
X115807664Y-43556206D01*
X115692455Y-43642452D01*
X115692452Y-43642455D01*
X115606206Y-43757664D01*
X115606202Y-43757671D01*
X115555908Y-43892517D01*
X115551828Y-43930472D01*
X115549501Y-43952123D01*
X115549500Y-43952135D01*
X115549500Y-45547870D01*
X114950500Y-45547870D01*
X114950499Y-43952128D01*
X114944091Y-43892517D01*
X114925483Y-43842627D01*
X114893797Y-43757671D01*
X114893793Y-43757664D01*
X114807547Y-43642455D01*
X114807544Y-43642452D01*
X114692335Y-43556206D01*
X114692328Y-43556202D01*
X114557482Y-43505908D01*
X114557483Y-43505908D01*
X114497883Y-43499501D01*
X114497881Y-43499500D01*
X114497873Y-43499500D01*
X114497864Y-43499500D01*
X113402129Y-43499500D01*
X113402123Y-43499501D01*
X113342516Y-43505908D01*
X113207671Y-43556202D01*
X113207664Y-43556206D01*
X113092455Y-43642452D01*
X113092452Y-43642455D01*
X113006206Y-43757664D01*
X113006202Y-43757671D01*
X112955908Y-43892517D01*
X112951828Y-43930472D01*
X112949501Y-43952123D01*
X112949500Y-43952135D01*
X112949500Y-45547870D01*
X110500500Y-45547870D01*
X110500500Y-38297870D01*
X110849500Y-38297870D01*
X110849501Y-38297876D01*
X110855908Y-38357483D01*
X110906202Y-38492328D01*
X110906206Y-38492335D01*
X110992452Y-38607544D01*
X110992455Y-38607547D01*
X111107664Y-38693793D01*
X111107671Y-38693797D01*
X111152050Y-38710349D01*
X111242517Y-38744091D01*
X111302127Y-38750500D01*
X111608480Y-38750499D01*
X111675519Y-38770183D01*
X111696161Y-38786818D01*
X112451796Y-39542452D01*
X113180886Y-40271542D01*
X113231833Y-40322489D01*
X113278459Y-40369115D01*
X113393182Y-40445771D01*
X113393186Y-40445773D01*
X113393189Y-40445775D01*
X113467866Y-40476707D01*
X113467867Y-40476707D01*
X113467869Y-40476709D01*
X113520666Y-40498578D01*
X113520671Y-40498580D01*
X113520680Y-40498581D01*
X113520681Y-40498582D01*
X113547545Y-40503925D01*
X113547551Y-40503926D01*
X113547591Y-40503934D01*
X113637937Y-40521905D01*
X113656006Y-40525500D01*
X113656007Y-40525500D01*
X116333480Y-40525500D01*
X116400519Y-40545185D01*
X116421161Y-40561819D01*
X116439811Y-40580469D01*
X116439813Y-40580470D01*
X116439815Y-40580472D01*
X116585394Y-40668478D01*
X116747804Y-40719086D01*
X116818384Y-40725500D01*
X117008481Y-40725500D01*
X117075520Y-40745185D01*
X117096162Y-40761819D01*
X117949368Y-41615024D01*
X118780886Y-42446542D01*
X118836606Y-42502262D01*
X118878459Y-42544115D01*
X118993182Y-42620771D01*
X118993189Y-42620775D01*
X119064951Y-42650499D01*
X119064953Y-42650501D01*
X119120666Y-42673578D01*
X119120671Y-42673580D01*
X119120680Y-42673581D01*
X119120681Y-42673582D01*
X119147545Y-42678925D01*
X119147551Y-42678926D01*
X119147591Y-42678934D01*
X119237937Y-42696905D01*
X119256006Y-42700500D01*
X119256007Y-42700500D01*
X127081007Y-42700500D01*
X129574506Y-42700500D01*
X129640477Y-42719506D01*
X129650474Y-42725787D01*
X129650475Y-42725787D01*
X129650478Y-42725789D01*
X129820745Y-42785368D01*
X129820750Y-42785369D01*
X129999996Y-42805565D01*
X130000000Y-42805565D01*
X130000004Y-42805565D01*
X130179249Y-42785369D01*
X130179252Y-42785368D01*
X130179255Y-42785368D01*
X130349522Y-42725789D01*
X130502262Y-42629816D01*
X130629816Y-42502262D01*
X130725789Y-42349522D01*
X130785368Y-42179255D01*
X130805565Y-42000000D01*
X130799542Y-41946545D01*
X130785369Y-41820750D01*
X130785368Y-41820745D01*
X130744630Y-41704323D01*
X130725789Y-41650478D01*
X130706440Y-41619685D01*
X130629815Y-41497737D01*
X130502262Y-41370184D01*
X130349523Y-41274211D01*
X130179254Y-41214631D01*
X130179249Y-41214630D01*
X130000004Y-41194435D01*
X129999996Y-41194435D01*
X129820750Y-41214630D01*
X129820745Y-41214631D01*
X129650474Y-41274212D01*
X129640477Y-41280494D01*
X129574506Y-41299500D01*
X119666518Y-41299500D01*
X119599479Y-41279815D01*
X119578837Y-41263181D01*
X118161819Y-39846162D01*
X118128334Y-39784839D01*
X118125500Y-39758481D01*
X118125500Y-39574500D01*
X118145185Y-39507461D01*
X118197989Y-39461706D01*
X118249500Y-39450500D01*
X118827649Y-39450500D01*
X118894688Y-39470185D01*
X118940443Y-39522989D01*
X118950939Y-39561248D01*
X118955908Y-39607483D01*
X119006202Y-39742328D01*
X119006206Y-39742335D01*
X119092452Y-39857544D01*
X119092455Y-39857547D01*
X119207664Y-39943793D01*
X119207671Y-39943797D01*
X119342517Y-39994091D01*
X119342516Y-39994091D01*
X119349444Y-39994835D01*
X119402127Y-40000500D01*
X120497872Y-40000499D01*
X120557483Y-39994091D01*
X120692331Y-39943796D01*
X120807546Y-39857546D01*
X120893796Y-39742331D01*
X120944091Y-39607483D01*
X120950500Y-39547873D01*
X120950500Y-39547870D01*
X121549500Y-39547870D01*
X121549501Y-39547876D01*
X121555908Y-39607483D01*
X121606202Y-39742328D01*
X121606206Y-39742335D01*
X121692452Y-39857544D01*
X121692455Y-39857547D01*
X121807664Y-39943793D01*
X121807671Y-39943797D01*
X121942517Y-39994091D01*
X121942516Y-39994091D01*
X121949444Y-39994835D01*
X122002127Y-40000500D01*
X123097872Y-40000499D01*
X123157483Y-39994091D01*
X123292331Y-39943796D01*
X123407546Y-39857546D01*
X123487914Y-39750188D01*
X123543847Y-39708318D01*
X123587180Y-39700500D01*
X123858480Y-39700500D01*
X123925519Y-39720185D01*
X123946161Y-39736819D01*
X124039811Y-39830469D01*
X124039813Y-39830470D01*
X124039815Y-39830472D01*
X124185394Y-39918478D01*
X124347804Y-39969086D01*
X124418384Y-39975500D01*
X124418387Y-39975500D01*
X124931613Y-39975500D01*
X124931616Y-39975500D01*
X125002196Y-39969086D01*
X125164606Y-39918478D01*
X125310185Y-39830472D01*
X125412673Y-39727983D01*
X125473994Y-39694499D01*
X125543685Y-39699483D01*
X125588034Y-39727984D01*
X125690122Y-39830072D01*
X125835604Y-39918019D01*
X125835603Y-39918019D01*
X125997894Y-39968590D01*
X125997893Y-39968590D01*
X126068408Y-39974998D01*
X126068426Y-39974999D01*
X126074999Y-39974998D01*
X126075000Y-39974998D01*
X126075000Y-39250000D01*
X126575000Y-39250000D01*
X126575000Y-39974999D01*
X126581581Y-39974999D01*
X126652102Y-39968591D01*
X126652107Y-39968590D01*
X126814396Y-39918018D01*
X126959877Y-39830072D01*
X127080072Y-39709877D01*
X127168019Y-39564395D01*
X127218590Y-39402106D01*
X127225000Y-39331572D01*
X127225000Y-39250000D01*
X126575000Y-39250000D01*
X126075000Y-39250000D01*
X126075000Y-38025000D01*
X126575000Y-38025000D01*
X126575000Y-38750000D01*
X127224999Y-38750000D01*
X127224999Y-38668417D01*
X127218591Y-38597897D01*
X127218590Y-38597892D01*
X127168018Y-38435603D01*
X127080072Y-38290122D01*
X126959877Y-38169927D01*
X126814395Y-38081980D01*
X126814396Y-38081980D01*
X126652105Y-38031409D01*
X126652106Y-38031409D01*
X126581572Y-38025000D01*
X126575000Y-38025000D01*
X126075000Y-38025000D01*
X126074999Y-38024999D01*
X126068436Y-38025000D01*
X126068417Y-38025001D01*
X125997897Y-38031408D01*
X125997892Y-38031409D01*
X125835603Y-38081981D01*
X125690122Y-38169927D01*
X125690121Y-38169928D01*
X125588035Y-38272015D01*
X125526712Y-38305500D01*
X125457020Y-38300516D01*
X125412673Y-38272015D01*
X125310188Y-38169530D01*
X125164606Y-38081522D01*
X125002196Y-38030914D01*
X125002194Y-38030913D01*
X125002192Y-38030913D01*
X124952778Y-38026423D01*
X124931616Y-38024500D01*
X124418384Y-38024500D01*
X124399145Y-38026248D01*
X124347807Y-38030913D01*
X124185393Y-38081522D01*
X124039811Y-38169530D01*
X124039810Y-38169531D01*
X123946161Y-38263181D01*
X123884838Y-38296666D01*
X123858480Y-38299500D01*
X123674499Y-38299500D01*
X123607460Y-38279815D01*
X123561705Y-38227011D01*
X123550499Y-38175500D01*
X123550499Y-37952129D01*
X123550498Y-37952123D01*
X123550497Y-37952116D01*
X123544091Y-37892517D01*
X123524503Y-37840000D01*
X123493797Y-37757671D01*
X123493793Y-37757664D01*
X123407547Y-37642455D01*
X123407544Y-37642452D01*
X123292335Y-37556206D01*
X123292328Y-37556202D01*
X123157482Y-37505908D01*
X123157483Y-37505908D01*
X123097883Y-37499501D01*
X123097881Y-37499500D01*
X123097873Y-37499500D01*
X123097864Y-37499500D01*
X122002129Y-37499500D01*
X122002123Y-37499501D01*
X121942516Y-37505908D01*
X121807671Y-37556202D01*
X121807664Y-37556206D01*
X121692455Y-37642452D01*
X121692452Y-37642455D01*
X121606206Y-37757664D01*
X121606202Y-37757671D01*
X121555908Y-37892517D01*
X121549501Y-37952116D01*
X121549501Y-37952123D01*
X121549500Y-37952135D01*
X121549500Y-39547870D01*
X120950500Y-39547870D01*
X120950499Y-37952128D01*
X120944091Y-37892517D01*
X120924503Y-37840000D01*
X120893797Y-37757671D01*
X120893793Y-37757664D01*
X120807547Y-37642455D01*
X120807544Y-37642452D01*
X120692335Y-37556206D01*
X120692328Y-37556202D01*
X120557482Y-37505908D01*
X120557483Y-37505908D01*
X120497883Y-37499501D01*
X120497881Y-37499500D01*
X120497873Y-37499500D01*
X120497865Y-37499500D01*
X119690518Y-37499500D01*
X119623479Y-37479815D01*
X119577724Y-37427011D01*
X119567780Y-37357853D01*
X119596805Y-37294297D01*
X119602881Y-37287775D01*
X119603883Y-37286774D01*
X119665222Y-37253320D01*
X119691520Y-37250499D01*
X120447871Y-37250499D01*
X120447872Y-37250499D01*
X120507483Y-37244091D01*
X120642331Y-37193796D01*
X120757546Y-37107546D01*
X120843796Y-36992331D01*
X120894091Y-36857483D01*
X120900500Y-36797873D01*
X120900499Y-35202128D01*
X120894091Y-35142517D01*
X120893479Y-35140877D01*
X120843797Y-35007671D01*
X120843793Y-35007664D01*
X120757547Y-34892455D01*
X120650188Y-34812085D01*
X120608318Y-34756151D01*
X120600500Y-34712819D01*
X120600500Y-33219337D01*
X120620185Y-33152298D01*
X120636819Y-33131656D01*
X120670682Y-33097793D01*
X120711598Y-33056877D01*
X120837102Y-32877639D01*
X120929575Y-32679330D01*
X120986207Y-32467977D01*
X121005277Y-32250000D01*
X120986207Y-32032023D01*
X120929575Y-31820670D01*
X120837102Y-31622362D01*
X120837100Y-31622359D01*
X120837099Y-31622357D01*
X120711599Y-31443124D01*
X120651975Y-31383500D01*
X120556877Y-31288402D01*
X120377639Y-31162898D01*
X120377640Y-31162898D01*
X120377638Y-31162897D01*
X120278484Y-31116661D01*
X120179330Y-31070425D01*
X120179326Y-31070424D01*
X120179322Y-31070422D01*
X119967977Y-31013793D01*
X119750002Y-30994723D01*
X119749998Y-30994723D01*
X119604682Y-31007436D01*
X119532023Y-31013793D01*
X119532020Y-31013793D01*
X119320677Y-31070422D01*
X119320668Y-31070426D01*
X119122361Y-31162898D01*
X119122357Y-31162900D01*
X118943121Y-31288402D01*
X118788402Y-31443121D01*
X118662900Y-31622357D01*
X118662898Y-31622361D01*
X118570426Y-31820668D01*
X118570422Y-31820677D01*
X118513793Y-32032020D01*
X118513793Y-32032023D01*
X118494723Y-32250000D01*
X118511997Y-32447453D01*
X118513793Y-32467975D01*
X118513793Y-32467979D01*
X118570422Y-32679322D01*
X118570424Y-32679326D01*
X118570425Y-32679330D01*
X118583191Y-32706707D01*
X118662897Y-32877638D01*
X118662898Y-32877639D01*
X118788402Y-33056877D01*
X118943123Y-33211598D01*
X119122361Y-33337102D01*
X119127900Y-33339685D01*
X119180339Y-33385851D01*
X119199500Y-33452068D01*
X119199500Y-34712819D01*
X119179815Y-34779858D01*
X119149812Y-34812085D01*
X119042452Y-34892455D01*
X118956206Y-35007664D01*
X118956202Y-35007671D01*
X118905908Y-35142517D01*
X118900938Y-35188752D01*
X118899501Y-35202123D01*
X118899500Y-35202135D01*
X118899500Y-35958479D01*
X118879815Y-36025518D01*
X118863182Y-36046159D01*
X118821162Y-36088180D01*
X118759840Y-36121666D01*
X118733480Y-36124500D01*
X117966520Y-36124500D01*
X117899481Y-36104815D01*
X117878839Y-36088181D01*
X117877984Y-36087326D01*
X117844499Y-36026003D01*
X117849483Y-35956311D01*
X117877985Y-35911963D01*
X117980071Y-35809878D01*
X117980072Y-35809877D01*
X118068019Y-35664395D01*
X118118590Y-35502106D01*
X118125000Y-35431572D01*
X118125000Y-35425000D01*
X116175001Y-35425000D01*
X116175001Y-35431582D01*
X116181408Y-35502102D01*
X116181409Y-35502107D01*
X116231981Y-35664396D01*
X116319927Y-35809877D01*
X116422015Y-35911965D01*
X116455500Y-35973288D01*
X116450516Y-36042980D01*
X116422015Y-36087327D01*
X116319531Y-36189810D01*
X116319530Y-36189811D01*
X116231522Y-36335393D01*
X116180913Y-36497807D01*
X116174500Y-36568386D01*
X116174500Y-36758481D01*
X116154815Y-36825520D01*
X116138181Y-36846162D01*
X115771162Y-37213181D01*
X115709839Y-37246666D01*
X115683481Y-37249500D01*
X115291439Y-37249500D01*
X115224400Y-37229815D01*
X115217128Y-37224767D01*
X115192331Y-37206204D01*
X115192328Y-37206202D01*
X115057482Y-37155908D01*
X115057483Y-37155908D01*
X114997883Y-37149501D01*
X114997881Y-37149500D01*
X114997873Y-37149500D01*
X114997864Y-37149500D01*
X113902129Y-37149500D01*
X113902123Y-37149501D01*
X113842516Y-37155908D01*
X113707671Y-37206202D01*
X113707668Y-37206204D01*
X113682204Y-37225267D01*
X113616739Y-37249684D01*
X113607893Y-37250000D01*
X113450000Y-37250000D01*
X113450000Y-37347844D01*
X113456401Y-37407372D01*
X113456403Y-37407379D01*
X113465195Y-37430952D01*
X113470179Y-37500644D01*
X113465196Y-37517615D01*
X113455909Y-37542516D01*
X113455908Y-37542517D01*
X113449945Y-37597989D01*
X113449501Y-37602123D01*
X113449500Y-37602137D01*
X113449500Y-38259482D01*
X113429815Y-38326521D01*
X113377011Y-38372276D01*
X113307853Y-38382220D01*
X113244297Y-38353195D01*
X113237828Y-38347172D01*
X112886818Y-37996161D01*
X112853333Y-37934838D01*
X112850499Y-37908480D01*
X112850499Y-37602129D01*
X112850498Y-37602123D01*
X112850497Y-37602117D01*
X112844091Y-37542517D01*
X112843083Y-37539815D01*
X112793797Y-37407671D01*
X112793793Y-37407664D01*
X112707547Y-37292455D01*
X112707544Y-37292452D01*
X112592335Y-37206206D01*
X112592328Y-37206202D01*
X112457482Y-37155908D01*
X112457483Y-37155908D01*
X112397883Y-37149501D01*
X112397881Y-37149500D01*
X112397873Y-37149500D01*
X112397864Y-37149500D01*
X111302129Y-37149500D01*
X111302123Y-37149501D01*
X111242516Y-37155908D01*
X111107671Y-37206202D01*
X111107664Y-37206206D01*
X110992455Y-37292452D01*
X110992452Y-37292455D01*
X110906206Y-37407664D01*
X110906202Y-37407671D01*
X110855910Y-37542513D01*
X110855909Y-37542517D01*
X110849500Y-37602127D01*
X110849500Y-37602134D01*
X110849500Y-37602135D01*
X110849500Y-38297870D01*
X110500500Y-38297870D01*
X110500500Y-33048585D01*
X110515074Y-32998949D01*
X110514887Y-32998593D01*
X110733800Y-32998593D01*
X110743477Y-33013650D01*
X110748028Y-33037778D01*
X110749699Y-33056877D01*
X110763234Y-33211593D01*
X110763793Y-33217975D01*
X110763793Y-33217979D01*
X110820422Y-33429322D01*
X110820424Y-33429326D01*
X110820425Y-33429330D01*
X110831028Y-33452068D01*
X110912897Y-33627638D01*
X110912898Y-33627639D01*
X111038402Y-33806877D01*
X111038406Y-33806881D01*
X111193121Y-33961596D01*
X111193127Y-33961601D01*
X111246623Y-33999059D01*
X111290248Y-34053635D01*
X111299500Y-34100634D01*
X111299500Y-35148560D01*
X111279815Y-35215599D01*
X111227011Y-35261354D01*
X111218833Y-35264742D01*
X111107671Y-35306202D01*
X111107664Y-35306206D01*
X110992455Y-35392452D01*
X110992452Y-35392455D01*
X110906206Y-35507664D01*
X110906202Y-35507671D01*
X110855910Y-35642513D01*
X110855909Y-35642517D01*
X110849500Y-35702127D01*
X110849500Y-35702134D01*
X110849500Y-35702135D01*
X110849500Y-36397870D01*
X110849501Y-36397876D01*
X110855908Y-36457483D01*
X110906202Y-36592328D01*
X110906206Y-36592335D01*
X110992452Y-36707544D01*
X110992455Y-36707547D01*
X111107664Y-36793793D01*
X111107671Y-36793797D01*
X111242517Y-36844091D01*
X111242516Y-36844091D01*
X111249444Y-36844835D01*
X111302127Y-36850500D01*
X112397872Y-36850499D01*
X112457483Y-36844091D01*
X112592331Y-36793796D01*
X112617128Y-36775233D01*
X112682592Y-36750816D01*
X112691439Y-36750500D01*
X113608561Y-36750500D01*
X113675600Y-36770185D01*
X113682872Y-36775233D01*
X113707668Y-36793795D01*
X113707671Y-36793797D01*
X113842517Y-36844091D01*
X113842516Y-36844091D01*
X113849444Y-36844835D01*
X113902127Y-36850500D01*
X114997872Y-36850499D01*
X115057483Y-36844091D01*
X115192331Y-36793796D01*
X115217796Y-36774733D01*
X115283261Y-36750316D01*
X115292107Y-36750000D01*
X115450000Y-36750000D01*
X115450000Y-36652172D01*
X115449999Y-36652155D01*
X115443598Y-36592627D01*
X115443597Y-36592623D01*
X115434804Y-36569047D01*
X115429820Y-36499355D01*
X115434802Y-36482387D01*
X115444091Y-36457483D01*
X115450500Y-36397873D01*
X115450499Y-35702128D01*
X115445299Y-35653757D01*
X115444091Y-35642516D01*
X115393797Y-35507671D01*
X115393793Y-35507664D01*
X115307547Y-35392455D01*
X115307544Y-35392452D01*
X115192335Y-35306206D01*
X115192328Y-35306202D01*
X115057482Y-35255908D01*
X115057483Y-35255908D01*
X114997883Y-35249501D01*
X114997881Y-35249500D01*
X114997873Y-35249500D01*
X114997864Y-35249500D01*
X113902129Y-35249500D01*
X113902123Y-35249501D01*
X113842516Y-35255908D01*
X113707671Y-35306202D01*
X113707668Y-35306204D01*
X113682872Y-35324767D01*
X113617408Y-35349184D01*
X113608561Y-35349500D01*
X112824500Y-35349500D01*
X112757461Y-35329815D01*
X112711706Y-35277011D01*
X112700500Y-35225500D01*
X112700500Y-34925000D01*
X116175000Y-34925000D01*
X116900000Y-34925000D01*
X116900000Y-34275000D01*
X117400000Y-34275000D01*
X117400000Y-34925000D01*
X118124999Y-34925000D01*
X118124999Y-34918417D01*
X118118591Y-34847897D01*
X118118590Y-34847892D01*
X118068018Y-34685603D01*
X117980072Y-34540122D01*
X117859877Y-34419927D01*
X117714395Y-34331980D01*
X117714396Y-34331980D01*
X117552105Y-34281409D01*
X117552106Y-34281409D01*
X117481572Y-34275000D01*
X117400000Y-34275000D01*
X116900000Y-34275000D01*
X116899999Y-34274999D01*
X116818417Y-34275000D01*
X116747897Y-34281408D01*
X116747892Y-34281409D01*
X116585603Y-34331981D01*
X116440122Y-34419927D01*
X116319927Y-34540122D01*
X116231980Y-34685604D01*
X116181409Y-34847893D01*
X116175000Y-34918427D01*
X116175000Y-34925000D01*
X112700500Y-34925000D01*
X112700500Y-34100634D01*
X112720185Y-34033595D01*
X112753377Y-33999059D01*
X112781310Y-33979500D01*
X112806877Y-33961598D01*
X112961598Y-33806877D01*
X113087102Y-33627639D01*
X113179575Y-33429330D01*
X113236207Y-33217977D01*
X113255277Y-33000000D01*
X113236207Y-32782023D01*
X113188266Y-32603105D01*
X113179577Y-32570677D01*
X113179576Y-32570676D01*
X113179575Y-32570670D01*
X113087102Y-32372362D01*
X113087100Y-32372359D01*
X113087099Y-32372357D01*
X112961599Y-32193124D01*
X112961596Y-32193121D01*
X112806877Y-32038402D01*
X112627639Y-31912898D01*
X112627640Y-31912898D01*
X112627638Y-31912897D01*
X112497628Y-31852273D01*
X112429330Y-31820425D01*
X112429326Y-31820424D01*
X112429322Y-31820422D01*
X112217977Y-31763793D01*
X112000002Y-31744723D01*
X111999998Y-31744723D01*
X111854682Y-31757436D01*
X111782023Y-31763793D01*
X111782020Y-31763793D01*
X111570677Y-31820422D01*
X111570668Y-31820426D01*
X111372361Y-31912898D01*
X111372357Y-31912900D01*
X111193121Y-32038402D01*
X111038402Y-32193121D01*
X110912900Y-32372357D01*
X110912898Y-32372361D01*
X110820426Y-32570668D01*
X110820422Y-32570677D01*
X110763793Y-32782020D01*
X110763793Y-32782023D01*
X110757853Y-32849916D01*
X110748028Y-32962221D01*
X110733800Y-32998593D01*
X110514887Y-32998593D01*
X110502931Y-32975846D01*
X110500500Y-32951414D01*
X110500500Y-24649098D01*
X110520185Y-24582059D01*
X110572989Y-24536304D01*
X110642147Y-24526360D01*
X110705703Y-24555385D01*
X110712181Y-24561417D01*
X110738349Y-24587585D01*
X110738355Y-24587590D01*
X114515139Y-28364374D01*
X114515149Y-28364385D01*
X114519479Y-28368715D01*
X114519480Y-28368716D01*
X114631284Y-28480520D01*
X114718095Y-28530639D01*
X114718097Y-28530641D01*
X114756151Y-28552611D01*
X114768215Y-28559577D01*
X114920943Y-28600501D01*
X114920946Y-28600501D01*
X115086653Y-28600501D01*
X115086669Y-28600500D01*
X116823331Y-28600500D01*
X116823347Y-28600501D01*
X116830943Y-28600501D01*
X116989054Y-28600501D01*
X116989057Y-28600501D01*
X117141785Y-28559577D01*
X117191904Y-28530639D01*
X117278716Y-28480520D01*
X117390520Y-28368716D01*
X117390520Y-28368714D01*
X117400728Y-28358507D01*
X117400730Y-28358504D01*
X118151470Y-27607763D01*
X118212791Y-27574280D01*
X118271238Y-27575670D01*
X118399592Y-27610063D01*
X118587918Y-27626539D01*
X118634999Y-27630659D01*
X118635000Y-27630659D01*
X118635001Y-27630659D01*
X118674234Y-27627226D01*
X118870408Y-27610063D01*
X119098663Y-27548903D01*
X119312830Y-27449035D01*
X119506401Y-27313495D01*
X119673495Y-27146401D01*
X119803425Y-26960842D01*
X119858002Y-26917217D01*
X119927500Y-26910023D01*
X119989855Y-26941546D01*
X120006575Y-26960842D01*
X120136501Y-27146396D01*
X120136506Y-27146402D01*
X120303597Y-27313494D01*
X120421623Y-27396136D01*
X120465248Y-27450713D01*
X120474500Y-27497711D01*
X120474500Y-27506006D01*
X120474500Y-27643994D01*
X120474500Y-27643996D01*
X120474499Y-27643996D01*
X120501418Y-27779322D01*
X120501421Y-27779332D01*
X120554222Y-27906807D01*
X120630887Y-28021545D01*
X120630888Y-28021546D01*
X121408630Y-28799287D01*
X121437990Y-28846013D01*
X121474209Y-28949519D01*
X121474211Y-28949522D01*
X121570184Y-29102262D01*
X121697738Y-29229816D01*
X121850478Y-29325789D01*
X122020745Y-29385368D01*
X122020750Y-29385369D01*
X122199996Y-29405565D01*
X122200000Y-29405565D01*
X122200004Y-29405565D01*
X122379249Y-29385369D01*
X122379252Y-29385368D01*
X122379255Y-29385368D01*
X122549522Y-29325789D01*
X122702262Y-29229816D01*
X122829816Y-29102262D01*
X122925789Y-28949522D01*
X122985368Y-28779255D01*
X122985369Y-28779249D01*
X123005565Y-28600003D01*
X123005565Y-28599996D01*
X122985369Y-28420750D01*
X122985368Y-28420745D01*
X122925788Y-28250476D01*
X122829815Y-28097737D01*
X122702262Y-27970184D01*
X122549519Y-27874209D01*
X122446013Y-27837990D01*
X122399287Y-27808630D01*
X122062957Y-27472300D01*
X122029472Y-27410977D01*
X122034456Y-27341285D01*
X122062953Y-27296942D01*
X122213495Y-27146401D01*
X122343425Y-26960842D01*
X122398002Y-26917217D01*
X122467500Y-26910023D01*
X122529855Y-26941546D01*
X122546575Y-26960842D01*
X122676281Y-27146082D01*
X122676505Y-27146401D01*
X122843599Y-27313495D01*
X122922453Y-27368709D01*
X123037165Y-27449032D01*
X123037167Y-27449033D01*
X123037170Y-27449035D01*
X123251337Y-27548903D01*
X123479592Y-27610063D01*
X123667918Y-27626539D01*
X123714999Y-27630659D01*
X123715000Y-27630659D01*
X123715001Y-27630659D01*
X123754234Y-27627226D01*
X123950408Y-27610063D01*
X124178663Y-27548903D01*
X124392830Y-27449035D01*
X124586401Y-27313495D01*
X124753495Y-27146401D01*
X124883425Y-26960842D01*
X124938002Y-26917217D01*
X125007500Y-26910023D01*
X125069855Y-26941546D01*
X125086575Y-26960842D01*
X125216501Y-27146396D01*
X125216506Y-27146402D01*
X125383597Y-27313494D01*
X125501623Y-27396136D01*
X125545248Y-27450713D01*
X125554500Y-27497711D01*
X125554500Y-31816549D01*
X125535495Y-31882520D01*
X125524208Y-31900482D01*
X125464633Y-32070737D01*
X125464630Y-32070750D01*
X125444435Y-32249996D01*
X125444435Y-32250003D01*
X125464630Y-32429249D01*
X125464631Y-32429254D01*
X125524210Y-32599519D01*
X125524211Y-32599522D01*
X125535493Y-32617477D01*
X125554500Y-32683449D01*
X125554500Y-35114480D01*
X125534815Y-35181519D01*
X125482011Y-35227274D01*
X125412853Y-35237218D01*
X125349297Y-35208193D01*
X125342819Y-35202161D01*
X125310188Y-35169530D01*
X125305498Y-35166695D01*
X125164606Y-35081522D01*
X125002196Y-35030914D01*
X125002194Y-35030913D01*
X125002192Y-35030913D01*
X124952778Y-35026423D01*
X124931616Y-35024500D01*
X124418384Y-35024500D01*
X124399145Y-35026248D01*
X124347807Y-35030913D01*
X124185393Y-35081522D01*
X124039811Y-35169530D01*
X124039810Y-35169531D01*
X123946161Y-35263181D01*
X123884838Y-35296666D01*
X123858480Y-35299500D01*
X123622351Y-35299500D01*
X123555312Y-35279815D01*
X123509557Y-35227011D01*
X123499061Y-35188752D01*
X123494091Y-35142516D01*
X123443797Y-35007671D01*
X123443793Y-35007664D01*
X123357547Y-34892455D01*
X123357544Y-34892452D01*
X123242335Y-34806206D01*
X123242328Y-34806202D01*
X123107482Y-34755908D01*
X123107483Y-34755908D01*
X123047883Y-34749501D01*
X123047881Y-34749500D01*
X123047873Y-34749500D01*
X123047864Y-34749500D01*
X121952129Y-34749500D01*
X121952123Y-34749501D01*
X121892516Y-34755908D01*
X121757671Y-34806202D01*
X121757664Y-34806206D01*
X121642455Y-34892452D01*
X121642452Y-34892455D01*
X121556206Y-35007664D01*
X121556202Y-35007671D01*
X121505908Y-35142517D01*
X121500938Y-35188752D01*
X121499501Y-35202123D01*
X121499500Y-35202135D01*
X121499500Y-36797870D01*
X121499501Y-36797876D01*
X121505908Y-36857483D01*
X121556202Y-36992328D01*
X121556206Y-36992335D01*
X121642452Y-37107544D01*
X121642455Y-37107547D01*
X121757664Y-37193793D01*
X121757671Y-37193797D01*
X121892517Y-37244091D01*
X121892516Y-37244091D01*
X121899444Y-37244835D01*
X121952127Y-37250500D01*
X123047872Y-37250499D01*
X123107483Y-37244091D01*
X123242331Y-37193796D01*
X123357546Y-37107546D01*
X123443796Y-36992331D01*
X123494091Y-36857483D01*
X123499062Y-36811242D01*
X123525799Y-36746694D01*
X123583191Y-36706846D01*
X123622351Y-36700500D01*
X123858480Y-36700500D01*
X123925519Y-36720185D01*
X123946161Y-36736819D01*
X124039811Y-36830469D01*
X124039813Y-36830470D01*
X124039815Y-36830472D01*
X124185394Y-36918478D01*
X124347804Y-36969086D01*
X124418384Y-36975500D01*
X124418387Y-36975500D01*
X124931613Y-36975500D01*
X124931616Y-36975500D01*
X125002196Y-36969086D01*
X125164606Y-36918478D01*
X125310185Y-36830472D01*
X125346864Y-36793793D01*
X125412319Y-36728339D01*
X125473642Y-36694854D01*
X125543334Y-36699838D01*
X125587681Y-36728339D01*
X125689811Y-36830469D01*
X125689813Y-36830470D01*
X125689815Y-36830472D01*
X125835394Y-36918478D01*
X125997804Y-36969086D01*
X126068384Y-36975500D01*
X126068387Y-36975500D01*
X126581613Y-36975500D01*
X126581616Y-36975500D01*
X126652196Y-36969086D01*
X126814606Y-36918478D01*
X126960185Y-36830472D01*
X127080472Y-36710185D01*
X127168478Y-36564606D01*
X127219086Y-36402196D01*
X127225500Y-36331616D01*
X127225500Y-35668384D01*
X127219086Y-35597804D01*
X127168478Y-35435394D01*
X127080472Y-35289815D01*
X127080470Y-35289813D01*
X127080469Y-35289811D01*
X126991819Y-35201161D01*
X126958334Y-35139838D01*
X126955500Y-35113480D01*
X126955500Y-32667535D01*
X126973223Y-32606019D01*
X126972766Y-32605799D01*
X126974063Y-32603105D01*
X126974508Y-32601559D01*
X126975789Y-32599522D01*
X127028999Y-32447457D01*
X127035366Y-32429262D01*
X127035369Y-32429249D01*
X127055565Y-32250003D01*
X127055565Y-32249996D01*
X127035369Y-32070750D01*
X127035366Y-32070737D01*
X126975789Y-31900478D01*
X126974504Y-31898432D01*
X126974057Y-31896880D01*
X126972769Y-31894206D01*
X126973223Y-31893987D01*
X126955500Y-31832464D01*
X126955500Y-27497711D01*
X126975185Y-27430672D01*
X127008377Y-27396136D01*
X127126401Y-27313495D01*
X127293495Y-27146401D01*
X127423730Y-26960405D01*
X127478307Y-26916781D01*
X127547805Y-26909587D01*
X127610160Y-26941110D01*
X127626879Y-26960405D01*
X127756890Y-27146078D01*
X127923917Y-27313105D01*
X128117421Y-27448600D01*
X128331507Y-27548429D01*
X128331516Y-27548433D01*
X128545000Y-27605634D01*
X128545000Y-26708012D01*
X128602007Y-26740925D01*
X128729174Y-26775000D01*
X128860826Y-26775000D01*
X128987993Y-26740925D01*
X129045000Y-26708012D01*
X129045000Y-27605633D01*
X129258483Y-27548433D01*
X129258492Y-27548429D01*
X129472578Y-27448600D01*
X129666082Y-27313105D01*
X129833105Y-27146082D01*
X129963119Y-26960405D01*
X130017696Y-26916781D01*
X130087195Y-26909588D01*
X130149549Y-26941110D01*
X130166269Y-26960405D01*
X130296505Y-27146401D01*
X130463599Y-27313495D01*
X130542453Y-27368709D01*
X130657165Y-27449032D01*
X130657167Y-27449033D01*
X130657170Y-27449035D01*
X130871337Y-27548903D01*
X131099592Y-27610063D01*
X131287918Y-27626539D01*
X131334999Y-27630659D01*
X131335000Y-27630659D01*
X131335001Y-27630659D01*
X131374234Y-27627226D01*
X131570408Y-27610063D01*
X131698757Y-27575672D01*
X131768606Y-27577335D01*
X131818531Y-27607766D01*
X132575139Y-28364374D01*
X132575149Y-28364385D01*
X132579479Y-28368715D01*
X132579480Y-28368716D01*
X132691284Y-28480520D01*
X132691286Y-28480521D01*
X132691290Y-28480524D01*
X132828209Y-28559573D01*
X132828216Y-28559577D01*
X132841690Y-28563187D01*
X132901351Y-28599552D01*
X132931880Y-28662399D01*
X132923585Y-28731775D01*
X132897280Y-28770642D01*
X132870183Y-28797739D01*
X132774211Y-28950476D01*
X132714631Y-29120745D01*
X132714630Y-29120750D01*
X132694435Y-29299996D01*
X132694435Y-29300003D01*
X132714630Y-29479249D01*
X132714631Y-29479254D01*
X132774211Y-29649523D01*
X132870184Y-29802262D01*
X132997738Y-29929816D01*
X133150478Y-30025789D01*
X133293979Y-30076001D01*
X133340705Y-30105362D01*
X135548181Y-32312838D01*
X135581666Y-32374161D01*
X135584500Y-32400518D01*
X135584500Y-32607336D01*
X135584501Y-32607355D01*
X135594650Y-32706707D01*
X135594651Y-32706710D01*
X135647996Y-32867694D01*
X135648001Y-32867705D01*
X135737029Y-33012040D01*
X135737032Y-33012044D01*
X135856955Y-33131967D01*
X135856959Y-33131970D01*
X136001294Y-33220998D01*
X136001297Y-33220999D01*
X136001303Y-33221003D01*
X136162292Y-33274349D01*
X136261655Y-33284500D01*
X136355500Y-33284499D01*
X136422538Y-33304183D01*
X136468294Y-33356986D01*
X136479500Y-33408499D01*
X136479500Y-33738561D01*
X136459815Y-33805600D01*
X136454767Y-33812872D01*
X136436204Y-33837668D01*
X136436202Y-33837671D01*
X136413391Y-33898833D01*
X136371520Y-33954767D01*
X136306056Y-33979184D01*
X136297209Y-33979500D01*
X135853465Y-33979500D01*
X135786426Y-33959815D01*
X135741083Y-33907905D01*
X135739575Y-33904672D01*
X135739575Y-33904670D01*
X135647102Y-33706362D01*
X135647100Y-33706359D01*
X135647099Y-33706357D01*
X135521599Y-33527124D01*
X135446543Y-33452068D01*
X135366877Y-33372402D01*
X135187639Y-33246898D01*
X135187640Y-33246898D01*
X135187638Y-33246897D01*
X135088484Y-33200661D01*
X134989330Y-33154425D01*
X134989326Y-33154424D01*
X134989322Y-33154422D01*
X134777977Y-33097793D01*
X134560002Y-33078723D01*
X134559998Y-33078723D01*
X134414682Y-33091436D01*
X134342023Y-33097793D01*
X134342020Y-33097793D01*
X134130677Y-33154422D01*
X134130668Y-33154426D01*
X133932361Y-33246898D01*
X133932357Y-33246900D01*
X133753121Y-33372402D01*
X133598402Y-33527121D01*
X133472900Y-33706357D01*
X133472898Y-33706361D01*
X133380426Y-33904668D01*
X133380422Y-33904677D01*
X133323793Y-34116020D01*
X133323793Y-34116024D01*
X133304723Y-34333997D01*
X133304723Y-34334002D01*
X133323793Y-34551975D01*
X133323793Y-34551979D01*
X133380422Y-34763322D01*
X133380424Y-34763326D01*
X133380425Y-34763330D01*
X133403160Y-34812085D01*
X133472897Y-34961638D01*
X133472898Y-34961639D01*
X133598402Y-35140877D01*
X133753123Y-35295598D01*
X133932361Y-35421102D01*
X134130670Y-35513575D01*
X134342023Y-35570207D01*
X134524926Y-35586208D01*
X134559998Y-35589277D01*
X134560000Y-35589277D01*
X134560002Y-35589277D01*
X134588254Y-35586805D01*
X134777977Y-35570207D01*
X134989330Y-35513575D01*
X135187639Y-35421102D01*
X135213599Y-35402924D01*
X135279804Y-35380598D01*
X135284721Y-35380500D01*
X136297209Y-35380500D01*
X136364248Y-35400185D01*
X136410003Y-35452989D01*
X136413391Y-35461167D01*
X136436202Y-35522328D01*
X136436206Y-35522335D01*
X136522452Y-35637544D01*
X136522455Y-35637547D01*
X136637664Y-35723793D01*
X136637671Y-35723797D01*
X136682618Y-35740561D01*
X136772517Y-35774091D01*
X136832127Y-35780500D01*
X137047299Y-35780499D01*
X137114337Y-35800183D01*
X137160092Y-35852987D01*
X137170036Y-35922145D01*
X137141011Y-35985701D01*
X137121611Y-36003764D01*
X137082811Y-36032810D01*
X137082809Y-36032812D01*
X136996649Y-36147906D01*
X136996645Y-36147913D01*
X136946403Y-36282620D01*
X136946401Y-36282627D01*
X136940000Y-36342155D01*
X136940000Y-37340000D01*
X141240000Y-37340000D01*
X141240000Y-36342172D01*
X141239999Y-36342155D01*
X141233598Y-36282627D01*
X141233597Y-36282623D01*
X141207727Y-36213262D01*
X141202743Y-36143570D01*
X141236228Y-36082247D01*
X141297551Y-36048762D01*
X141367242Y-36053746D01*
X141411590Y-36082247D01*
X142263181Y-36933838D01*
X142296666Y-36995161D01*
X142299500Y-37021519D01*
X142299500Y-41368060D01*
X142279815Y-41435099D01*
X142227011Y-41480854D01*
X142157853Y-41490798D01*
X142094297Y-41461773D01*
X142087819Y-41455741D01*
X142002262Y-41370184D01*
X141856477Y-41278581D01*
X141810186Y-41226246D01*
X141799160Y-41160330D01*
X141800500Y-41147873D01*
X141800499Y-39852128D01*
X141794091Y-39792517D01*
X141791227Y-39784839D01*
X141743797Y-39657671D01*
X141743793Y-39657664D01*
X141657547Y-39542455D01*
X141657544Y-39542452D01*
X141542335Y-39456206D01*
X141542328Y-39456202D01*
X141407486Y-39405910D01*
X141407485Y-39405909D01*
X141407483Y-39405909D01*
X141347873Y-39399500D01*
X141347864Y-39399500D01*
X141132701Y-39399500D01*
X141065662Y-39379815D01*
X141019907Y-39327011D01*
X141009963Y-39257853D01*
X141038988Y-39194297D01*
X141058390Y-39176233D01*
X141097191Y-39147186D01*
X141183350Y-39032093D01*
X141183354Y-39032086D01*
X141233596Y-38897379D01*
X141233598Y-38897372D01*
X141239999Y-38837844D01*
X141240000Y-38837827D01*
X141240000Y-37840000D01*
X136940000Y-37840000D01*
X136940000Y-38837844D01*
X136946401Y-38897372D01*
X136946403Y-38897379D01*
X136996645Y-39032086D01*
X136996649Y-39032093D01*
X137082809Y-39147187D01*
X137122278Y-39176734D01*
X137164148Y-39232668D01*
X137169132Y-39302360D01*
X137135646Y-39363682D01*
X137074323Y-39397167D01*
X137047966Y-39400000D01*
X136832155Y-39400000D01*
X136772627Y-39406401D01*
X136772620Y-39406403D01*
X136637913Y-39456645D01*
X136637906Y-39456649D01*
X136522812Y-39542809D01*
X136522809Y-39542812D01*
X136436649Y-39657906D01*
X136436645Y-39657913D01*
X136386403Y-39792620D01*
X136386401Y-39792627D01*
X136380000Y-39852155D01*
X136380000Y-40250000D01*
X137306000Y-40250000D01*
X137373039Y-40269685D01*
X137418794Y-40322489D01*
X137430000Y-40374000D01*
X137430000Y-40626000D01*
X137410315Y-40693039D01*
X137357511Y-40738794D01*
X137306000Y-40750000D01*
X136380000Y-40750000D01*
X136380000Y-41147844D01*
X136386401Y-41207372D01*
X136386403Y-41207379D01*
X136436645Y-41342086D01*
X136436649Y-41342093D01*
X136522809Y-41457187D01*
X136522812Y-41457190D01*
X136637906Y-41543350D01*
X136637913Y-41543354D01*
X136772620Y-41593596D01*
X136772627Y-41593598D01*
X136832155Y-41599999D01*
X136832172Y-41600000D01*
X137003980Y-41600000D01*
X137071019Y-41619685D01*
X137116774Y-41672489D01*
X137126718Y-41741647D01*
X137097693Y-41805203D01*
X137091661Y-41811681D01*
X136665162Y-42238181D01*
X136603839Y-42271666D01*
X136577481Y-42274500D01*
X136228384Y-42274500D01*
X136209145Y-42276248D01*
X136157807Y-42280913D01*
X135995393Y-42331522D01*
X135849811Y-42419530D01*
X135729530Y-42539811D01*
X135641522Y-42685393D01*
X135590913Y-42847807D01*
X135584500Y-42918386D01*
X135584500Y-43431613D01*
X135590913Y-43502192D01*
X135590913Y-43502194D01*
X135590914Y-43502196D01*
X135592302Y-43506649D01*
X135641522Y-43664606D01*
X135729530Y-43810188D01*
X135832015Y-43912673D01*
X135865500Y-43973996D01*
X135860516Y-44043688D01*
X135832015Y-44088035D01*
X135729928Y-44190121D01*
X135729927Y-44190122D01*
X135641980Y-44335604D01*
X135591409Y-44497893D01*
X135585000Y-44568427D01*
X135585000Y-44575000D01*
X137534999Y-44575000D01*
X137534999Y-44568417D01*
X137528591Y-44497897D01*
X137528590Y-44497892D01*
X137478018Y-44335603D01*
X137390072Y-44190122D01*
X137287984Y-44088034D01*
X137254499Y-44026711D01*
X137259483Y-43957019D01*
X137287983Y-43912673D01*
X137390472Y-43810185D01*
X137478478Y-43664606D01*
X137529086Y-43502196D01*
X137535500Y-43431616D01*
X137535500Y-43400519D01*
X137555185Y-43333480D01*
X137571819Y-43312838D01*
X138994112Y-41890545D01*
X138994114Y-41890543D01*
X139070775Y-41775811D01*
X139123580Y-41648328D01*
X139123581Y-41648319D01*
X139124062Y-41647160D01*
X139167903Y-41592757D01*
X139234197Y-41570691D01*
X139281958Y-41578430D01*
X139322623Y-41593597D01*
X139322627Y-41593598D01*
X139382155Y-41599999D01*
X139382172Y-41600000D01*
X139480000Y-41600000D01*
X139480000Y-40374000D01*
X139499685Y-40306961D01*
X139552489Y-40261206D01*
X139604000Y-40250000D01*
X139856000Y-40250000D01*
X139923039Y-40269685D01*
X139968794Y-40322489D01*
X139980000Y-40374000D01*
X139980000Y-41600000D01*
X140077828Y-41600000D01*
X140077844Y-41599999D01*
X140137372Y-41593598D01*
X140137374Y-41593598D01*
X140156331Y-41586527D01*
X140226023Y-41581541D01*
X140287347Y-41615024D01*
X140320833Y-41676347D01*
X140321285Y-41678515D01*
X140326419Y-41704323D01*
X140326421Y-41704332D01*
X140379222Y-41831807D01*
X140455887Y-41946545D01*
X140708630Y-42199288D01*
X140737990Y-42246013D01*
X140774209Y-42349520D01*
X140870184Y-42502262D01*
X140997738Y-42629816D01*
X141075909Y-42678934D01*
X141150474Y-42725787D01*
X141150478Y-42725789D01*
X141320745Y-42785368D01*
X141320750Y-42785369D01*
X141499996Y-42805565D01*
X141500000Y-42805565D01*
X141500004Y-42805565D01*
X141679249Y-42785369D01*
X141679252Y-42785368D01*
X141679255Y-42785368D01*
X141849522Y-42725789D01*
X142002262Y-42629816D01*
X142087819Y-42544259D01*
X142149142Y-42510774D01*
X142218834Y-42515758D01*
X142274767Y-42557630D01*
X142299184Y-42623094D01*
X142299500Y-42631940D01*
X142299500Y-43574507D01*
X142280494Y-43640478D01*
X142274209Y-43650479D01*
X142214633Y-43820737D01*
X142214630Y-43820750D01*
X142194435Y-43999996D01*
X142194435Y-44000003D01*
X142214630Y-44179249D01*
X142214631Y-44179254D01*
X142274211Y-44349523D01*
X142367438Y-44497892D01*
X142370184Y-44502262D01*
X142497738Y-44629816D01*
X142539263Y-44655908D01*
X142619308Y-44706204D01*
X142650478Y-44725789D01*
X142820745Y-44785368D01*
X142820750Y-44785369D01*
X142999996Y-44805565D01*
X143000000Y-44805565D01*
X143000004Y-44805565D01*
X143179249Y-44785369D01*
X143179252Y-44785368D01*
X143179255Y-44785368D01*
X143349522Y-44725789D01*
X143502262Y-44629816D01*
X143629816Y-44502262D01*
X143725789Y-44349522D01*
X143785368Y-44179255D01*
X143791005Y-44129225D01*
X143805565Y-44000003D01*
X143805565Y-43999996D01*
X143785369Y-43820750D01*
X143785366Y-43820737D01*
X143725790Y-43650479D01*
X143719506Y-43640478D01*
X143700500Y-43574507D01*
X143700500Y-36611004D01*
X143673581Y-36475677D01*
X143673580Y-36475676D01*
X143673580Y-36475672D01*
X143666046Y-36457483D01*
X143620777Y-36348193D01*
X143620773Y-36348186D01*
X143609704Y-36331621D01*
X143609702Y-36331616D01*
X143609702Y-36331617D01*
X143544112Y-36233454D01*
X141836818Y-34526160D01*
X141803333Y-34464837D01*
X141800499Y-34438479D01*
X141800499Y-34032129D01*
X141800498Y-34032123D01*
X141794091Y-33972516D01*
X141743797Y-33837671D01*
X141743795Y-33837668D01*
X141725233Y-33812872D01*
X141700816Y-33747408D01*
X141700500Y-33738561D01*
X141700500Y-33408499D01*
X141720185Y-33341460D01*
X141772989Y-33295705D01*
X141824500Y-33284499D01*
X141858338Y-33284499D01*
X141858344Y-33284499D01*
X141858352Y-33284498D01*
X141858355Y-33284498D01*
X141912760Y-33278940D01*
X141957708Y-33274349D01*
X142118697Y-33221003D01*
X142263044Y-33131968D01*
X142382968Y-33012044D01*
X142472003Y-32867697D01*
X142525349Y-32706708D01*
X142535500Y-32607345D01*
X142535499Y-32060656D01*
X142525349Y-31961292D01*
X142472003Y-31800303D01*
X142471999Y-31800297D01*
X142471998Y-31800294D01*
X142382970Y-31655959D01*
X142382967Y-31655955D01*
X142373339Y-31646327D01*
X142339854Y-31585004D01*
X142344838Y-31515312D01*
X142373345Y-31470959D01*
X142382573Y-31461731D01*
X142471542Y-31317492D01*
X142471547Y-31317481D01*
X142524855Y-31156606D01*
X142534999Y-31057322D01*
X142535000Y-31057309D01*
X142535000Y-31034000D01*
X140585001Y-31034000D01*
X140585001Y-31057322D01*
X140595144Y-31156607D01*
X140648452Y-31317481D01*
X140648457Y-31317492D01*
X140737424Y-31461728D01*
X140737427Y-31461732D01*
X140746660Y-31470965D01*
X140780145Y-31532288D01*
X140775161Y-31601980D01*
X140746663Y-31646324D01*
X140737033Y-31655953D01*
X140737029Y-31655959D01*
X140648001Y-31800294D01*
X140647996Y-31800305D01*
X140594651Y-31961290D01*
X140584500Y-32060647D01*
X140584500Y-32267479D01*
X140564815Y-32334518D01*
X140548182Y-32355159D01*
X140455889Y-32447453D01*
X140455885Y-32447457D01*
X140379223Y-32562191D01*
X140326421Y-32689668D01*
X140326418Y-32689680D01*
X140308345Y-32780541D01*
X140308345Y-32780543D01*
X140303922Y-32802775D01*
X140299500Y-32825006D01*
X140299500Y-33467744D01*
X140279815Y-33534783D01*
X140227011Y-33580538D01*
X140157853Y-33590482D01*
X140145142Y-33587238D01*
X140145035Y-33587693D01*
X140137491Y-33585910D01*
X140137483Y-33585909D01*
X140077873Y-33579500D01*
X140077863Y-33579500D01*
X139382129Y-33579500D01*
X139382123Y-33579501D01*
X139322516Y-33585908D01*
X139187671Y-33636202D01*
X139187665Y-33636205D01*
X139164309Y-33653690D01*
X139098845Y-33678106D01*
X139030572Y-33663253D01*
X139015691Y-33653690D01*
X138992334Y-33636205D01*
X138992328Y-33636202D01*
X138857486Y-33585910D01*
X138857485Y-33585909D01*
X138857483Y-33585909D01*
X138797873Y-33579500D01*
X138797863Y-33579500D01*
X138102129Y-33579500D01*
X138102123Y-33579501D01*
X138042512Y-33585909D01*
X138034969Y-33587692D01*
X138034307Y-33584893D01*
X137978139Y-33588910D01*
X137916816Y-33555423D01*
X137883333Y-33494099D01*
X137880500Y-33467744D01*
X137880500Y-32885004D01*
X137853581Y-32749677D01*
X137853580Y-32749676D01*
X137853580Y-32749672D01*
X137835784Y-32706708D01*
X137800778Y-32622195D01*
X137800771Y-32622182D01*
X137724115Y-32507459D01*
X137684631Y-32467975D01*
X137626542Y-32409886D01*
X137571818Y-32355162D01*
X137538333Y-32293839D01*
X137535499Y-32267481D01*
X137535499Y-32060662D01*
X137535498Y-32060644D01*
X137525349Y-31961292D01*
X137525348Y-31961289D01*
X137472003Y-31800303D01*
X137471999Y-31800297D01*
X137471998Y-31800294D01*
X137382970Y-31655959D01*
X137382967Y-31655955D01*
X137373339Y-31646327D01*
X137339854Y-31585004D01*
X137344838Y-31515312D01*
X137373345Y-31470959D01*
X137382573Y-31461731D01*
X137471542Y-31317492D01*
X137471547Y-31317481D01*
X137524855Y-31156606D01*
X137534999Y-31057322D01*
X137535000Y-31057309D01*
X137535000Y-31034000D01*
X136434000Y-31034000D01*
X136366961Y-31014315D01*
X136321206Y-30961511D01*
X136310000Y-30910000D01*
X136310000Y-29834000D01*
X136810000Y-29834000D01*
X136810000Y-30534000D01*
X137534999Y-30534000D01*
X140585000Y-30534000D01*
X141310000Y-30534000D01*
X141310000Y-29834000D01*
X141810000Y-29834000D01*
X141810000Y-30534000D01*
X142534999Y-30534000D01*
X142534999Y-30510692D01*
X142534998Y-30510677D01*
X142524855Y-30411392D01*
X142471547Y-30250518D01*
X142471542Y-30250507D01*
X142382575Y-30106271D01*
X142382572Y-30106267D01*
X142262732Y-29986427D01*
X142262728Y-29986424D01*
X142118492Y-29897457D01*
X142118481Y-29897452D01*
X141957606Y-29844144D01*
X141858322Y-29834000D01*
X141810000Y-29834000D01*
X141310000Y-29834000D01*
X141309999Y-29833999D01*
X141261693Y-29834000D01*
X141261675Y-29834001D01*
X141162392Y-29844144D01*
X141001518Y-29897452D01*
X141001507Y-29897457D01*
X140857271Y-29986424D01*
X140857267Y-29986427D01*
X140737427Y-30106267D01*
X140737424Y-30106271D01*
X140648457Y-30250507D01*
X140648452Y-30250518D01*
X140595144Y-30411393D01*
X140585000Y-30510677D01*
X140585000Y-30534000D01*
X137534999Y-30534000D01*
X137534999Y-30510692D01*
X137534998Y-30510677D01*
X137524855Y-30411392D01*
X137471547Y-30250518D01*
X137471542Y-30250507D01*
X137382575Y-30106271D01*
X137382572Y-30106267D01*
X137262732Y-29986427D01*
X137262728Y-29986424D01*
X137118492Y-29897457D01*
X137118481Y-29897452D01*
X136957606Y-29844144D01*
X136858322Y-29834000D01*
X136810000Y-29834000D01*
X136310000Y-29834000D01*
X136309999Y-29833999D01*
X136261693Y-29834000D01*
X136261675Y-29834001D01*
X136162392Y-29844144D01*
X136001518Y-29897452D01*
X136001507Y-29897457D01*
X135857271Y-29986424D01*
X135857267Y-29986427D01*
X135737426Y-30106268D01*
X135661623Y-30229164D01*
X135609675Y-30275888D01*
X135540712Y-30287109D01*
X135476630Y-30259266D01*
X135468404Y-30251747D01*
X134277373Y-29060716D01*
X134248012Y-29013989D01*
X134225788Y-28950476D01*
X134160149Y-28846013D01*
X134129816Y-28797738D01*
X134129815Y-28797737D01*
X134126111Y-28791842D01*
X134128409Y-28790397D01*
X134106659Y-28737151D01*
X134119401Y-28668453D01*
X134167261Y-28617550D01*
X134230012Y-28600500D01*
X134913331Y-28600500D01*
X134913347Y-28600501D01*
X134920943Y-28600501D01*
X135079054Y-28600501D01*
X135079057Y-28600501D01*
X135231785Y-28559577D01*
X135281904Y-28530639D01*
X135368716Y-28480520D01*
X135480520Y-28368716D01*
X135480520Y-28368714D01*
X135490728Y-28358507D01*
X135490729Y-28358504D01*
X136480520Y-27368716D01*
X136559577Y-27231784D01*
X136600501Y-27079057D01*
X136600501Y-26920942D01*
X136600501Y-26913347D01*
X136600500Y-26913329D01*
X136600500Y-26082412D01*
X136620185Y-26015373D01*
X136627555Y-26005097D01*
X136629810Y-26002267D01*
X136629816Y-26002262D01*
X136725789Y-25849522D01*
X136785368Y-25679255D01*
X136793296Y-25608890D01*
X136805565Y-25500003D01*
X136805565Y-25499996D01*
X136785369Y-25320750D01*
X136785368Y-25320745D01*
X136726973Y-25153863D01*
X136725789Y-25150478D01*
X136629816Y-24997738D01*
X136502262Y-24870184D01*
X136349523Y-24774211D01*
X136179254Y-24714631D01*
X136179249Y-24714630D01*
X136000004Y-24694435D01*
X135999996Y-24694435D01*
X135820750Y-24714630D01*
X135820745Y-24714631D01*
X135650476Y-24774211D01*
X135497737Y-24870184D01*
X135370182Y-24997739D01*
X135311168Y-25091660D01*
X135258834Y-25137950D01*
X135189780Y-25148598D01*
X135125932Y-25120223D01*
X135106909Y-25099998D01*
X135082547Y-25067455D01*
X135082544Y-25067452D01*
X134967335Y-24981206D01*
X134967328Y-24981202D01*
X134835917Y-24932189D01*
X134779983Y-24890318D01*
X134755566Y-24824853D01*
X134770418Y-24756580D01*
X134791563Y-24728332D01*
X134913495Y-24606401D01*
X135049035Y-24412830D01*
X135148903Y-24198663D01*
X135210063Y-23970408D01*
X135230659Y-23735000D01*
X135210063Y-23499592D01*
X135148903Y-23271337D01*
X135049035Y-23057171D01*
X135049034Y-23057169D01*
X134913494Y-22863597D01*
X134746402Y-22696506D01*
X134746395Y-22696501D01*
X134552834Y-22560967D01*
X134552830Y-22560965D01*
X134338662Y-22461096D01*
X134338657Y-22461095D01*
X134332046Y-22459323D01*
X134276468Y-22427232D01*
X133774798Y-21925562D01*
X133741313Y-21864239D01*
X133746297Y-21794547D01*
X133750000Y-21788785D01*
X133750000Y-21075000D01*
X134250000Y-21075000D01*
X134250000Y-21774999D01*
X134298308Y-21774999D01*
X134298322Y-21774998D01*
X134397607Y-21764855D01*
X134558481Y-21711547D01*
X134558492Y-21711542D01*
X134702728Y-21622575D01*
X134702732Y-21622572D01*
X134822572Y-21502732D01*
X134822575Y-21502728D01*
X134911542Y-21358492D01*
X134911547Y-21358481D01*
X134964855Y-21197606D01*
X134974999Y-21098322D01*
X134975000Y-21098309D01*
X134975000Y-21075000D01*
X136025001Y-21075000D01*
X136025001Y-21098322D01*
X136035144Y-21197607D01*
X136088452Y-21358481D01*
X136088457Y-21358492D01*
X136177424Y-21502728D01*
X136177427Y-21502732D01*
X136297267Y-21622572D01*
X136297271Y-21622575D01*
X136441507Y-21711542D01*
X136441518Y-21711547D01*
X136602393Y-21764855D01*
X136701683Y-21774999D01*
X136749999Y-21774998D01*
X136750000Y-21774998D01*
X136750000Y-21075000D01*
X137250000Y-21075000D01*
X137250000Y-21774999D01*
X137298308Y-21774999D01*
X137298322Y-21774998D01*
X137397607Y-21764855D01*
X137558481Y-21711547D01*
X137558492Y-21711542D01*
X137702728Y-21622575D01*
X137702732Y-21622572D01*
X137822572Y-21502732D01*
X137822575Y-21502728D01*
X137911542Y-21358492D01*
X137911547Y-21358481D01*
X137964855Y-21197606D01*
X137974999Y-21098322D01*
X137975000Y-21098309D01*
X137975000Y-21075000D01*
X137250000Y-21075000D01*
X136750000Y-21075000D01*
X136025001Y-21075000D01*
X134975000Y-21075000D01*
X134250000Y-21075000D01*
X133750000Y-21075000D01*
X133750000Y-20699000D01*
X133769685Y-20631961D01*
X133822489Y-20586206D01*
X133874000Y-20575000D01*
X134974999Y-20575000D01*
X134974999Y-20551692D01*
X134974998Y-20551677D01*
X134964855Y-20452392D01*
X134911547Y-20291518D01*
X134911542Y-20291507D01*
X134833262Y-20164597D01*
X134814821Y-20097205D01*
X134835743Y-20030542D01*
X134889385Y-19985772D01*
X134938800Y-19975500D01*
X136061200Y-19975500D01*
X136128239Y-19995185D01*
X136173994Y-20047989D01*
X136183938Y-20117147D01*
X136166738Y-20164597D01*
X136088457Y-20291507D01*
X136088452Y-20291518D01*
X136035144Y-20452393D01*
X136025000Y-20551677D01*
X136025000Y-20575000D01*
X137974999Y-20575000D01*
X137974999Y-20551692D01*
X137974998Y-20551677D01*
X137964855Y-20452392D01*
X137911547Y-20291518D01*
X137911542Y-20291507D01*
X137822575Y-20147271D01*
X137822572Y-20147267D01*
X137813339Y-20138034D01*
X137779854Y-20076711D01*
X137784838Y-20007019D01*
X137813343Y-19962668D01*
X137822968Y-19953044D01*
X137912003Y-19808697D01*
X137965349Y-19647708D01*
X137975500Y-19548345D01*
X137975499Y-19001656D01*
X137965349Y-18902292D01*
X137912003Y-18741303D01*
X137911999Y-18741297D01*
X137911998Y-18741294D01*
X137822970Y-18596959D01*
X137822967Y-18596955D01*
X137703044Y-18477032D01*
X137703040Y-18477029D01*
X137558705Y-18388001D01*
X137558699Y-18387998D01*
X137558697Y-18387997D01*
X137451661Y-18352529D01*
X137397709Y-18334651D01*
X137298346Y-18324500D01*
X136701662Y-18324500D01*
X136701644Y-18324501D01*
X136602292Y-18334650D01*
X136602289Y-18334651D01*
X136441305Y-18387996D01*
X136434755Y-18391051D01*
X136433437Y-18388224D01*
X136379490Y-18402958D01*
X136312836Y-18382003D01*
X136268093Y-18328340D01*
X136259464Y-18259005D01*
X136264804Y-18238025D01*
X136285366Y-18179262D01*
X136285369Y-18179249D01*
X136305565Y-18000003D01*
X136305565Y-17999996D01*
X136285369Y-17820750D01*
X136285367Y-17820742D01*
X136231030Y-17665454D01*
X136227469Y-17595676D01*
X136262198Y-17535048D01*
X136324191Y-17502821D01*
X136348072Y-17500500D01*
X143934108Y-17500500D01*
X143993038Y-17500500D01*
X144006922Y-17501280D01*
G37*
%TD.AperFunction*%
%TA.AperFunction,Conductor*%
G36*
X129045000Y-25841988D02*
G01*
X128987993Y-25809075D01*
X128860826Y-25775000D01*
X128729174Y-25775000D01*
X128602007Y-25809075D01*
X128545000Y-25841988D01*
X128545000Y-24168012D01*
X128602007Y-24200925D01*
X128729174Y-24235000D01*
X128860826Y-24235000D01*
X128987993Y-24200925D01*
X129045000Y-24168012D01*
X129045000Y-25841988D01*
G37*
%TD.AperFunction*%
%TA.AperFunction,Conductor*%
G36*
X130752256Y-17520185D02*
G01*
X130798011Y-17572989D01*
X130807955Y-17642147D01*
X130778930Y-17705703D01*
X130772898Y-17712181D01*
X130381286Y-18103792D01*
X130269481Y-18215596D01*
X130269479Y-18215598D01*
X130256532Y-18238025D01*
X130233452Y-18278000D01*
X130182888Y-18326215D01*
X130126066Y-18340000D01*
X130077155Y-18340000D01*
X130017627Y-18346401D01*
X130017620Y-18346403D01*
X129882913Y-18396645D01*
X129882906Y-18396649D01*
X129767812Y-18482809D01*
X129767809Y-18482812D01*
X129681649Y-18597906D01*
X129681645Y-18597913D01*
X129631403Y-18732620D01*
X129631401Y-18732627D01*
X129625000Y-18792155D01*
X129625000Y-18975000D01*
X130000500Y-18975000D01*
X130067539Y-18994685D01*
X130113294Y-19047489D01*
X130124500Y-19098938D01*
X130124501Y-19100938D01*
X130104850Y-19167987D01*
X130052069Y-19213769D01*
X130000501Y-19225000D01*
X129625000Y-19225000D01*
X129625000Y-19407844D01*
X129631401Y-19467372D01*
X129631402Y-19467376D01*
X129681648Y-19602091D01*
X129684832Y-19607921D01*
X129700000Y-19667348D01*
X129700000Y-19800000D01*
X130350119Y-19800000D01*
X130393452Y-19807818D01*
X130400643Y-19810500D01*
X130517517Y-19854091D01*
X130577127Y-19860500D01*
X130922872Y-19860499D01*
X130982483Y-19854091D01*
X130982486Y-19854089D01*
X130986744Y-19853632D01*
X131013254Y-19853632D01*
X131017514Y-19854089D01*
X131017517Y-19854091D01*
X131077127Y-19860500D01*
X131126000Y-19860499D01*
X131193037Y-19880182D01*
X131238793Y-19932985D01*
X131250000Y-19984499D01*
X131250000Y-20115500D01*
X131230315Y-20182539D01*
X131177511Y-20228294D01*
X131126002Y-20239500D01*
X131077131Y-20239500D01*
X131077120Y-20239501D01*
X131013248Y-20246367D01*
X130986742Y-20246367D01*
X130982483Y-20245909D01*
X130922873Y-20239500D01*
X130922865Y-20239500D01*
X130577130Y-20239500D01*
X130577120Y-20239501D01*
X130513248Y-20246367D01*
X130486742Y-20246367D01*
X130482483Y-20245909D01*
X130422873Y-20239500D01*
X130422865Y-20239500D01*
X130077130Y-20239500D01*
X130077123Y-20239501D01*
X130017516Y-20245908D01*
X129893452Y-20292182D01*
X129850119Y-20300000D01*
X129700000Y-20300000D01*
X129700000Y-20431598D01*
X129684832Y-20491026D01*
X129681202Y-20497672D01*
X129631116Y-20631961D01*
X129630909Y-20632517D01*
X129624500Y-20692127D01*
X129624500Y-20692134D01*
X129624500Y-20692135D01*
X129624500Y-21307870D01*
X129624501Y-21307876D01*
X129630908Y-21367481D01*
X129641682Y-21396366D01*
X129649500Y-21439700D01*
X129649500Y-22449258D01*
X129629815Y-22516297D01*
X129577011Y-22562052D01*
X129507853Y-22571996D01*
X129473096Y-22561640D01*
X129258497Y-22461571D01*
X129258486Y-22461567D01*
X129045000Y-22404364D01*
X129045000Y-23301988D01*
X128987993Y-23269075D01*
X128860826Y-23235000D01*
X128729174Y-23235000D01*
X128602007Y-23269075D01*
X128545000Y-23301988D01*
X128545000Y-22404364D01*
X128544999Y-22404364D01*
X128331513Y-22461567D01*
X128331507Y-22461570D01*
X128117422Y-22561399D01*
X128117420Y-22561400D01*
X127923926Y-22696886D01*
X127923920Y-22696891D01*
X127756891Y-22863920D01*
X127756890Y-22863922D01*
X127626880Y-23049595D01*
X127572303Y-23093219D01*
X127502804Y-23100412D01*
X127440450Y-23068890D01*
X127423730Y-23049594D01*
X127293494Y-22863597D01*
X127126402Y-22696506D01*
X127126395Y-22696501D01*
X126932834Y-22560967D01*
X126932830Y-22560965D01*
X126887064Y-22539624D01*
X126718663Y-22461097D01*
X126718659Y-22461096D01*
X126718655Y-22461094D01*
X126490413Y-22399938D01*
X126490403Y-22399936D01*
X126255001Y-22379341D01*
X126254999Y-22379341D01*
X126019596Y-22399936D01*
X126019586Y-22399938D01*
X125791344Y-22461094D01*
X125791335Y-22461098D01*
X125577171Y-22560964D01*
X125577169Y-22560965D01*
X125383597Y-22696505D01*
X125216505Y-22863597D01*
X125086575Y-23049158D01*
X125031998Y-23092783D01*
X124962500Y-23099977D01*
X124900145Y-23068454D01*
X124883425Y-23049158D01*
X124753494Y-22863597D01*
X124586402Y-22696506D01*
X124586396Y-22696501D01*
X124440296Y-22594201D01*
X124396671Y-22539624D01*
X124389802Y-22516816D01*
X124388580Y-22510672D01*
X124388578Y-22510667D01*
X124335777Y-22383192D01*
X124259112Y-22268454D01*
X124259111Y-22268453D01*
X123791367Y-21800710D01*
X123762006Y-21753983D01*
X123751864Y-21724999D01*
X123725789Y-21650478D01*
X123708256Y-21622575D01*
X123629815Y-21497737D01*
X123502262Y-21370184D01*
X123349523Y-21274211D01*
X123179254Y-21214631D01*
X123179249Y-21214630D01*
X123000004Y-21194435D01*
X122999996Y-21194435D01*
X122820750Y-21214630D01*
X122820745Y-21214631D01*
X122650476Y-21274211D01*
X122497737Y-21370184D01*
X122370184Y-21497737D01*
X122274211Y-21650476D01*
X122214631Y-21820745D01*
X122214630Y-21820750D01*
X122194435Y-21999996D01*
X122194435Y-22000003D01*
X122214630Y-22179249D01*
X122214631Y-22179254D01*
X122274211Y-22349523D01*
X122344615Y-22461570D01*
X122370184Y-22502262D01*
X122497738Y-22629816D01*
X122549032Y-22662046D01*
X122625200Y-22709906D01*
X122671491Y-22762241D01*
X122682139Y-22831295D01*
X122660803Y-22886023D01*
X122546575Y-23049158D01*
X122491998Y-23092783D01*
X122422500Y-23099977D01*
X122360145Y-23068454D01*
X122343425Y-23049158D01*
X122213494Y-22863597D01*
X122046402Y-22696506D01*
X122046395Y-22696501D01*
X121852834Y-22560967D01*
X121852830Y-22560965D01*
X121807064Y-22539624D01*
X121638663Y-22461097D01*
X121638659Y-22461096D01*
X121638655Y-22461094D01*
X121410413Y-22399938D01*
X121410403Y-22399936D01*
X121175001Y-22379341D01*
X121174999Y-22379341D01*
X120939596Y-22399936D01*
X120939586Y-22399938D01*
X120711344Y-22461094D01*
X120711335Y-22461098D01*
X120497171Y-22560964D01*
X120497169Y-22560965D01*
X120303597Y-22696505D01*
X120136505Y-22863597D01*
X120006575Y-23049158D01*
X119951998Y-23092783D01*
X119882500Y-23099977D01*
X119820145Y-23068454D01*
X119803425Y-23049158D01*
X119673494Y-22863597D01*
X119506402Y-22696506D01*
X119506395Y-22696501D01*
X119312831Y-22560965D01*
X119312828Y-22560963D01*
X119278398Y-22544908D01*
X119225960Y-22498735D01*
X119211030Y-22464620D01*
X119210212Y-22461567D01*
X119194577Y-22403215D01*
X119192684Y-22399937D01*
X119163578Y-22349523D01*
X119163576Y-22349521D01*
X119161002Y-22345063D01*
X119115520Y-22266284D01*
X119003716Y-22154480D01*
X119003715Y-22154479D01*
X118999385Y-22150149D01*
X118999374Y-22150139D01*
X118749798Y-21900563D01*
X118716313Y-21839240D01*
X118721297Y-21769548D01*
X118749798Y-21725201D01*
X118750000Y-21724999D01*
X118750000Y-21025000D01*
X119250000Y-21025000D01*
X119250000Y-21724999D01*
X119298308Y-21724999D01*
X119298322Y-21724998D01*
X119397607Y-21714855D01*
X119558481Y-21661547D01*
X119558492Y-21661542D01*
X119702728Y-21572575D01*
X119702732Y-21572572D01*
X119822572Y-21452732D01*
X119822575Y-21452728D01*
X119911542Y-21308492D01*
X119911547Y-21308481D01*
X119964855Y-21147606D01*
X119974999Y-21048322D01*
X119975000Y-21048309D01*
X119975000Y-21025000D01*
X119250000Y-21025000D01*
X118750000Y-21025000D01*
X118025000Y-21025000D01*
X118011780Y-21038220D01*
X117950457Y-21071704D01*
X117880765Y-21066719D01*
X117862099Y-21057925D01*
X117831785Y-21040423D01*
X117823563Y-21038220D01*
X117679057Y-20999499D01*
X117520943Y-20999499D01*
X117513347Y-20999499D01*
X117513331Y-20999500D01*
X115874000Y-20999500D01*
X115806961Y-20979815D01*
X115761206Y-20927011D01*
X115750000Y-20875500D01*
X115750000Y-20649000D01*
X115769685Y-20581961D01*
X115822489Y-20536206D01*
X115874000Y-20525000D01*
X116974999Y-20525000D01*
X116974999Y-20501692D01*
X116974998Y-20501677D01*
X116964855Y-20402392D01*
X116911547Y-20241518D01*
X116911542Y-20241507D01*
X116833262Y-20114597D01*
X116814821Y-20047205D01*
X116835743Y-19980542D01*
X116889385Y-19935772D01*
X116938800Y-19925500D01*
X118061200Y-19925500D01*
X118128239Y-19945185D01*
X118173994Y-19997989D01*
X118183938Y-20067147D01*
X118166738Y-20114597D01*
X118088457Y-20241507D01*
X118088452Y-20241518D01*
X118035144Y-20402393D01*
X118025000Y-20501677D01*
X118025000Y-20525000D01*
X119974999Y-20525000D01*
X119974999Y-20501692D01*
X119974998Y-20501677D01*
X119964855Y-20402392D01*
X119911547Y-20241518D01*
X119911542Y-20241507D01*
X119822575Y-20097271D01*
X119822572Y-20097267D01*
X119813339Y-20088034D01*
X119779854Y-20026711D01*
X119784838Y-19957019D01*
X119813343Y-19912668D01*
X119822968Y-19903044D01*
X119834465Y-19884403D01*
X119886412Y-19837679D01*
X119940004Y-19825500D01*
X119955145Y-19825500D01*
X120021117Y-19844506D01*
X120114279Y-19903044D01*
X120150478Y-19925789D01*
X120292544Y-19975500D01*
X120320745Y-19985368D01*
X120320750Y-19985369D01*
X120499996Y-20005565D01*
X120500000Y-20005565D01*
X120500004Y-20005565D01*
X120679249Y-19985369D01*
X120679252Y-19985368D01*
X120679255Y-19985368D01*
X120849522Y-19925789D01*
X121002262Y-19829816D01*
X121129816Y-19702262D01*
X121225789Y-19549522D01*
X121285368Y-19379255D01*
X121285369Y-19379249D01*
X121305565Y-19200003D01*
X121305565Y-19199996D01*
X121285369Y-19020750D01*
X121285368Y-19020745D01*
X121269361Y-18975000D01*
X121225789Y-18850478D01*
X121129816Y-18697738D01*
X121002262Y-18570184D01*
X120965289Y-18546952D01*
X120849523Y-18474211D01*
X120679254Y-18414631D01*
X120679249Y-18414630D01*
X120500004Y-18394435D01*
X120499996Y-18394435D01*
X120320750Y-18414630D01*
X120320745Y-18414631D01*
X120150476Y-18474211D01*
X119991842Y-18573889D01*
X119990916Y-18572415D01*
X119934465Y-18595453D01*
X119865771Y-18582688D01*
X119828188Y-18551949D01*
X119828075Y-18552063D01*
X119826940Y-18550928D01*
X119824585Y-18549002D01*
X119822970Y-18546960D01*
X119822968Y-18546956D01*
X119703044Y-18427032D01*
X119703040Y-18427029D01*
X119558705Y-18338001D01*
X119558699Y-18337998D01*
X119558697Y-18337997D01*
X119523141Y-18326215D01*
X119397709Y-18284651D01*
X119298346Y-18274500D01*
X118701662Y-18274500D01*
X118701644Y-18274501D01*
X118602292Y-18284650D01*
X118602289Y-18284651D01*
X118441305Y-18337996D01*
X118441294Y-18338001D01*
X118296959Y-18427029D01*
X118296955Y-18427032D01*
X118235807Y-18488181D01*
X118174484Y-18521666D01*
X118148126Y-18524500D01*
X116851874Y-18524500D01*
X116784835Y-18504815D01*
X116764193Y-18488181D01*
X116703044Y-18427032D01*
X116703040Y-18427029D01*
X116558705Y-18338001D01*
X116558699Y-18337998D01*
X116558697Y-18337997D01*
X116523141Y-18326215D01*
X116397709Y-18284651D01*
X116298346Y-18274500D01*
X115701662Y-18274500D01*
X115701644Y-18274501D01*
X115602292Y-18284650D01*
X115602289Y-18284651D01*
X115441305Y-18337996D01*
X115441294Y-18338001D01*
X115290809Y-18430823D01*
X115289131Y-18428103D01*
X115237534Y-18448909D01*
X115225440Y-18449500D01*
X114296588Y-18449500D01*
X114229549Y-18429815D01*
X114222283Y-18424771D01*
X114125780Y-18352529D01*
X114117330Y-18346203D01*
X114117328Y-18346202D01*
X113982482Y-18295908D01*
X113982483Y-18295908D01*
X113922883Y-18289501D01*
X113922881Y-18289500D01*
X113922873Y-18289500D01*
X113922865Y-18289500D01*
X113893853Y-18289500D01*
X113826814Y-18269815D01*
X113786466Y-18227501D01*
X113766654Y-18193186D01*
X113766654Y-18193184D01*
X113730524Y-18130605D01*
X113730521Y-18130601D01*
X113730520Y-18130599D01*
X113618716Y-18018795D01*
X113618715Y-18018794D01*
X113614385Y-18014464D01*
X113614374Y-18014454D01*
X113312101Y-17712181D01*
X113278616Y-17650858D01*
X113283600Y-17581166D01*
X113325472Y-17525233D01*
X113390936Y-17500816D01*
X113399782Y-17500500D01*
X130685217Y-17500500D01*
X130752256Y-17520185D01*
G37*
%TD.AperFunction*%
%TD*%
M02*
