M48
; DRILL file {KiCad 8.0.1} date 2024-03-24T23:22:49+0200
; FORMAT={-:-/ absolute / inch / decimal}
; #@! TF.CreationDate,2024-03-24T23:22:49+02:00
; #@! TF.GenerationSoftware,Kicad,Pcbnew,8.0.1
; #@! TF.FileFunction,Plated,1,2,PTH
FMAT,2
INCH
; #@! TA.AperFunction,Plated,PTH,ViaDrill
T1C0.0118
; #@! TA.AperFunction,Plated,PTH,ComponentDrill
T2C0.0276
; #@! TA.AperFunction,Plated,PTH,ComponentDrill
T3C0.0295
; #@! TA.AperFunction,Plated,PTH,ComponentDrill
T4C0.0354
; #@! TA.AperFunction,Plated,PTH,ComponentDrill
T5C0.0394
%
G90
G05
T1
X4.4843Y-1.8465
X4.5104Y-0.78
X4.5177Y-0.7087
X4.7441Y-0.7559
X4.811Y-1.126
X4.8425Y-0.8661
X4.9705Y-1.2697
X5.0079Y-1.8504
X5.0689Y-0.7283
X5.0787Y-0.7874
X5.1181Y-1.6535
X5.1614Y-1.9252
X5.2165Y-0.8425
X5.2283Y-0.7205
X5.2283Y-0.7795
X5.2559Y-1.1535
X5.3051Y-1.7224
X5.3248Y-1.5945
X5.3346Y-0.7087
X5.3543Y-1.0039
X5.5028Y-1.7134
X5.5709Y-1.6535
X5.6299Y-1.7323
T2
X4.4094Y-1.2992
X4.7146Y-1.2697
X5.0683Y-2.0276
X5.2953Y-1.9291
X5.2976Y-1.3517
T3
X5.4724Y-1.9291
X5.5512Y-1.9291
T4
X4.6949Y-2.063
X4.813Y-2.063
T5
X4.5707Y-0.9344
X4.5707Y-1.0344
X4.6707Y-0.9344
X4.6707Y-1.0344
X4.7707Y-0.9344
X4.7707Y-1.0344
X4.8707Y-0.9344
X4.8707Y-1.0344
X4.9707Y-0.9344
X4.9707Y-1.0344
X5.0707Y-0.9344
X5.0707Y-1.0344
X5.1707Y-0.9344
X5.1707Y-1.0344
X5.2707Y-0.9344
X5.2707Y-1.0344
M30
