%TF.GenerationSoftware,KiCad,Pcbnew,(7.0.0)*%
%TF.CreationDate,2024-04-01T18:59:34+02:00*%
%TF.ProjectId,Sensing_Subsystem,53656e73-696e-4675-9f53-756273797374,rev?*%
%TF.SameCoordinates,Original*%
%TF.FileFunction,Soldermask,Top*%
%TF.FilePolarity,Negative*%
%FSLAX46Y46*%
G04 Gerber Fmt 4.6, Leading zero omitted, Abs format (unit mm)*
G04 Created by KiCad (PCBNEW (7.0.0)) date 2024-04-01 18:59:34*
%MOMM*%
%LPD*%
G01*
G04 APERTURE LIST*
G04 Aperture macros list*
%AMRoundRect*
0 Rectangle with rounded corners*
0 $1 Rounding radius*
0 $2 $3 $4 $5 $6 $7 $8 $9 X,Y pos of 4 corners*
0 Add a 4 corners polygon primitive as box body*
4,1,4,$2,$3,$4,$5,$6,$7,$8,$9,$2,$3,0*
0 Add four circle primitives for the rounded corners*
1,1,$1+$1,$2,$3*
1,1,$1+$1,$4,$5*
1,1,$1+$1,$6,$7*
1,1,$1+$1,$8,$9*
0 Add four rect primitives between the rounded corners*
20,1,$1+$1,$2,$3,$4,$5,0*
20,1,$1+$1,$4,$5,$6,$7,0*
20,1,$1+$1,$6,$7,$8,$9,0*
20,1,$1+$1,$8,$9,$2,$3,0*%
%AMRotRect*
0 Rectangle, with rotation*
0 The origin of the aperture is its center*
0 $1 length*
0 $2 width*
0 $3 Rotation angle, in degrees counterclockwise*
0 Add horizontal line*
21,1,$1,$2,0,0,$3*%
G04 Aperture macros list end*
%ADD10RoundRect,0.200000X-0.200000X-0.275000X0.200000X-0.275000X0.200000X0.275000X-0.200000X0.275000X0*%
%ADD11RoundRect,0.250000X-1.050000X-0.550000X1.050000X-0.550000X1.050000X0.550000X-1.050000X0.550000X0*%
%ADD12RoundRect,0.200000X0.200000X0.275000X-0.200000X0.275000X-0.200000X-0.275000X0.200000X-0.275000X0*%
%ADD13RoundRect,0.200000X-0.335876X-0.053033X-0.053033X-0.335876X0.335876X0.053033X0.053033X0.335876X0*%
%ADD14R,1.000000X1.000000*%
%ADD15RotRect,1.800000X1.800000X315.000000*%
%ADD16C,1.800000*%
%ADD17R,1.050000X1.500000*%
%ADD18O,1.050000X1.500000*%
%ADD19C,1.365000*%
%ADD20RotRect,1.800000X1.800000X45.000000*%
%ADD21R,1.700000X1.700000*%
%ADD22O,1.700000X1.700000*%
%ADD23R,1.800000X1.800000*%
G04 APERTURE END LIST*
D10*
%TO.C,R4*%
X222949000Y-74168000D03*
X224599000Y-74168000D03*
%TD*%
D11*
%TO.C,C5*%
X173079000Y-84074000D03*
X176679000Y-84074000D03*
%TD*%
D10*
%TO.C,R12*%
X187516000Y-73152000D03*
X189166000Y-73152000D03*
%TD*%
D12*
%TO.C,R11*%
X196786000Y-69342000D03*
X195136000Y-69342000D03*
%TD*%
D10*
%TO.C,R10*%
X189421000Y-78105000D03*
X191071000Y-78105000D03*
%TD*%
%TO.C,R9*%
X185738000Y-78105000D03*
X187388000Y-78105000D03*
%TD*%
%TO.C,R8*%
X218504000Y-64262000D03*
X220154000Y-64262000D03*
%TD*%
%TO.C,R7*%
X218504000Y-74168000D03*
X220154000Y-74168000D03*
%TD*%
D12*
%TO.C,R6*%
X195136000Y-78359000D03*
X196786000Y-78359000D03*
%TD*%
%TO.C,R5*%
X196786000Y-73914000D03*
X195136000Y-73914000D03*
%TD*%
D10*
%TO.C,R3*%
X218504000Y-78359000D03*
X220154000Y-78359000D03*
%TD*%
%TO.C,R2*%
X222949000Y-78613000D03*
X224599000Y-78613000D03*
%TD*%
D13*
%TO.C,R1*%
X227786363Y-71449363D03*
X226619637Y-70282637D03*
%TD*%
D11*
%TO.C,C6*%
X180731000Y-84074000D03*
X184331000Y-84074000D03*
%TD*%
%TO.C,C4*%
X214684000Y-70104000D03*
X211084000Y-70104000D03*
%TD*%
%TO.C,C3*%
X201059000Y-70231000D03*
X204659000Y-70231000D03*
%TD*%
%TO.C,C2*%
X229372000Y-84074000D03*
X232972000Y-84074000D03*
%TD*%
%TO.C,C1*%
X237214000Y-84074000D03*
X240814000Y-84074000D03*
%TD*%
D14*
%TO.C,TP1*%
X230250999Y-77215999D03*
%TD*%
D15*
%TO.C,D1*%
X236449417Y-71387601D03*
D16*
X238245469Y-73183653D03*
%TD*%
D14*
%TO.C,TP3*%
X182117999Y-77215999D03*
%TD*%
D17*
%TO.C,Q3*%
X206374999Y-77850999D03*
D18*
X207644999Y-77850999D03*
X208914999Y-77850999D03*
%TD*%
D19*
%TO.C,Q7*%
X231864857Y-66930041D03*
X233680000Y-68707000D03*
%TD*%
D20*
%TO.C,D3*%
X176897397Y-73254417D03*
D16*
X178693449Y-71458367D03*
%TD*%
D19*
%TO.C,Q4*%
X181483000Y-68834000D03*
X183259959Y-67018857D03*
%TD*%
D21*
%TO.C,J1*%
X190459999Y-83401999D03*
D22*
X190459999Y-85941999D03*
X192999999Y-83401999D03*
X192999999Y-85941999D03*
X195539999Y-83401999D03*
X195539999Y-85941999D03*
X198079999Y-83401999D03*
X198079999Y-85941999D03*
X200619999Y-83401999D03*
X200619999Y-85941999D03*
X203159999Y-83401999D03*
X203159999Y-85941999D03*
X205699999Y-83401999D03*
X205699999Y-85941999D03*
X208239999Y-83401999D03*
X208239999Y-85941999D03*
X210779999Y-83401999D03*
X210779999Y-85941999D03*
X213319999Y-83401999D03*
X213319999Y-85941999D03*
X215859999Y-83401999D03*
X215859999Y-85941999D03*
X218399999Y-83401999D03*
X218399999Y-85941999D03*
X220939999Y-83401999D03*
X220939999Y-85941999D03*
X223479999Y-83401999D03*
X223479999Y-85941999D03*
%TD*%
D19*
%TO.C,Q2*%
X210940000Y-63373000D03*
X213480000Y-63346000D03*
%TD*%
D14*
%TO.C,TP2*%
X220217999Y-68706999D03*
%TD*%
D17*
%TO.C,Q1*%
X213105999Y-77850999D03*
D18*
X214375999Y-77850999D03*
X215645999Y-77850999D03*
%TD*%
D17*
%TO.C,Q5*%
X199389999Y-77850999D03*
D18*
X200659999Y-77850999D03*
X201929999Y-77850999D03*
%TD*%
D23*
%TO.C,D2*%
X204469999Y-63218999D03*
D16*
X207010000Y-63219000D03*
%TD*%
M02*
