%TF.GenerationSoftware,KiCad,Pcbnew,8.0.1*%
%TF.CreationDate,2024-03-24T23:22:49+02:00*%
%TF.ProjectId,EEE3088F_2024_Group_52_Power,45454533-3038-4384-965f-323032345f47,rev?*%
%TF.SameCoordinates,Original*%
%TF.FileFunction,Copper,L2,Bot*%
%TF.FilePolarity,Positive*%
%FSLAX46Y46*%
G04 Gerber Fmt 4.6, Leading zero omitted, Abs format (unit mm)*
G04 Created by KiCad (PCBNEW 8.0.1) date 2024-03-24 23:22:49*
%MOMM*%
%LPD*%
G01*
G04 APERTURE LIST*
G04 Aperture macros list*
%AMRoundRect*
0 Rectangle with rounded corners*
0 $1 Rounding radius*
0 $2 $3 $4 $5 $6 $7 $8 $9 X,Y pos of 4 corners*
0 Add a 4 corners polygon primitive as box body*
4,1,4,$2,$3,$4,$5,$6,$7,$8,$9,$2,$3,0*
0 Add four circle primitives for the rounded corners*
1,1,$1+$1,$2,$3*
1,1,$1+$1,$4,$5*
1,1,$1+$1,$6,$7*
1,1,$1+$1,$8,$9*
0 Add four rect primitives between the rounded corners*
20,1,$1+$1,$2,$3,$4,$5,0*
20,1,$1+$1,$4,$5,$6,$7,0*
20,1,$1+$1,$6,$7,$8,$9,0*
20,1,$1+$1,$8,$9,$2,$3,0*%
G04 Aperture macros list end*
%TA.AperFunction,ComponentPad*%
%ADD10O,1.700000X1.700000*%
%TD*%
%TA.AperFunction,ComponentPad*%
%ADD11R,1.700000X1.700000*%
%TD*%
%TA.AperFunction,ComponentPad*%
%ADD12RoundRect,0.250000X-0.350000X-0.625000X0.350000X-0.625000X0.350000X0.625000X-0.350000X0.625000X0*%
%TD*%
%TA.AperFunction,ComponentPad*%
%ADD13O,1.200000X1.750000*%
%TD*%
%TA.AperFunction,ComponentPad*%
%ADD14C,1.500000*%
%TD*%
%TA.AperFunction,ComponentPad*%
%ADD15C,0.900000*%
%TD*%
%TA.AperFunction,ViaPad*%
%ADD16C,0.600000*%
%TD*%
%TA.AperFunction,Conductor*%
%ADD17C,0.400000*%
%TD*%
%TA.AperFunction,Conductor*%
%ADD18C,0.200000*%
%TD*%
G04 APERTURE END LIST*
D10*
%TO.P,J1,16,Pin_16*%
%TO.N,PWM4*%
X116095000Y-23735000D03*
%TO.P,J1,15,Pin_15*%
%TO.N,Motor1_B*%
X116095000Y-26275000D03*
%TO.P,J1,14,Pin_14*%
%TO.N,PWM3*%
X118635000Y-23735000D03*
%TO.P,J1,13,Pin_13*%
%TO.N,Motor1_A*%
X118635000Y-26275000D03*
%TO.P,J1,12,Pin_12*%
%TO.N,5V*%
X121175000Y-23735000D03*
%TO.P,J1,11,Pin_11*%
X121175000Y-26275000D03*
%TO.P,J1,10,Pin_10*%
%TO.N,BATT_ADC*%
X123715000Y-23735000D03*
%TO.P,J1,9,Pin_9*%
%TO.N,RESV*%
X123715000Y-26275000D03*
%TO.P,J1,8,Pin_8*%
%TO.N,VCC*%
X126255000Y-23735000D03*
%TO.P,J1,7,Pin_7*%
X126255000Y-26275000D03*
%TO.P,J1,6,Pin_6*%
%TO.N,GND*%
X128795000Y-23735000D03*
%TO.P,J1,5,Pin_5*%
X128795000Y-26275000D03*
%TO.P,J1,4,Pin_4*%
%TO.N,PWM2*%
X131335000Y-23735000D03*
%TO.P,J1,3,Pin_3*%
%TO.N,Motor2_B*%
X131335000Y-26275000D03*
%TO.P,J1,2,Pin_2*%
%TO.N,PWM1*%
X133875000Y-23735000D03*
D11*
%TO.P,J1,1,Pin_1*%
%TO.N,Motor2_A*%
X133875000Y-26275000D03*
%TD*%
D12*
%TO.P,J2,1,Pin_1*%
%TO.N,BATT*%
X139000000Y-49000000D03*
D13*
%TO.P,J2,2,Pin_2*%
%TO.N,GND*%
X141000000Y-49000000D03*
%TD*%
D14*
%TO.P,TP16,1,1*%
%TO.N,BATT*%
X134500000Y-49000000D03*
%TD*%
%TO.P,TP13,1,1*%
%TO.N,5V*%
X134560000Y-34334000D03*
%TD*%
%TO.P,TP4,1,1*%
%TO.N,VCC*%
X128736000Y-51500000D03*
%TD*%
%TO.P,TP2,1,1*%
%TO.N,BATT_ADC*%
X112000000Y-33000000D03*
%TD*%
%TO.P,TP1,1,1*%
%TO.N,Net-(JP3-A)*%
X119750000Y-32250000D03*
%TD*%
D15*
%TO.P,SW1,*%
%TO.N,*%
X122250000Y-52400000D03*
X119250000Y-52400000D03*
%TD*%
D16*
%TO.N,GND*%
X134750000Y-43750000D03*
X135250000Y-40500000D03*
X139770000Y-43520000D03*
%TO.N,VCC*%
X126250000Y-32250000D03*
%TO.N,GND*%
X128750000Y-18500000D03*
X129000000Y-20000000D03*
X114750000Y-18000000D03*
X114563235Y-19813235D03*
%TO.N,5V*%
X141500000Y-42000000D03*
%TO.N,BATT*%
X143000000Y-44000000D03*
%TO.N,VCC*%
X130000000Y-42000000D03*
X120500000Y-19200000D03*
X127200000Y-47000000D03*
X132500000Y-21400000D03*
X132800000Y-19800000D03*
%TO.N,5V*%
X133500000Y-29300000D03*
X122200000Y-28600000D03*
%TO.N,BATT_ADC*%
X123000000Y-22000000D03*
%TO.N,BATT*%
X131100000Y-48900000D03*
X113900000Y-46900000D03*
%TO.N,Motor2_B*%
X135500000Y-18000000D03*
%TO.N,Motor2_A*%
X132800000Y-18300000D03*
%TO.N,Motor2_B*%
X136000000Y-25500000D03*
%TD*%
D17*
%TO.N,GND*%
X136000000Y-45000000D02*
X134750000Y-43750000D01*
X138290000Y-45000000D02*
X136000000Y-45000000D01*
X139770000Y-43520000D02*
X138290000Y-45000000D01*
X134750000Y-41000000D02*
X134750000Y-43750000D01*
X135250000Y-40500000D02*
X134750000Y-41000000D01*
%TO.N,VCC*%
X131000000Y-37000000D02*
X126250000Y-32250000D01*
X131000000Y-39050000D02*
X131000000Y-37000000D01*
D18*
%TO.N,GND*%
X128250000Y-18500000D02*
X128000000Y-18750000D01*
X128000000Y-19000000D02*
X129000000Y-20000000D01*
X128750000Y-18500000D02*
X128250000Y-18500000D01*
X128000000Y-18750000D02*
X128000000Y-19000000D01*
X114563235Y-18186765D02*
X114750000Y-18000000D01*
X114563235Y-19813235D02*
X114563235Y-18186765D01*
%TO.N,Motor2_B*%
X136000000Y-18500000D02*
X135500000Y-18000000D01*
X136000000Y-25500000D02*
X136000000Y-18500000D01*
D17*
%TO.N,VCC*%
X131000000Y-41000000D02*
X131000000Y-39050000D01*
X130000000Y-42000000D02*
X131000000Y-41000000D01*
%TO.N,5V*%
X132800000Y-28600000D02*
X122200000Y-28600000D01*
X133500000Y-29300000D02*
X132800000Y-28600000D01*
X141500000Y-44500000D02*
X141500000Y-42000000D01*
X136000000Y-46500000D02*
X139500000Y-46500000D01*
X133500000Y-44000000D02*
X136000000Y-46500000D01*
X139500000Y-46500000D02*
X141500000Y-44500000D01*
X133500000Y-35394000D02*
X133500000Y-44000000D01*
X134560000Y-34334000D02*
X133500000Y-35394000D01*
%TO.N,BATT*%
X143000000Y-44000000D02*
X139000000Y-48000000D01*
X139000000Y-48000000D02*
X139000000Y-49000000D01*
X131500000Y-49000000D02*
X139000000Y-49000000D01*
X131100000Y-48900000D02*
X131400000Y-48900000D01*
X131400000Y-48900000D02*
X131500000Y-49000000D01*
%TO.N,BATT_ADC*%
X114000000Y-31000000D02*
X112000000Y-33000000D01*
X114000000Y-31000000D02*
X114000000Y-30000000D01*
X114000000Y-23000000D02*
X114000000Y-30000000D01*
D18*
%TO.N,VCC*%
X125200000Y-19200000D02*
X126255000Y-20255000D01*
X120500000Y-19200000D02*
X125200000Y-19200000D01*
D17*
%TO.N,BATT_ADC*%
X115000000Y-22000000D02*
X114000000Y-23000000D01*
X123000000Y-22000000D02*
X115000000Y-22000000D01*
D18*
%TO.N,VCC*%
X126255000Y-20255000D02*
X126255000Y-23735000D01*
D17*
X127200000Y-44800000D02*
X127200000Y-47000000D01*
X127200000Y-44800000D02*
X130000000Y-42000000D01*
D18*
X128590000Y-21400000D02*
X126255000Y-23735000D01*
X132500000Y-21400000D02*
X128590000Y-21400000D01*
X132800000Y-21100000D02*
X132500000Y-21400000D01*
X132800000Y-19800000D02*
X132800000Y-21100000D01*
D17*
%TO.N,BATT*%
X113900000Y-46900000D02*
X113900000Y-48200000D01*
X114600000Y-48900000D02*
X131100000Y-48900000D01*
X113900000Y-48200000D02*
X114600000Y-48900000D01*
D18*
%TO.N,Motor2_A*%
X132800000Y-18300000D02*
X134800000Y-18300000D01*
X134800000Y-18300000D02*
X135500000Y-19000000D01*
X135500000Y-19000000D02*
X135500000Y-24650000D01*
X135500000Y-24650000D02*
X133875000Y-26275000D01*
%TD*%
M02*
