%TF.GenerationSoftware,KiCad,Pcbnew,8.0.1*%
%TF.CreationDate,2024-03-24T23:22:49+02:00*%
%TF.ProjectId,EEE3088F_2024_Group_52_Power,45454533-3038-4384-965f-323032345f47,rev?*%
%TF.SameCoordinates,Original*%
%TF.FileFunction,Legend,Top*%
%TF.FilePolarity,Positive*%
%FSLAX46Y46*%
G04 Gerber Fmt 4.6, Leading zero omitted, Abs format (unit mm)*
G04 Created by KiCad (PCBNEW 8.0.1) date 2024-03-24 23:22:49*
%MOMM*%
%LPD*%
G01*
G04 APERTURE LIST*
G04 Aperture macros list*
%AMRoundRect*
0 Rectangle with rounded corners*
0 $1 Rounding radius*
0 $2 $3 $4 $5 $6 $7 $8 $9 X,Y pos of 4 corners*
0 Add a 4 corners polygon primitive as box body*
4,1,4,$2,$3,$4,$5,$6,$7,$8,$9,$2,$3,0*
0 Add four circle primitives for the rounded corners*
1,1,$1+$1,$2,$3*
1,1,$1+$1,$4,$5*
1,1,$1+$1,$6,$7*
1,1,$1+$1,$8,$9*
0 Add four rect primitives between the rounded corners*
20,1,$1+$1,$2,$3,$4,$5,0*
20,1,$1+$1,$4,$5,$6,$7,0*
20,1,$1+$1,$6,$7,$8,$9,0*
20,1,$1+$1,$8,$9,$2,$3,0*%
G04 Aperture macros list end*
%ADD10C,0.150000*%
%ADD11C,0.120000*%
%ADD12C,0.250000*%
%ADD13O,1.700000X1.700000*%
%ADD14R,1.700000X1.700000*%
%ADD15RoundRect,0.200000X0.200000X0.275000X-0.200000X0.275000X-0.200000X-0.275000X0.200000X-0.275000X0*%
%ADD16R,1.000000X1.500000*%
%ADD17R,1.500000X1.000000*%
%ADD18RoundRect,0.250000X-0.350000X-0.625000X0.350000X-0.625000X0.350000X0.625000X-0.350000X0.625000X0*%
%ADD19O,1.200000X1.750000*%
%ADD20RoundRect,0.225000X-0.250000X0.225000X-0.250000X-0.225000X0.250000X-0.225000X0.250000X0.225000X0*%
%ADD21R,1.600000X0.900000*%
%ADD22R,0.250000X0.520000*%
%ADD23RoundRect,0.200000X-0.275000X0.200000X-0.275000X-0.200000X0.275000X-0.200000X0.275000X0.200000X0*%
%ADD24RoundRect,0.200000X0.275000X-0.200000X0.275000X0.200000X-0.275000X0.200000X-0.275000X-0.200000X0*%
%ADD25R,1.000000X0.600000*%
%ADD26R,0.600000X1.200000*%
%ADD27R,3.300000X2.400000*%
%ADD28C,1.500000*%
%ADD29R,1.000000X0.800000*%
%ADD30R,0.700000X1.500000*%
%ADD31C,0.900000*%
%ADD32RoundRect,0.225000X0.250000X-0.225000X0.250000X0.225000X-0.250000X0.225000X-0.250000X-0.225000X0*%
G04 APERTURE END LIST*
D10*
X125333333Y-37884819D02*
X125000000Y-37408628D01*
X124761905Y-37884819D02*
X124761905Y-36884819D01*
X124761905Y-36884819D02*
X125142857Y-36884819D01*
X125142857Y-36884819D02*
X125238095Y-36932438D01*
X125238095Y-36932438D02*
X125285714Y-36980057D01*
X125285714Y-36980057D02*
X125333333Y-37075295D01*
X125333333Y-37075295D02*
X125333333Y-37218152D01*
X125333333Y-37218152D02*
X125285714Y-37313390D01*
X125285714Y-37313390D02*
X125238095Y-37361009D01*
X125238095Y-37361009D02*
X125142857Y-37408628D01*
X125142857Y-37408628D02*
X124761905Y-37408628D01*
X125666667Y-36884819D02*
X126285714Y-36884819D01*
X126285714Y-36884819D02*
X125952381Y-37265771D01*
X125952381Y-37265771D02*
X126095238Y-37265771D01*
X126095238Y-37265771D02*
X126190476Y-37313390D01*
X126190476Y-37313390D02*
X126238095Y-37361009D01*
X126238095Y-37361009D02*
X126285714Y-37456247D01*
X126285714Y-37456247D02*
X126285714Y-37694342D01*
X126285714Y-37694342D02*
X126238095Y-37789580D01*
X126238095Y-37789580D02*
X126190476Y-37837200D01*
X126190476Y-37837200D02*
X126095238Y-37884819D01*
X126095238Y-37884819D02*
X125809524Y-37884819D01*
X125809524Y-37884819D02*
X125714286Y-37837200D01*
X125714286Y-37837200D02*
X125666667Y-37789580D01*
X123666666Y-42404819D02*
X123666666Y-43119104D01*
X123666666Y-43119104D02*
X123619047Y-43261961D01*
X123619047Y-43261961D02*
X123523809Y-43357200D01*
X123523809Y-43357200D02*
X123380952Y-43404819D01*
X123380952Y-43404819D02*
X123285714Y-43404819D01*
X124142857Y-43404819D02*
X124142857Y-42404819D01*
X124142857Y-42404819D02*
X124523809Y-42404819D01*
X124523809Y-42404819D02*
X124619047Y-42452438D01*
X124619047Y-42452438D02*
X124666666Y-42500057D01*
X124666666Y-42500057D02*
X124714285Y-42595295D01*
X124714285Y-42595295D02*
X124714285Y-42738152D01*
X124714285Y-42738152D02*
X124666666Y-42833390D01*
X124666666Y-42833390D02*
X124619047Y-42881009D01*
X124619047Y-42881009D02*
X124523809Y-42928628D01*
X124523809Y-42928628D02*
X124142857Y-42928628D01*
X125619047Y-42404819D02*
X125142857Y-42404819D01*
X125142857Y-42404819D02*
X125095238Y-42881009D01*
X125095238Y-42881009D02*
X125142857Y-42833390D01*
X125142857Y-42833390D02*
X125238095Y-42785771D01*
X125238095Y-42785771D02*
X125476190Y-42785771D01*
X125476190Y-42785771D02*
X125571428Y-42833390D01*
X125571428Y-42833390D02*
X125619047Y-42881009D01*
X125619047Y-42881009D02*
X125666666Y-42976247D01*
X125666666Y-42976247D02*
X125666666Y-43214342D01*
X125666666Y-43214342D02*
X125619047Y-43309580D01*
X125619047Y-43309580D02*
X125571428Y-43357200D01*
X125571428Y-43357200D02*
X125476190Y-43404819D01*
X125476190Y-43404819D02*
X125238095Y-43404819D01*
X125238095Y-43404819D02*
X125142857Y-43357200D01*
X125142857Y-43357200D02*
X125095238Y-43309580D01*
X122185714Y-45204819D02*
X121614286Y-45204819D01*
X121900000Y-45204819D02*
X121900000Y-44204819D01*
X121900000Y-44204819D02*
X121804762Y-44347676D01*
X121804762Y-44347676D02*
X121709524Y-44442914D01*
X121709524Y-44442914D02*
X121614286Y-44490533D01*
X126814286Y-44300057D02*
X126861905Y-44252438D01*
X126861905Y-44252438D02*
X126957143Y-44204819D01*
X126957143Y-44204819D02*
X127195238Y-44204819D01*
X127195238Y-44204819D02*
X127290476Y-44252438D01*
X127290476Y-44252438D02*
X127338095Y-44300057D01*
X127338095Y-44300057D02*
X127385714Y-44395295D01*
X127385714Y-44395295D02*
X127385714Y-44490533D01*
X127385714Y-44490533D02*
X127338095Y-44633390D01*
X127338095Y-44633390D02*
X126766667Y-45204819D01*
X126766667Y-45204819D02*
X127385714Y-45204819D01*
X120416666Y-40204819D02*
X120416666Y-40919104D01*
X120416666Y-40919104D02*
X120369047Y-41061961D01*
X120369047Y-41061961D02*
X120273809Y-41157200D01*
X120273809Y-41157200D02*
X120130952Y-41204819D01*
X120130952Y-41204819D02*
X120035714Y-41204819D01*
X120892857Y-41204819D02*
X120892857Y-40204819D01*
X120892857Y-40204819D02*
X121273809Y-40204819D01*
X121273809Y-40204819D02*
X121369047Y-40252438D01*
X121369047Y-40252438D02*
X121416666Y-40300057D01*
X121416666Y-40300057D02*
X121464285Y-40395295D01*
X121464285Y-40395295D02*
X121464285Y-40538152D01*
X121464285Y-40538152D02*
X121416666Y-40633390D01*
X121416666Y-40633390D02*
X121369047Y-40681009D01*
X121369047Y-40681009D02*
X121273809Y-40728628D01*
X121273809Y-40728628D02*
X120892857Y-40728628D01*
X122321428Y-40538152D02*
X122321428Y-41204819D01*
X122083333Y-40157200D02*
X121845238Y-40871485D01*
X121845238Y-40871485D02*
X122464285Y-40871485D01*
X118935714Y-39204819D02*
X118364286Y-39204819D01*
X118650000Y-39204819D02*
X118650000Y-38204819D01*
X118650000Y-38204819D02*
X118554762Y-38347676D01*
X118554762Y-38347676D02*
X118459524Y-38442914D01*
X118459524Y-38442914D02*
X118364286Y-38490533D01*
X123564286Y-38300057D02*
X123611905Y-38252438D01*
X123611905Y-38252438D02*
X123707143Y-38204819D01*
X123707143Y-38204819D02*
X123945238Y-38204819D01*
X123945238Y-38204819D02*
X124040476Y-38252438D01*
X124040476Y-38252438D02*
X124088095Y-38300057D01*
X124088095Y-38300057D02*
X124135714Y-38395295D01*
X124135714Y-38395295D02*
X124135714Y-38490533D01*
X124135714Y-38490533D02*
X124088095Y-38633390D01*
X124088095Y-38633390D02*
X123516667Y-39204819D01*
X123516667Y-39204819D02*
X124135714Y-39204819D01*
X117704819Y-47583333D02*
X118419104Y-47583333D01*
X118419104Y-47583333D02*
X118561961Y-47630952D01*
X118561961Y-47630952D02*
X118657200Y-47726190D01*
X118657200Y-47726190D02*
X118704819Y-47869047D01*
X118704819Y-47869047D02*
X118704819Y-47964285D01*
X118704819Y-47107142D02*
X117704819Y-47107142D01*
X117704819Y-47107142D02*
X117704819Y-46726190D01*
X117704819Y-46726190D02*
X117752438Y-46630952D01*
X117752438Y-46630952D02*
X117800057Y-46583333D01*
X117800057Y-46583333D02*
X117895295Y-46535714D01*
X117895295Y-46535714D02*
X118038152Y-46535714D01*
X118038152Y-46535714D02*
X118133390Y-46583333D01*
X118133390Y-46583333D02*
X118181009Y-46630952D01*
X118181009Y-46630952D02*
X118228628Y-46726190D01*
X118228628Y-46726190D02*
X118228628Y-47107142D01*
X117800057Y-46154761D02*
X117752438Y-46107142D01*
X117752438Y-46107142D02*
X117704819Y-46011904D01*
X117704819Y-46011904D02*
X117704819Y-45773809D01*
X117704819Y-45773809D02*
X117752438Y-45678571D01*
X117752438Y-45678571D02*
X117800057Y-45630952D01*
X117800057Y-45630952D02*
X117895295Y-45583333D01*
X117895295Y-45583333D02*
X117990533Y-45583333D01*
X117990533Y-45583333D02*
X118133390Y-45630952D01*
X118133390Y-45630952D02*
X118704819Y-46202380D01*
X118704819Y-46202380D02*
X118704819Y-45583333D01*
X120704819Y-48064285D02*
X120704819Y-48635713D01*
X120704819Y-48349999D02*
X119704819Y-48349999D01*
X119704819Y-48349999D02*
X119847676Y-48445237D01*
X119847676Y-48445237D02*
X119942914Y-48540475D01*
X119942914Y-48540475D02*
X119990533Y-48635713D01*
X119800057Y-43435713D02*
X119752438Y-43388094D01*
X119752438Y-43388094D02*
X119704819Y-43292856D01*
X119704819Y-43292856D02*
X119704819Y-43054761D01*
X119704819Y-43054761D02*
X119752438Y-42959523D01*
X119752438Y-42959523D02*
X119800057Y-42911904D01*
X119800057Y-42911904D02*
X119895295Y-42864285D01*
X119895295Y-42864285D02*
X119990533Y-42864285D01*
X119990533Y-42864285D02*
X120133390Y-42911904D01*
X120133390Y-42911904D02*
X120704819Y-43483332D01*
X120704819Y-43483332D02*
X120704819Y-42864285D01*
X114416666Y-46004819D02*
X114416666Y-46719104D01*
X114416666Y-46719104D02*
X114369047Y-46861961D01*
X114369047Y-46861961D02*
X114273809Y-46957200D01*
X114273809Y-46957200D02*
X114130952Y-47004819D01*
X114130952Y-47004819D02*
X114035714Y-47004819D01*
X114892857Y-47004819D02*
X114892857Y-46004819D01*
X114892857Y-46004819D02*
X115273809Y-46004819D01*
X115273809Y-46004819D02*
X115369047Y-46052438D01*
X115369047Y-46052438D02*
X115416666Y-46100057D01*
X115416666Y-46100057D02*
X115464285Y-46195295D01*
X115464285Y-46195295D02*
X115464285Y-46338152D01*
X115464285Y-46338152D02*
X115416666Y-46433390D01*
X115416666Y-46433390D02*
X115369047Y-46481009D01*
X115369047Y-46481009D02*
X115273809Y-46528628D01*
X115273809Y-46528628D02*
X114892857Y-46528628D01*
X116416666Y-47004819D02*
X115845238Y-47004819D01*
X116130952Y-47004819D02*
X116130952Y-46004819D01*
X116130952Y-46004819D02*
X116035714Y-46147676D01*
X116035714Y-46147676D02*
X115940476Y-46242914D01*
X115940476Y-46242914D02*
X115845238Y-46290533D01*
X118135714Y-45204819D02*
X117564286Y-45204819D01*
X117850000Y-45204819D02*
X117850000Y-44204819D01*
X117850000Y-44204819D02*
X117754762Y-44347676D01*
X117754762Y-44347676D02*
X117659524Y-44442914D01*
X117659524Y-44442914D02*
X117564286Y-44490533D01*
X112364286Y-44300057D02*
X112411905Y-44252438D01*
X112411905Y-44252438D02*
X112507143Y-44204819D01*
X112507143Y-44204819D02*
X112745238Y-44204819D01*
X112745238Y-44204819D02*
X112840476Y-44252438D01*
X112840476Y-44252438D02*
X112888095Y-44300057D01*
X112888095Y-44300057D02*
X112935714Y-44395295D01*
X112935714Y-44395295D02*
X112935714Y-44490533D01*
X112935714Y-44490533D02*
X112888095Y-44633390D01*
X112888095Y-44633390D02*
X112316667Y-45204819D01*
X112316667Y-45204819D02*
X112935714Y-45204819D01*
X120366666Y-33654819D02*
X120366666Y-34369104D01*
X120366666Y-34369104D02*
X120319047Y-34511961D01*
X120319047Y-34511961D02*
X120223809Y-34607200D01*
X120223809Y-34607200D02*
X120080952Y-34654819D01*
X120080952Y-34654819D02*
X119985714Y-34654819D01*
X120842857Y-34654819D02*
X120842857Y-33654819D01*
X120842857Y-33654819D02*
X121223809Y-33654819D01*
X121223809Y-33654819D02*
X121319047Y-33702438D01*
X121319047Y-33702438D02*
X121366666Y-33750057D01*
X121366666Y-33750057D02*
X121414285Y-33845295D01*
X121414285Y-33845295D02*
X121414285Y-33988152D01*
X121414285Y-33988152D02*
X121366666Y-34083390D01*
X121366666Y-34083390D02*
X121319047Y-34131009D01*
X121319047Y-34131009D02*
X121223809Y-34178628D01*
X121223809Y-34178628D02*
X120842857Y-34178628D01*
X121747619Y-33654819D02*
X122366666Y-33654819D01*
X122366666Y-33654819D02*
X122033333Y-34035771D01*
X122033333Y-34035771D02*
X122176190Y-34035771D01*
X122176190Y-34035771D02*
X122271428Y-34083390D01*
X122271428Y-34083390D02*
X122319047Y-34131009D01*
X122319047Y-34131009D02*
X122366666Y-34226247D01*
X122366666Y-34226247D02*
X122366666Y-34464342D01*
X122366666Y-34464342D02*
X122319047Y-34559580D01*
X122319047Y-34559580D02*
X122271428Y-34607200D01*
X122271428Y-34607200D02*
X122176190Y-34654819D01*
X122176190Y-34654819D02*
X121890476Y-34654819D01*
X121890476Y-34654819D02*
X121795238Y-34607200D01*
X121795238Y-34607200D02*
X121747619Y-34559580D01*
X118885714Y-36454819D02*
X118314286Y-36454819D01*
X118600000Y-36454819D02*
X118600000Y-35454819D01*
X118600000Y-35454819D02*
X118504762Y-35597676D01*
X118504762Y-35597676D02*
X118409524Y-35692914D01*
X118409524Y-35692914D02*
X118314286Y-35740533D01*
X123514286Y-35550057D02*
X123561905Y-35502438D01*
X123561905Y-35502438D02*
X123657143Y-35454819D01*
X123657143Y-35454819D02*
X123895238Y-35454819D01*
X123895238Y-35454819D02*
X123990476Y-35502438D01*
X123990476Y-35502438D02*
X124038095Y-35550057D01*
X124038095Y-35550057D02*
X124085714Y-35645295D01*
X124085714Y-35645295D02*
X124085714Y-35740533D01*
X124085714Y-35740533D02*
X124038095Y-35883390D01*
X124038095Y-35883390D02*
X123466667Y-36454819D01*
X123466667Y-36454819D02*
X124085714Y-36454819D01*
X139666666Y-45904819D02*
X139666666Y-46619104D01*
X139666666Y-46619104D02*
X139619047Y-46761961D01*
X139619047Y-46761961D02*
X139523809Y-46857200D01*
X139523809Y-46857200D02*
X139380952Y-46904819D01*
X139380952Y-46904819D02*
X139285714Y-46904819D01*
X140095238Y-46000057D02*
X140142857Y-45952438D01*
X140142857Y-45952438D02*
X140238095Y-45904819D01*
X140238095Y-45904819D02*
X140476190Y-45904819D01*
X140476190Y-45904819D02*
X140571428Y-45952438D01*
X140571428Y-45952438D02*
X140619047Y-46000057D01*
X140619047Y-46000057D02*
X140666666Y-46095295D01*
X140666666Y-46095295D02*
X140666666Y-46190533D01*
X140666666Y-46190533D02*
X140619047Y-46333390D01*
X140619047Y-46333390D02*
X140047619Y-46904819D01*
X140047619Y-46904819D02*
X140666666Y-46904819D01*
X117609580Y-20166666D02*
X117657200Y-20214285D01*
X117657200Y-20214285D02*
X117704819Y-20357142D01*
X117704819Y-20357142D02*
X117704819Y-20452380D01*
X117704819Y-20452380D02*
X117657200Y-20595237D01*
X117657200Y-20595237D02*
X117561961Y-20690475D01*
X117561961Y-20690475D02*
X117466723Y-20738094D01*
X117466723Y-20738094D02*
X117276247Y-20785713D01*
X117276247Y-20785713D02*
X117133390Y-20785713D01*
X117133390Y-20785713D02*
X116942914Y-20738094D01*
X116942914Y-20738094D02*
X116847676Y-20690475D01*
X116847676Y-20690475D02*
X116752438Y-20595237D01*
X116752438Y-20595237D02*
X116704819Y-20452380D01*
X116704819Y-20452380D02*
X116704819Y-20357142D01*
X116704819Y-20357142D02*
X116752438Y-20214285D01*
X116752438Y-20214285D02*
X116800057Y-20166666D01*
X116704819Y-19833332D02*
X116704819Y-19214285D01*
X116704819Y-19214285D02*
X117085771Y-19547618D01*
X117085771Y-19547618D02*
X117085771Y-19404761D01*
X117085771Y-19404761D02*
X117133390Y-19309523D01*
X117133390Y-19309523D02*
X117181009Y-19261904D01*
X117181009Y-19261904D02*
X117276247Y-19214285D01*
X117276247Y-19214285D02*
X117514342Y-19214285D01*
X117514342Y-19214285D02*
X117609580Y-19261904D01*
X117609580Y-19261904D02*
X117657200Y-19309523D01*
X117657200Y-19309523D02*
X117704819Y-19404761D01*
X117704819Y-19404761D02*
X117704819Y-19690475D01*
X117704819Y-19690475D02*
X117657200Y-19785713D01*
X117657200Y-19785713D02*
X117609580Y-19833332D01*
X120609580Y-20116666D02*
X120657200Y-20164285D01*
X120657200Y-20164285D02*
X120704819Y-20307142D01*
X120704819Y-20307142D02*
X120704819Y-20402380D01*
X120704819Y-20402380D02*
X120657200Y-20545237D01*
X120657200Y-20545237D02*
X120561961Y-20640475D01*
X120561961Y-20640475D02*
X120466723Y-20688094D01*
X120466723Y-20688094D02*
X120276247Y-20735713D01*
X120276247Y-20735713D02*
X120133390Y-20735713D01*
X120133390Y-20735713D02*
X119942914Y-20688094D01*
X119942914Y-20688094D02*
X119847676Y-20640475D01*
X119847676Y-20640475D02*
X119752438Y-20545237D01*
X119752438Y-20545237D02*
X119704819Y-20402380D01*
X119704819Y-20402380D02*
X119704819Y-20307142D01*
X119704819Y-20307142D02*
X119752438Y-20164285D01*
X119752438Y-20164285D02*
X119800057Y-20116666D01*
X120038152Y-19259523D02*
X120704819Y-19259523D01*
X119657200Y-19497618D02*
X120371485Y-19735713D01*
X120371485Y-19735713D02*
X120371485Y-19116666D01*
X110704819Y-20711904D02*
X111514342Y-20711904D01*
X111514342Y-20711904D02*
X111609580Y-20664285D01*
X111609580Y-20664285D02*
X111657200Y-20616666D01*
X111657200Y-20616666D02*
X111704819Y-20521428D01*
X111704819Y-20521428D02*
X111704819Y-20330952D01*
X111704819Y-20330952D02*
X111657200Y-20235714D01*
X111657200Y-20235714D02*
X111609580Y-20188095D01*
X111609580Y-20188095D02*
X111514342Y-20140476D01*
X111514342Y-20140476D02*
X110704819Y-20140476D01*
X110704819Y-19759523D02*
X110704819Y-19140476D01*
X110704819Y-19140476D02*
X111085771Y-19473809D01*
X111085771Y-19473809D02*
X111085771Y-19330952D01*
X111085771Y-19330952D02*
X111133390Y-19235714D01*
X111133390Y-19235714D02*
X111181009Y-19188095D01*
X111181009Y-19188095D02*
X111276247Y-19140476D01*
X111276247Y-19140476D02*
X111514342Y-19140476D01*
X111514342Y-19140476D02*
X111609580Y-19188095D01*
X111609580Y-19188095D02*
X111657200Y-19235714D01*
X111657200Y-19235714D02*
X111704819Y-19330952D01*
X111704819Y-19330952D02*
X111704819Y-19616666D01*
X111704819Y-19616666D02*
X111657200Y-19711904D01*
X111657200Y-19711904D02*
X111609580Y-19759523D01*
X135704819Y-44166666D02*
X135228628Y-44499999D01*
X135704819Y-44738094D02*
X134704819Y-44738094D01*
X134704819Y-44738094D02*
X134704819Y-44357142D01*
X134704819Y-44357142D02*
X134752438Y-44261904D01*
X134752438Y-44261904D02*
X134800057Y-44214285D01*
X134800057Y-44214285D02*
X134895295Y-44166666D01*
X134895295Y-44166666D02*
X135038152Y-44166666D01*
X135038152Y-44166666D02*
X135133390Y-44214285D01*
X135133390Y-44214285D02*
X135181009Y-44261904D01*
X135181009Y-44261904D02*
X135228628Y-44357142D01*
X135228628Y-44357142D02*
X135228628Y-44738094D01*
X134704819Y-43261904D02*
X134704819Y-43738094D01*
X134704819Y-43738094D02*
X135181009Y-43785713D01*
X135181009Y-43785713D02*
X135133390Y-43738094D01*
X135133390Y-43738094D02*
X135085771Y-43642856D01*
X135085771Y-43642856D02*
X135085771Y-43404761D01*
X135085771Y-43404761D02*
X135133390Y-43309523D01*
X135133390Y-43309523D02*
X135181009Y-43261904D01*
X135181009Y-43261904D02*
X135276247Y-43214285D01*
X135276247Y-43214285D02*
X135514342Y-43214285D01*
X135514342Y-43214285D02*
X135609580Y-43261904D01*
X135609580Y-43261904D02*
X135657200Y-43309523D01*
X135657200Y-43309523D02*
X135704819Y-43404761D01*
X135704819Y-43404761D02*
X135704819Y-43642856D01*
X135704819Y-43642856D02*
X135657200Y-43738094D01*
X135657200Y-43738094D02*
X135609580Y-43785713D01*
X128454819Y-20811904D02*
X129264342Y-20811904D01*
X129264342Y-20811904D02*
X129359580Y-20764285D01*
X129359580Y-20764285D02*
X129407200Y-20716666D01*
X129407200Y-20716666D02*
X129454819Y-20621428D01*
X129454819Y-20621428D02*
X129454819Y-20430952D01*
X129454819Y-20430952D02*
X129407200Y-20335714D01*
X129407200Y-20335714D02*
X129359580Y-20288095D01*
X129359580Y-20288095D02*
X129264342Y-20240476D01*
X129264342Y-20240476D02*
X128454819Y-20240476D01*
X128788152Y-19335714D02*
X129454819Y-19335714D01*
X128407200Y-19573809D02*
X129121485Y-19811904D01*
X129121485Y-19811904D02*
X129121485Y-19192857D01*
X116204819Y-39066666D02*
X115728628Y-39399999D01*
X116204819Y-39638094D02*
X115204819Y-39638094D01*
X115204819Y-39638094D02*
X115204819Y-39257142D01*
X115204819Y-39257142D02*
X115252438Y-39161904D01*
X115252438Y-39161904D02*
X115300057Y-39114285D01*
X115300057Y-39114285D02*
X115395295Y-39066666D01*
X115395295Y-39066666D02*
X115538152Y-39066666D01*
X115538152Y-39066666D02*
X115633390Y-39114285D01*
X115633390Y-39114285D02*
X115681009Y-39161904D01*
X115681009Y-39161904D02*
X115728628Y-39257142D01*
X115728628Y-39257142D02*
X115728628Y-39638094D01*
X116204819Y-38114285D02*
X116204819Y-38685713D01*
X116204819Y-38399999D02*
X115204819Y-38399999D01*
X115204819Y-38399999D02*
X115347676Y-38495237D01*
X115347676Y-38495237D02*
X115442914Y-38590475D01*
X115442914Y-38590475D02*
X115490533Y-38685713D01*
X112388095Y-39204819D02*
X112388095Y-40014342D01*
X112388095Y-40014342D02*
X112435714Y-40109580D01*
X112435714Y-40109580D02*
X112483333Y-40157200D01*
X112483333Y-40157200D02*
X112578571Y-40204819D01*
X112578571Y-40204819D02*
X112769047Y-40204819D01*
X112769047Y-40204819D02*
X112864285Y-40157200D01*
X112864285Y-40157200D02*
X112911904Y-40109580D01*
X112911904Y-40109580D02*
X112959523Y-40014342D01*
X112959523Y-40014342D02*
X112959523Y-39204819D01*
X113959523Y-40204819D02*
X113388095Y-40204819D01*
X113673809Y-40204819D02*
X113673809Y-39204819D01*
X113673809Y-39204819D02*
X113578571Y-39347676D01*
X113578571Y-39347676D02*
X113483333Y-39442914D01*
X113483333Y-39442914D02*
X113388095Y-39490533D01*
X132798095Y-37788819D02*
X132798095Y-38598342D01*
X132798095Y-38598342D02*
X132845714Y-38693580D01*
X132845714Y-38693580D02*
X132893333Y-38741200D01*
X132893333Y-38741200D02*
X132988571Y-38788819D01*
X132988571Y-38788819D02*
X133179047Y-38788819D01*
X133179047Y-38788819D02*
X133274285Y-38741200D01*
X133274285Y-38741200D02*
X133321904Y-38693580D01*
X133321904Y-38693580D02*
X133369523Y-38598342D01*
X133369523Y-38598342D02*
X133369523Y-37788819D01*
X133798095Y-37884057D02*
X133845714Y-37836438D01*
X133845714Y-37836438D02*
X133940952Y-37788819D01*
X133940952Y-37788819D02*
X134179047Y-37788819D01*
X134179047Y-37788819D02*
X134274285Y-37836438D01*
X134274285Y-37836438D02*
X134321904Y-37884057D01*
X134321904Y-37884057D02*
X134369523Y-37979295D01*
X134369523Y-37979295D02*
X134369523Y-38074533D01*
X134369523Y-38074533D02*
X134321904Y-38217390D01*
X134321904Y-38217390D02*
X133750476Y-38788819D01*
X133750476Y-38788819D02*
X134369523Y-38788819D01*
X133201905Y-50620819D02*
X133773333Y-50620819D01*
X133487619Y-51620819D02*
X133487619Y-50620819D01*
X134106667Y-51620819D02*
X134106667Y-50620819D01*
X134106667Y-50620819D02*
X134487619Y-50620819D01*
X134487619Y-50620819D02*
X134582857Y-50668438D01*
X134582857Y-50668438D02*
X134630476Y-50716057D01*
X134630476Y-50716057D02*
X134678095Y-50811295D01*
X134678095Y-50811295D02*
X134678095Y-50954152D01*
X134678095Y-50954152D02*
X134630476Y-51049390D01*
X134630476Y-51049390D02*
X134582857Y-51097009D01*
X134582857Y-51097009D02*
X134487619Y-51144628D01*
X134487619Y-51144628D02*
X134106667Y-51144628D01*
X135630476Y-51620819D02*
X135059048Y-51620819D01*
X135344762Y-51620819D02*
X135344762Y-50620819D01*
X135344762Y-50620819D02*
X135249524Y-50763676D01*
X135249524Y-50763676D02*
X135154286Y-50858914D01*
X135154286Y-50858914D02*
X135059048Y-50906533D01*
X136487619Y-50620819D02*
X136297143Y-50620819D01*
X136297143Y-50620819D02*
X136201905Y-50668438D01*
X136201905Y-50668438D02*
X136154286Y-50716057D01*
X136154286Y-50716057D02*
X136059048Y-50858914D01*
X136059048Y-50858914D02*
X136011429Y-51049390D01*
X136011429Y-51049390D02*
X136011429Y-51430342D01*
X136011429Y-51430342D02*
X136059048Y-51525580D01*
X136059048Y-51525580D02*
X136106667Y-51573200D01*
X136106667Y-51573200D02*
X136201905Y-51620819D01*
X136201905Y-51620819D02*
X136392381Y-51620819D01*
X136392381Y-51620819D02*
X136487619Y-51573200D01*
X136487619Y-51573200D02*
X136535238Y-51525580D01*
X136535238Y-51525580D02*
X136582857Y-51430342D01*
X136582857Y-51430342D02*
X136582857Y-51192247D01*
X136582857Y-51192247D02*
X136535238Y-51097009D01*
X136535238Y-51097009D02*
X136487619Y-51049390D01*
X136487619Y-51049390D02*
X136392381Y-51001771D01*
X136392381Y-51001771D02*
X136201905Y-51001771D01*
X136201905Y-51001771D02*
X136106667Y-51049390D01*
X136106667Y-51049390D02*
X136059048Y-51097009D01*
X136059048Y-51097009D02*
X136011429Y-51192247D01*
X131821905Y-35436819D02*
X132393333Y-35436819D01*
X132107619Y-36436819D02*
X132107619Y-35436819D01*
X132726667Y-36436819D02*
X132726667Y-35436819D01*
X132726667Y-35436819D02*
X133107619Y-35436819D01*
X133107619Y-35436819D02*
X133202857Y-35484438D01*
X133202857Y-35484438D02*
X133250476Y-35532057D01*
X133250476Y-35532057D02*
X133298095Y-35627295D01*
X133298095Y-35627295D02*
X133298095Y-35770152D01*
X133298095Y-35770152D02*
X133250476Y-35865390D01*
X133250476Y-35865390D02*
X133202857Y-35913009D01*
X133202857Y-35913009D02*
X133107619Y-35960628D01*
X133107619Y-35960628D02*
X132726667Y-35960628D01*
X134250476Y-36436819D02*
X133679048Y-36436819D01*
X133964762Y-36436819D02*
X133964762Y-35436819D01*
X133964762Y-35436819D02*
X133869524Y-35579676D01*
X133869524Y-35579676D02*
X133774286Y-35674914D01*
X133774286Y-35674914D02*
X133679048Y-35722533D01*
X134583810Y-35436819D02*
X135202857Y-35436819D01*
X135202857Y-35436819D02*
X134869524Y-35817771D01*
X134869524Y-35817771D02*
X135012381Y-35817771D01*
X135012381Y-35817771D02*
X135107619Y-35865390D01*
X135107619Y-35865390D02*
X135155238Y-35913009D01*
X135155238Y-35913009D02*
X135202857Y-36008247D01*
X135202857Y-36008247D02*
X135202857Y-36246342D01*
X135202857Y-36246342D02*
X135155238Y-36341580D01*
X135155238Y-36341580D02*
X135107619Y-36389200D01*
X135107619Y-36389200D02*
X135012381Y-36436819D01*
X135012381Y-36436819D02*
X134726667Y-36436819D01*
X134726667Y-36436819D02*
X134631429Y-36389200D01*
X134631429Y-36389200D02*
X134583810Y-36341580D01*
X127474095Y-49306819D02*
X128045523Y-49306819D01*
X127759809Y-50306819D02*
X127759809Y-49306819D01*
X128378857Y-50306819D02*
X128378857Y-49306819D01*
X128378857Y-49306819D02*
X128759809Y-49306819D01*
X128759809Y-49306819D02*
X128855047Y-49354438D01*
X128855047Y-49354438D02*
X128902666Y-49402057D01*
X128902666Y-49402057D02*
X128950285Y-49497295D01*
X128950285Y-49497295D02*
X128950285Y-49640152D01*
X128950285Y-49640152D02*
X128902666Y-49735390D01*
X128902666Y-49735390D02*
X128855047Y-49783009D01*
X128855047Y-49783009D02*
X128759809Y-49830628D01*
X128759809Y-49830628D02*
X128378857Y-49830628D01*
X129807428Y-49640152D02*
X129807428Y-50306819D01*
X129569333Y-49259200D02*
X129331238Y-49973485D01*
X129331238Y-49973485D02*
X129950285Y-49973485D01*
X110738095Y-30806819D02*
X111309523Y-30806819D01*
X111023809Y-31806819D02*
X111023809Y-30806819D01*
X111642857Y-31806819D02*
X111642857Y-30806819D01*
X111642857Y-30806819D02*
X112023809Y-30806819D01*
X112023809Y-30806819D02*
X112119047Y-30854438D01*
X112119047Y-30854438D02*
X112166666Y-30902057D01*
X112166666Y-30902057D02*
X112214285Y-30997295D01*
X112214285Y-30997295D02*
X112214285Y-31140152D01*
X112214285Y-31140152D02*
X112166666Y-31235390D01*
X112166666Y-31235390D02*
X112119047Y-31283009D01*
X112119047Y-31283009D02*
X112023809Y-31330628D01*
X112023809Y-31330628D02*
X111642857Y-31330628D01*
X112595238Y-30902057D02*
X112642857Y-30854438D01*
X112642857Y-30854438D02*
X112738095Y-30806819D01*
X112738095Y-30806819D02*
X112976190Y-30806819D01*
X112976190Y-30806819D02*
X113071428Y-30854438D01*
X113071428Y-30854438D02*
X113119047Y-30902057D01*
X113119047Y-30902057D02*
X113166666Y-30997295D01*
X113166666Y-30997295D02*
X113166666Y-31092533D01*
X113166666Y-31092533D02*
X113119047Y-31235390D01*
X113119047Y-31235390D02*
X112547619Y-31806819D01*
X112547619Y-31806819D02*
X113166666Y-31806819D01*
X118488095Y-30056819D02*
X119059523Y-30056819D01*
X118773809Y-31056819D02*
X118773809Y-30056819D01*
X119392857Y-31056819D02*
X119392857Y-30056819D01*
X119392857Y-30056819D02*
X119773809Y-30056819D01*
X119773809Y-30056819D02*
X119869047Y-30104438D01*
X119869047Y-30104438D02*
X119916666Y-30152057D01*
X119916666Y-30152057D02*
X119964285Y-30247295D01*
X119964285Y-30247295D02*
X119964285Y-30390152D01*
X119964285Y-30390152D02*
X119916666Y-30485390D01*
X119916666Y-30485390D02*
X119869047Y-30533009D01*
X119869047Y-30533009D02*
X119773809Y-30580628D01*
X119773809Y-30580628D02*
X119392857Y-30580628D01*
X120916666Y-31056819D02*
X120345238Y-31056819D01*
X120630952Y-31056819D02*
X120630952Y-30056819D01*
X120630952Y-30056819D02*
X120535714Y-30199676D01*
X120535714Y-30199676D02*
X120440476Y-30294914D01*
X120440476Y-30294914D02*
X120345238Y-30342533D01*
X121666667Y-55907200D02*
X121809524Y-55954819D01*
X121809524Y-55954819D02*
X122047619Y-55954819D01*
X122047619Y-55954819D02*
X122142857Y-55907200D01*
X122142857Y-55907200D02*
X122190476Y-55859580D01*
X122190476Y-55859580D02*
X122238095Y-55764342D01*
X122238095Y-55764342D02*
X122238095Y-55669104D01*
X122238095Y-55669104D02*
X122190476Y-55573866D01*
X122190476Y-55573866D02*
X122142857Y-55526247D01*
X122142857Y-55526247D02*
X122047619Y-55478628D01*
X122047619Y-55478628D02*
X121857143Y-55431009D01*
X121857143Y-55431009D02*
X121761905Y-55383390D01*
X121761905Y-55383390D02*
X121714286Y-55335771D01*
X121714286Y-55335771D02*
X121666667Y-55240533D01*
X121666667Y-55240533D02*
X121666667Y-55145295D01*
X121666667Y-55145295D02*
X121714286Y-55050057D01*
X121714286Y-55050057D02*
X121761905Y-55002438D01*
X121761905Y-55002438D02*
X121857143Y-54954819D01*
X121857143Y-54954819D02*
X122095238Y-54954819D01*
X122095238Y-54954819D02*
X122238095Y-55002438D01*
X122571429Y-54954819D02*
X122809524Y-55954819D01*
X122809524Y-55954819D02*
X123000000Y-55240533D01*
X123000000Y-55240533D02*
X123190476Y-55954819D01*
X123190476Y-55954819D02*
X123428572Y-54954819D01*
X124333333Y-55954819D02*
X123761905Y-55954819D01*
X124047619Y-55954819D02*
X124047619Y-54954819D01*
X124047619Y-54954819D02*
X123952381Y-55097676D01*
X123952381Y-55097676D02*
X123857143Y-55192914D01*
X123857143Y-55192914D02*
X123761905Y-55240533D01*
X125333333Y-40884819D02*
X125000000Y-40408628D01*
X124761905Y-40884819D02*
X124761905Y-39884819D01*
X124761905Y-39884819D02*
X125142857Y-39884819D01*
X125142857Y-39884819D02*
X125238095Y-39932438D01*
X125238095Y-39932438D02*
X125285714Y-39980057D01*
X125285714Y-39980057D02*
X125333333Y-40075295D01*
X125333333Y-40075295D02*
X125333333Y-40218152D01*
X125333333Y-40218152D02*
X125285714Y-40313390D01*
X125285714Y-40313390D02*
X125238095Y-40361009D01*
X125238095Y-40361009D02*
X125142857Y-40408628D01*
X125142857Y-40408628D02*
X124761905Y-40408628D01*
X126190476Y-40218152D02*
X126190476Y-40884819D01*
X125952381Y-39837200D02*
X125714286Y-40551485D01*
X125714286Y-40551485D02*
X126333333Y-40551485D01*
X116204819Y-36166666D02*
X115728628Y-36499999D01*
X116204819Y-36738094D02*
X115204819Y-36738094D01*
X115204819Y-36738094D02*
X115204819Y-36357142D01*
X115204819Y-36357142D02*
X115252438Y-36261904D01*
X115252438Y-36261904D02*
X115300057Y-36214285D01*
X115300057Y-36214285D02*
X115395295Y-36166666D01*
X115395295Y-36166666D02*
X115538152Y-36166666D01*
X115538152Y-36166666D02*
X115633390Y-36214285D01*
X115633390Y-36214285D02*
X115681009Y-36261904D01*
X115681009Y-36261904D02*
X115728628Y-36357142D01*
X115728628Y-36357142D02*
X115728628Y-36738094D01*
X115300057Y-35785713D02*
X115252438Y-35738094D01*
X115252438Y-35738094D02*
X115204819Y-35642856D01*
X115204819Y-35642856D02*
X115204819Y-35404761D01*
X115204819Y-35404761D02*
X115252438Y-35309523D01*
X115252438Y-35309523D02*
X115300057Y-35261904D01*
X115300057Y-35261904D02*
X115395295Y-35214285D01*
X115395295Y-35214285D02*
X115490533Y-35214285D01*
X115490533Y-35214285D02*
X115633390Y-35261904D01*
X115633390Y-35261904D02*
X116204819Y-35833332D01*
X116204819Y-35833332D02*
X116204819Y-35214285D01*
X131654761Y-46050057D02*
X131559523Y-46002438D01*
X131559523Y-46002438D02*
X131464285Y-45907200D01*
X131464285Y-45907200D02*
X131321428Y-45764342D01*
X131321428Y-45764342D02*
X131226190Y-45716723D01*
X131226190Y-45716723D02*
X131130952Y-45716723D01*
X131178571Y-45954819D02*
X131083333Y-45907200D01*
X131083333Y-45907200D02*
X130988095Y-45811961D01*
X130988095Y-45811961D02*
X130940476Y-45621485D01*
X130940476Y-45621485D02*
X130940476Y-45288152D01*
X130940476Y-45288152D02*
X130988095Y-45097676D01*
X130988095Y-45097676D02*
X131083333Y-45002438D01*
X131083333Y-45002438D02*
X131178571Y-44954819D01*
X131178571Y-44954819D02*
X131369047Y-44954819D01*
X131369047Y-44954819D02*
X131464285Y-45002438D01*
X131464285Y-45002438D02*
X131559523Y-45097676D01*
X131559523Y-45097676D02*
X131607142Y-45288152D01*
X131607142Y-45288152D02*
X131607142Y-45621485D01*
X131607142Y-45621485D02*
X131559523Y-45811961D01*
X131559523Y-45811961D02*
X131464285Y-45907200D01*
X131464285Y-45907200D02*
X131369047Y-45954819D01*
X131369047Y-45954819D02*
X131178571Y-45954819D01*
X132559523Y-45954819D02*
X131988095Y-45954819D01*
X132273809Y-45954819D02*
X132273809Y-44954819D01*
X132273809Y-44954819D02*
X132178571Y-45097676D01*
X132178571Y-45097676D02*
X132083333Y-45192914D01*
X132083333Y-45192914D02*
X131988095Y-45240533D01*
X138789580Y-20216666D02*
X138837200Y-20264285D01*
X138837200Y-20264285D02*
X138884819Y-20407142D01*
X138884819Y-20407142D02*
X138884819Y-20502380D01*
X138884819Y-20502380D02*
X138837200Y-20645237D01*
X138837200Y-20645237D02*
X138741961Y-20740475D01*
X138741961Y-20740475D02*
X138646723Y-20788094D01*
X138646723Y-20788094D02*
X138456247Y-20835713D01*
X138456247Y-20835713D02*
X138313390Y-20835713D01*
X138313390Y-20835713D02*
X138122914Y-20788094D01*
X138122914Y-20788094D02*
X138027676Y-20740475D01*
X138027676Y-20740475D02*
X137932438Y-20645237D01*
X137932438Y-20645237D02*
X137884819Y-20502380D01*
X137884819Y-20502380D02*
X137884819Y-20407142D01*
X137884819Y-20407142D02*
X137932438Y-20264285D01*
X137932438Y-20264285D02*
X137980057Y-20216666D01*
X137884819Y-19359523D02*
X137884819Y-19549999D01*
X137884819Y-19549999D02*
X137932438Y-19645237D01*
X137932438Y-19645237D02*
X137980057Y-19692856D01*
X137980057Y-19692856D02*
X138122914Y-19788094D01*
X138122914Y-19788094D02*
X138313390Y-19835713D01*
X138313390Y-19835713D02*
X138694342Y-19835713D01*
X138694342Y-19835713D02*
X138789580Y-19788094D01*
X138789580Y-19788094D02*
X138837200Y-19740475D01*
X138837200Y-19740475D02*
X138884819Y-19645237D01*
X138884819Y-19645237D02*
X138884819Y-19454761D01*
X138884819Y-19454761D02*
X138837200Y-19359523D01*
X138837200Y-19359523D02*
X138789580Y-19311904D01*
X138789580Y-19311904D02*
X138694342Y-19264285D01*
X138694342Y-19264285D02*
X138456247Y-19264285D01*
X138456247Y-19264285D02*
X138361009Y-19311904D01*
X138361009Y-19311904D02*
X138313390Y-19359523D01*
X138313390Y-19359523D02*
X138265771Y-19454761D01*
X138265771Y-19454761D02*
X138265771Y-19645237D01*
X138265771Y-19645237D02*
X138313390Y-19740475D01*
X138313390Y-19740475D02*
X138361009Y-19788094D01*
X138361009Y-19788094D02*
X138456247Y-19835713D01*
X135789580Y-20216666D02*
X135837200Y-20264285D01*
X135837200Y-20264285D02*
X135884819Y-20407142D01*
X135884819Y-20407142D02*
X135884819Y-20502380D01*
X135884819Y-20502380D02*
X135837200Y-20645237D01*
X135837200Y-20645237D02*
X135741961Y-20740475D01*
X135741961Y-20740475D02*
X135646723Y-20788094D01*
X135646723Y-20788094D02*
X135456247Y-20835713D01*
X135456247Y-20835713D02*
X135313390Y-20835713D01*
X135313390Y-20835713D02*
X135122914Y-20788094D01*
X135122914Y-20788094D02*
X135027676Y-20740475D01*
X135027676Y-20740475D02*
X134932438Y-20645237D01*
X134932438Y-20645237D02*
X134884819Y-20502380D01*
X134884819Y-20502380D02*
X134884819Y-20407142D01*
X134884819Y-20407142D02*
X134932438Y-20264285D01*
X134932438Y-20264285D02*
X134980057Y-20216666D01*
X134884819Y-19311904D02*
X134884819Y-19788094D01*
X134884819Y-19788094D02*
X135361009Y-19835713D01*
X135361009Y-19835713D02*
X135313390Y-19788094D01*
X135313390Y-19788094D02*
X135265771Y-19692856D01*
X135265771Y-19692856D02*
X135265771Y-19454761D01*
X135265771Y-19454761D02*
X135313390Y-19359523D01*
X135313390Y-19359523D02*
X135361009Y-19311904D01*
X135361009Y-19311904D02*
X135456247Y-19264285D01*
X135456247Y-19264285D02*
X135694342Y-19264285D01*
X135694342Y-19264285D02*
X135789580Y-19311904D01*
X135789580Y-19311904D02*
X135837200Y-19359523D01*
X135837200Y-19359523D02*
X135884819Y-19454761D01*
X135884819Y-19454761D02*
X135884819Y-19692856D01*
X135884819Y-19692856D02*
X135837200Y-19788094D01*
X135837200Y-19788094D02*
X135789580Y-19835713D01*
X140489580Y-31725666D02*
X140537200Y-31773285D01*
X140537200Y-31773285D02*
X140584819Y-31916142D01*
X140584819Y-31916142D02*
X140584819Y-32011380D01*
X140584819Y-32011380D02*
X140537200Y-32154237D01*
X140537200Y-32154237D02*
X140441961Y-32249475D01*
X140441961Y-32249475D02*
X140346723Y-32297094D01*
X140346723Y-32297094D02*
X140156247Y-32344713D01*
X140156247Y-32344713D02*
X140013390Y-32344713D01*
X140013390Y-32344713D02*
X139822914Y-32297094D01*
X139822914Y-32297094D02*
X139727676Y-32249475D01*
X139727676Y-32249475D02*
X139632438Y-32154237D01*
X139632438Y-32154237D02*
X139584819Y-32011380D01*
X139584819Y-32011380D02*
X139584819Y-31916142D01*
X139584819Y-31916142D02*
X139632438Y-31773285D01*
X139632438Y-31773285D02*
X139680057Y-31725666D01*
X139680057Y-31344713D02*
X139632438Y-31297094D01*
X139632438Y-31297094D02*
X139584819Y-31201856D01*
X139584819Y-31201856D02*
X139584819Y-30963761D01*
X139584819Y-30963761D02*
X139632438Y-30868523D01*
X139632438Y-30868523D02*
X139680057Y-30820904D01*
X139680057Y-30820904D02*
X139775295Y-30773285D01*
X139775295Y-30773285D02*
X139870533Y-30773285D01*
X139870533Y-30773285D02*
X140013390Y-30820904D01*
X140013390Y-30820904D02*
X140584819Y-31392332D01*
X140584819Y-31392332D02*
X140584819Y-30773285D01*
X138349580Y-31725666D02*
X138397200Y-31773285D01*
X138397200Y-31773285D02*
X138444819Y-31916142D01*
X138444819Y-31916142D02*
X138444819Y-32011380D01*
X138444819Y-32011380D02*
X138397200Y-32154237D01*
X138397200Y-32154237D02*
X138301961Y-32249475D01*
X138301961Y-32249475D02*
X138206723Y-32297094D01*
X138206723Y-32297094D02*
X138016247Y-32344713D01*
X138016247Y-32344713D02*
X137873390Y-32344713D01*
X137873390Y-32344713D02*
X137682914Y-32297094D01*
X137682914Y-32297094D02*
X137587676Y-32249475D01*
X137587676Y-32249475D02*
X137492438Y-32154237D01*
X137492438Y-32154237D02*
X137444819Y-32011380D01*
X137444819Y-32011380D02*
X137444819Y-31916142D01*
X137444819Y-31916142D02*
X137492438Y-31773285D01*
X137492438Y-31773285D02*
X137540057Y-31725666D01*
X138444819Y-30773285D02*
X138444819Y-31344713D01*
X138444819Y-31058999D02*
X137444819Y-31058999D01*
X137444819Y-31058999D02*
X137587676Y-31154237D01*
X137587676Y-31154237D02*
X137682914Y-31249475D01*
X137682914Y-31249475D02*
X137730533Y-31344713D01*
D11*
%TO.C,R3*%
X125737258Y-35477500D02*
X125262742Y-35477500D01*
X125737258Y-36522500D02*
X125262742Y-36522500D01*
%TO.C,JP5*%
X122450000Y-43750000D02*
X126550000Y-43750000D01*
X122450000Y-45750000D02*
X122450000Y-43750000D01*
X126550000Y-43750000D02*
X126550000Y-45750000D01*
X126550000Y-45750000D02*
X122450000Y-45750000D01*
%TO.C,JP4*%
X119200000Y-37750000D02*
X123300000Y-37750000D01*
X119200000Y-39750000D02*
X119200000Y-37750000D01*
X123300000Y-37750000D02*
X123300000Y-39750000D01*
X123300000Y-39750000D02*
X119200000Y-39750000D01*
%TO.C,JP2*%
X119250000Y-47800000D02*
X119250000Y-43700000D01*
X121250000Y-47800000D02*
X119250000Y-47800000D01*
X119250000Y-43700000D02*
X121250000Y-43700000D01*
X121250000Y-43700000D02*
X121250000Y-47800000D01*
%TO.C,JP1*%
X117300000Y-45750000D02*
X113200000Y-45750000D01*
X117300000Y-43750000D02*
X117300000Y-45750000D01*
X113200000Y-45750000D02*
X113200000Y-43750000D01*
X113200000Y-43750000D02*
X117300000Y-43750000D01*
%TO.C,JP3*%
X119150000Y-35000000D02*
X123250000Y-35000000D01*
X119150000Y-37000000D02*
X119150000Y-35000000D01*
X123250000Y-35000000D02*
X123250000Y-37000000D01*
X123250000Y-37000000D02*
X119150000Y-37000000D01*
%TO.C,J2*%
X136940000Y-47540000D02*
X136940000Y-55360000D01*
X136940000Y-49140000D02*
X137860000Y-49140000D01*
X136940000Y-55360000D02*
X143060000Y-55360000D01*
X137700000Y-51500000D02*
X137700000Y-53100000D01*
X137700000Y-53100000D02*
X138700000Y-53100000D01*
X137860000Y-47540000D02*
X136940000Y-47540000D01*
X137860000Y-49140000D02*
X137860000Y-47540000D01*
X138140000Y-49140000D02*
X137860000Y-49140000D01*
X138140000Y-49140000D02*
X138140000Y-47925000D01*
X138200000Y-53100000D02*
X138200000Y-55360000D01*
X138700000Y-51500000D02*
X137700000Y-51500000D01*
X138700000Y-53100000D02*
X138700000Y-51500000D01*
X138700000Y-53100000D02*
X138700000Y-55360000D01*
X139500000Y-51000000D02*
X140500000Y-51000000D01*
X139500000Y-55360000D02*
X139500000Y-51000000D01*
X140500000Y-51000000D02*
X140500000Y-55360000D01*
X141300000Y-51500000D02*
X142300000Y-51500000D01*
X141300000Y-53100000D02*
X141300000Y-51500000D01*
X142140000Y-47540000D02*
X142140000Y-49140000D01*
X142140000Y-49140000D02*
X141860000Y-49140000D01*
X142300000Y-51500000D02*
X142300000Y-53100000D01*
X142300000Y-53100000D02*
X141300000Y-53100000D01*
X143060000Y-47540000D02*
X142140000Y-47540000D01*
X143060000Y-49140000D02*
X142140000Y-49140000D01*
X143060000Y-55360000D02*
X143060000Y-47540000D01*
%TO.C,C3*%
X115490000Y-19859420D02*
X115490000Y-20140580D01*
X116510000Y-19859420D02*
X116510000Y-20140580D01*
%TO.C,C4*%
X118490000Y-19859420D02*
X118490000Y-20140580D01*
X119510000Y-19859420D02*
X119510000Y-20140580D01*
D12*
%TO.C,U3*%
X114220000Y-18600000D02*
G75*
G02*
X114060000Y-18600000I-80000J0D01*
G01*
X114060000Y-18600000D02*
G75*
G02*
X114220000Y-18600000I80000J0D01*
G01*
D11*
X114060000Y-21050000D02*
X114060000Y-18950000D01*
X111940000Y-18960000D02*
X111940000Y-21060000D01*
%TO.C,R5*%
X137082500Y-43762742D02*
X137082500Y-44237258D01*
X136037500Y-43762742D02*
X136037500Y-44237258D01*
%TO.C,U4*%
X129940000Y-19010000D02*
X129940000Y-21110000D01*
X132060000Y-21100000D02*
X132060000Y-19000000D01*
D12*
X132220000Y-18650000D02*
G75*
G02*
X132060000Y-18650000I-80000J0D01*
G01*
X132060000Y-18650000D02*
G75*
G02*
X132220000Y-18650000I80000J0D01*
G01*
D11*
%TO.C,R1*%
X117672500Y-39237258D02*
X117672500Y-38762742D01*
X116627500Y-39237258D02*
X116627500Y-38762742D01*
D12*
%TO.C,U1*%
X112250000Y-35450000D02*
X114050000Y-35450000D01*
X112250000Y-37400000D02*
X112250000Y-36600000D01*
X112250000Y-38550000D02*
X114050000Y-38550000D01*
X114800000Y-38650000D02*
G75*
G02*
X114540000Y-38650000I-130000J0D01*
G01*
X114540000Y-38650000D02*
G75*
G02*
X114800000Y-38650000I130000J0D01*
G01*
%TO.C,U2*%
X136540000Y-35540000D02*
X141640000Y-35540000D01*
X136540000Y-36790000D02*
X136540000Y-35540000D01*
X136540000Y-38390000D02*
X136540000Y-39640000D01*
X141640000Y-35540000D02*
X141640000Y-39640000D01*
X141640000Y-39640000D02*
X136540000Y-39640000D01*
X136584391Y-36787431D02*
G75*
G02*
X136589999Y-38389999I-364391J-802569D01*
G01*
X136230000Y-40090000D02*
G75*
G02*
X135890000Y-40090000I-170000J0D01*
G01*
X135890000Y-40090000D02*
G75*
G02*
X136230000Y-40090000I170000J0D01*
G01*
D11*
%TO.C,TP16*%
X135450000Y-49000000D02*
G75*
G02*
X133550000Y-49000000I-950000J0D01*
G01*
X133550000Y-49000000D02*
G75*
G02*
X135450000Y-49000000I950000J0D01*
G01*
%TO.C,TP13*%
X135510000Y-34334000D02*
G75*
G02*
X133610000Y-34334000I-950000J0D01*
G01*
X133610000Y-34334000D02*
G75*
G02*
X135510000Y-34334000I950000J0D01*
G01*
%TO.C,TP4*%
X129686000Y-51500000D02*
G75*
G02*
X127786000Y-51500000I-950000J0D01*
G01*
X127786000Y-51500000D02*
G75*
G02*
X129686000Y-51500000I950000J0D01*
G01*
%TO.C,TP2*%
X112950000Y-33000000D02*
G75*
G02*
X111050000Y-33000000I-950000J0D01*
G01*
X111050000Y-33000000D02*
G75*
G02*
X112950000Y-33000000I950000J0D01*
G01*
%TO.C,TP1*%
X120700000Y-32250000D02*
G75*
G02*
X118800000Y-32250000I-950000J0D01*
G01*
X118800000Y-32250000D02*
G75*
G02*
X120700000Y-32250000I950000J0D01*
G01*
D12*
%TO.C,SW1*%
X123920000Y-50620000D02*
X123920000Y-50670000D01*
X123450000Y-51950000D02*
X123450000Y-52890000D01*
X122330000Y-50620000D02*
X123920000Y-50620000D01*
X121000000Y-55400000D02*
X119250000Y-55400000D01*
X121000000Y-53900000D02*
X122770000Y-53900000D01*
X121000000Y-53900000D02*
X121000000Y-55400000D01*
X121000000Y-53900000D02*
X119110000Y-53900000D01*
X119250000Y-55400000D02*
X119250000Y-53950000D01*
X119170000Y-50620000D02*
X117580000Y-50620000D01*
X119110000Y-53900000D02*
X118730000Y-53900000D01*
X118030000Y-51940000D02*
X118030000Y-52880000D01*
X117580000Y-50620000D02*
X117580000Y-50670000D01*
D11*
%TO.C,R4*%
X125737258Y-39522500D02*
X125262742Y-39522500D01*
X125737258Y-38477500D02*
X125262742Y-38477500D01*
%TO.C,R2*%
X116627500Y-35762742D02*
X116627500Y-36237258D01*
X117672500Y-35762742D02*
X117672500Y-36237258D01*
D12*
%TO.C,Q1*%
X129036000Y-46190000D02*
X129036000Y-46820000D01*
X130436000Y-45000000D02*
X129436000Y-45000000D01*
X130436000Y-45000000D02*
X130436000Y-45870000D01*
X130436000Y-47140000D02*
X130436000Y-48000000D01*
X130436000Y-48000000D02*
X129436000Y-48000000D01*
D11*
%TO.C,C6*%
X137510000Y-19909420D02*
X137510000Y-20190580D01*
X136490000Y-19909420D02*
X136490000Y-20190580D01*
%TO.C,C5*%
X133490000Y-19909420D02*
X133490000Y-20190580D01*
X134510000Y-19909420D02*
X134510000Y-20190580D01*
%TO.C,C2*%
X141050000Y-31699580D02*
X141050000Y-31418420D01*
X142070000Y-31699580D02*
X142070000Y-31418420D01*
%TO.C,C1*%
X137070000Y-31418420D02*
X137070000Y-31699580D01*
X136050000Y-31418420D02*
X136050000Y-31699580D01*
%TD*%
%LPC*%
D13*
%TO.C,J1*%
X116095000Y-23735000D03*
X116095000Y-26275000D03*
X118635000Y-23735000D03*
X118635000Y-26275000D03*
X121175000Y-23735000D03*
X121175000Y-26275000D03*
X123715000Y-23735000D03*
X123715000Y-26275000D03*
X126255000Y-23735000D03*
X126255000Y-26275000D03*
X128795000Y-23735000D03*
X128795000Y-26275000D03*
X131335000Y-23735000D03*
X131335000Y-26275000D03*
X133875000Y-23735000D03*
D14*
X133875000Y-26275000D03*
%TD*%
D15*
%TO.C,R3*%
X124675000Y-36000000D03*
X126325000Y-36000000D03*
%TD*%
D16*
%TO.C,JP5*%
X123200000Y-44750000D03*
X125800000Y-44750000D03*
%TD*%
%TO.C,JP4*%
X119950000Y-38750000D03*
X122550000Y-38750000D03*
%TD*%
D17*
%TO.C,JP2*%
X120250000Y-47050000D03*
X120250000Y-44450000D03*
%TD*%
D16*
%TO.C,JP1*%
X116550000Y-44750000D03*
X113950000Y-44750000D03*
%TD*%
%TO.C,JP3*%
X119900000Y-36000000D03*
X122500000Y-36000000D03*
%TD*%
D18*
%TO.C,J2*%
X139000000Y-49000000D03*
D19*
X141000000Y-49000000D03*
%TD*%
D20*
%TO.C,C3*%
X116000000Y-20775000D03*
X116000000Y-19225000D03*
%TD*%
%TO.C,C4*%
X119000000Y-20775000D03*
X119000000Y-19225000D03*
%TD*%
D21*
%TO.C,U3*%
X113000000Y-20000000D03*
D22*
X113750000Y-20950000D03*
X113250000Y-20950000D03*
X112750000Y-20950000D03*
X112250000Y-20950000D03*
X112250000Y-19050000D03*
X112750000Y-19050000D03*
X113250000Y-19050000D03*
X113750000Y-19050000D03*
%TD*%
D23*
%TO.C,R5*%
X136560000Y-43175000D03*
X136560000Y-44825000D03*
%TD*%
D22*
%TO.C,U4*%
X131750000Y-19100000D03*
X131250000Y-19100000D03*
X130750000Y-19100000D03*
X130250000Y-19100000D03*
X130250000Y-21000000D03*
X130750000Y-21000000D03*
X131250000Y-21000000D03*
X131750000Y-21000000D03*
D21*
X131000000Y-20050000D03*
%TD*%
D24*
%TO.C,R1*%
X117150000Y-38175000D03*
X117150000Y-39825000D03*
%TD*%
D25*
%TO.C,U1*%
X114450000Y-37950000D03*
X114450000Y-37000000D03*
X114450000Y-36050000D03*
X111850000Y-36050000D03*
X111850000Y-37950000D03*
%TD*%
D26*
%TO.C,U2*%
X137180000Y-40500000D03*
X138450000Y-40500000D03*
X139730000Y-40500000D03*
X141000000Y-40500000D03*
X141000000Y-34680000D03*
X139730000Y-34680000D03*
X138450000Y-34680000D03*
X137180000Y-34680000D03*
D27*
X139090000Y-37590000D03*
%TD*%
D28*
%TO.C,TP16*%
X134500000Y-49000000D03*
%TD*%
%TO.C,TP13*%
X134560000Y-34334000D03*
%TD*%
%TO.C,TP4*%
X128736000Y-51500000D03*
%TD*%
%TO.C,TP2*%
X112000000Y-33000000D03*
%TD*%
%TO.C,TP1*%
X119750000Y-32250000D03*
%TD*%
D29*
%TO.C,SW1*%
X123500000Y-53500000D03*
X123500000Y-51300000D03*
X118000000Y-53500000D03*
X118000000Y-51300000D03*
D30*
X121750000Y-50600000D03*
X120750000Y-50600000D03*
X119750000Y-50600000D03*
D31*
X122250000Y-52400000D03*
X119250000Y-52400000D03*
%TD*%
D15*
%TO.C,R4*%
X126325000Y-39000000D03*
X124675000Y-39000000D03*
%TD*%
D23*
%TO.C,R2*%
X117150000Y-36825000D03*
X117150000Y-35175000D03*
%TD*%
D29*
%TO.C,Q1*%
X130886000Y-46500000D03*
X128586000Y-47450000D03*
X128586000Y-45550000D03*
%TD*%
D20*
%TO.C,C6*%
X137000000Y-19275000D03*
X137000000Y-20825000D03*
%TD*%
%TO.C,C5*%
X134000000Y-20825000D03*
X134000000Y-19275000D03*
%TD*%
D32*
%TO.C,C2*%
X141560000Y-32334000D03*
X141560000Y-30784000D03*
%TD*%
D20*
%TO.C,C1*%
X136560000Y-30784000D03*
X136560000Y-32334000D03*
%TD*%
%LPD*%
M02*
